<svg id="icon-choropleth_map" xmlns="http://www.w3.org/2000/svg" viewBox="0 0 130 130">
  <style>
    .bg { 
      fill: hsl(280, 84%, 31%);
    }
    .c1 { 
      fill: #FFFFFF;
    }
    .c2 { 
      opacity: 0.35;
    }
    .c3 { 
      opacity: 0.5;
    }
    .c4 { 
      opacity: 0.75;
    }
  </style>
  <circle class="bg" cx="65" cy="65" r="64"/>
  <g>
    <path class="c1" d="M61.579,54.551h0.354l0.151-0.436 l0.898-0.316l0.42,0.354l0.641-0.24l0.22-0.36l0.27-0.255v-1.114l1.887-1.036l0.825-0.095l-0.282-0.827l1.031-0.653 l-0.052-0.352l0.08-0.134l-0.737-0.8l0.458-0.688l-0.425-0.356l0.273-1.093l0.165-0.264l-1.082-0.341l-1.255-1.618l-0.419-0.203 l-0.27,0.179l-2.097-0.233l-0.777,0.654l-0.539-0.538l-0.229,0.189L60.059,43.7l-1.096-0.776l-0.69,0.444l-0.496-0.417 l-0.829-0.293l-0.566,0.313l-1.609,0.423l-0.519-0.468l-0.229,1.149l-0.776,0.401l-0.08,0.13l0.308,1.292l0.776,2.536 l1.312,2.18l1.277,0.925l0.317,1.365l1.693-0.623l1.451-0.086l1.537,2.047L61.579,54.551z"/>
    <path class="c1" d="M99.301,58.984l0.147,0.17l1.029-0.119l0.643-0.245l0.033-0.372l0.635-0.867l-0.521-0.645l-0.235-1.064 l0.41-2.308l-0.192-2.48l0.544-1.958l0.318-2.326l0.127-1.631l1.431-1.874l1.06-2.237l-0.311-0.238l-0.883-0.235l-2.221,0.209 l-1.041,1.315l-0.904-0.059l-0.745,0.207l-1.945-0.603l-0.1,0.7h-0.52l-0.104,0.154l0.228,0.086l0.253,0.547l0.597-0.447 l0.427,0.197l0.874-0.187l0.358,0.701l-0.076,0.163l0.422,0.246v0.667l-0.22,0.293l-0.048,1.246l-1.058,1.515l0.174,1.226h0.586 l0.288,1.1l-0.416,0.831l-0.654,2.192L97.221,53.9l-0.311,1.669l0.606,0.49l0.696,1.125l0.088,0.304l0.898,0.524L99.301,58.984z"/>
    <path class="c1 c3" d="M95.42,54.946l0.535,0.29l0.33-1.692l0.473-1.041l0.662-2.21l0.275-0.562h-0.683 l-0.348-2.469l1.118-1.604l0.05-1.263l0.081-0.108l-0.59-0.343l0.017-0.036l-0.184-0.085l-1.108,0.83l-0.601-1.298l-0.794-0.301 l-0.062-0.931l0.452-0.515h0.292l0.19-0.284h0.186l0.132-0.927l-0.134,0.018l-0.639-0.739l-0.705-0.07l-0.427,0.57l-1.351-0.621 l-2.146-2.673l-0.308-0.038l-1.125-0.468l-0.754,0.694l-0.74,0.196l-1.839-0.833h-0.906l-0.26,0.379l-1.445,0.419l-0.772-1.307 l-0.564-0.122l-1.146,0.245l0.073,1.158l-0.198,0.835l0.305,0.396l-0.407,0.639l0.17,0.731l-0.488,0.362l0.035,0.429 l-0.204,0.406l0.76,0.999l0.256,0.794l-0.42,0.785v0.605l-0.448,0.52v0.708l0.719,0.562l0.132,0.893l0.476,0.091l0.492,0.826 l1.267,0.644l1.402,0.683l0.724,0.719l-0.501,0.328l0.533,0.069l0.947,1.116l0.725,0.195l0.306,0.912l-0.636,0.395l-0.046,0.309 h0.173l0.529,0.531l0.928,0.282l0.193,0.742l0.136,0.046l0.273-0.028l0.454-1.07l0.426-0.429l1.353,0.873l0.971-0.041 l0.32-0.241l0.665,0.567l0.111-0.569l0.762-0.255L95.42,54.946z M96.019,40.373l2.622,0.812l0.626-0.173l0.562,0.037 l0.496-0.628l-0.97-0.617l-0.459-0.118l-0.861,0.508h-0.75L96.019,40.373z"/>
    <path class="c1 c3" d="M30.379,76.906l0.456,0.493l0.812-0.173 l0.858-0.621l1.624,0.234l-0.021,0.379l1.03,0.047l0.092-0.015l0.375-1.211l-0.159-1.425l0.287-0.269l-0.625-1.232l-0.719-0.763 l0.652-0.54l-3.091-3.374l2.75,0.613l1.504-0.156l0.391-0.597l0.916-0.474l2.496,0.046l0.304-0.212l0.389-0.802l0.408-0.065 l0.496-1.485l0.347-0.771l0.249-1.429l-0.007-1.322l0.903-0.226l0.821,0.288l1.683-1.397v-0.442l0.671-0.304l0.491-0.831 l0.115-0.613l0.546-0.372l-0.397-0.542l0.043-1.266l0.183-0.411l-0.223-0.4l-0.519-0.044l-0.535-0.685l-0.499,0.25l-1.774-1.014 l-0.226-1.802l-0.221,0.106l-0.761,0.205l-0.923,0.825l-1.679,0.24l-0.051-0.813l-0.678,0.021l-0.235-1.255l-0.312,0.508 l-1.812,0.165l-1.992,0.468l-0.846-0.223l-0.085-0.126l-0.795,0.062l0.086,1.291l-0.375,0.969l0.434,1.197l0.33,1.798 l-0.337,0.951l-0.464-0.113l-0.729,0.316l-0.764,2.291l-2-0.85l-3.1,1.702l-1.181,0.307l-0.376,0.286l-0.327,1.208l-2.781,1.151 l-0.171,0.415l-0.255,0.091l0.037,0.029l0.189,0.765l-0.053,0.078l0.007,0.004l0.663-0.261l0.663,0.392l0.747-0.63l1.184-0.251 l4.698,2.144l-1.997,0.469l-2.125-1.003l-1.237-0.056l-0.06,0.052l0.088,0.759l1.196,0.599l0.944,1.722l-1.142-0.083 l-0.242,0.769l-0.609,0.859l2.343,2.679l0.395,1.188l1.231,0.827l0.611,0.266l1.395,0.803L30.379,76.906z M22.343,73.988 l-1.069-0.337l-0.199-1.676l2.062,1.103L22.343,73.988z"/>
    <path class="c1 c4" d="M46.691,47.383 l0.729,0.73l0.081,0.263l0.708-0.525l0.777-0.231l0.665-0.552l0.949,0.156l0.655-0.235l0.74-0.956l0.424-0.259l-0.319-1.339 l0.441-0.72l0.596-0.309l0.346-1.732l0.574-0.416l-0.173-0.72l-0.594-0.597l0.613-0.922l-0.585-0.584l-0.166-1.335l0.264-0.309 l-0.303-0.055l0.253-1.326l-0.597-1.211l-0.603-0.396l-1.029-1.134l-1.154,1.099l-2.669,1.073l-1.345,0.202l-1.663,0.81 l-1.305,1.171l-0.494,0.229l-0.756,1.702l1.406,0.125l1.538,0.772l-1.082,0.41l0.089,0.836l0.574,1.011l-0.374,0.267 l0.277,0.096l0.289,3.37h1.303L46.691,47.383z"/>
    <path class="c1 c4" d="M86.381,74.309h0.312l0.339,0.519l0.005-0.001l0.634-0.719l1.11,0.166l0.15,0.198l0.546-0.157l1.463-1.422 l-0.034-0.327l0.312-0.854l-0.027-0.377l1.105-1.942l1.023-0.66l0.16-0.455l-0.186-1.221l0.282-0.89l1.904-1.08l0.247-0.944 l1.023-0.863l0.142-0.557l0.867-1.378l-0.01-0.014l-0.86,0.157l-0.285-0.765l0.586-1.423l0.919-0.507l0.163-0.024l-0.016-0.147 l-0.807-0.47l-0.179-0.618l-0.548-0.855l-0.498-0.369l-0.314,0.042l-1.11-0.615l-0.913-0.804l-0.097,0.493l-0.799,0.292 l-0.722-0.615l-0.001,0h-1.546l-0.811-0.523l-0.412,1.08l-0.688,0.072l-0.159,0.413l-0.398,0.058l-0.363,0.554l-0.349,0.037 l-0.189,0.668l-0.308,1.34l-0.96,0.479l-0.753-0.235l-0.138,0.071l0.806,0.217l-0.444,1.877l-0.103,0.019v0.393l0.517,0.134 l0.63,1.681l-0.375,0.375l0.091,0.52l-0.291,0.34l0.071,0.511l-0.439,0.468l-0.121,0.721l-0.526,0.126l0.19,0.171l-0.489,0.584 l0.916,0.512l0.352-0.142l0.417,1.133l-0.844,0.503l0.285,0.287l-0.119,0.261l0.188,0.105l0.26,0.126l0.135,1.934l-0.263,0.196 l0.214,0.08l0.308,0.922
    L85.78,73.56
    L86.381,74.309z"/>
    <path class="c1 c3" d="M74.438,76.936 l0.178,0.063l0.155,0.245l0.572-0.223l1.444,0.094l0.079,0.085l0.445-0.414l-0.229-0.798l0.879-0.877l0.424,0.336l0.05-0.104 l0.886-0.191l0.079-0.219l1.168,0.2l0.396,0.596l0.924-3.103l1.654-0.362l0.282-0.188l1.13,0.78l0.069-0.035l-0.161-1.022 l0.404-0.303l-0.072-0.832l-0.716-0.554l0.162-0.353l-0.231-0.232v-0.75l0.494-0.295l-0.335-0.19l-0.724-0.345l-0.245-0.925 l0.213-0.253l-0.185-0.164l0.557-0.936l0.476-0.115l0.062-0.367l0.318-0.34l-0.067-0.483l0.277-0.324l-0.101-0.568l0.289-0.288 l-0.222-0.59l-0.763-0.198v-0.8l-0.558-0.493l0.449-0.681l0.387-0.073l0.071-0.301l-0.283-0.077l-0.84,0.551l-0.725-0.704 l-0.248,0.166l-0.78-0.271l-0.886-0.511l0.014-0.029h-0.554l0.074-0.807l-0.616-0.519l0.435-0.563l-0.856-0.977l-0.219-0.622 l-0.558-0.14l-0.466,0.326l0.169,0.235l-0.898,0.522l-1.719-0.157l-0.404,0.483l-0.685-0.219l-0.398,0.237l-0.901,0.28 l-1.2-0.348l-1.248-1.646l-1.326-1.071l-0.199-1.087l-0.84-0.956l-0.752-0.161l-1.258,0.145l-1.104,0.634v0.966l-0.438,0.413 l0.282,0.145l0.577,0.55l0.468,1.891l-0.777,1.198l0.26,0.433l-0.593,1.278l-0.471-0.119l-0.287,0.07l1.439,1.895l-1.13,0.62 l0.302,0.565l-0.137,1.372l0.799,1.126l0.757,3.409l0.198,1.73l0.002,0.664l0.804,0.535l0.713-0.389l0.571,0.321l0.537-0.34 l0.534,0.536l1.224-1.157l1.207,1.729l0.581,0.947l1.435,0.74l0.27,1.978l-0.335,0.646l0.116,0.384L74.438,76.936z"/>
    <path class="c1 c3" d="M55.585,92.15l1.104,0.964l2.109-0.569 l0.352-0.161l0.134-0.755l0.461-0.744l0.441-1.424l0.853-1.123l-0.086-0.878l0.712-0.357l0.359,0.246l0.013-0.032l0.145-1.173 l-0.412-1.288l0.441-0.468l-0.067-0.276l-0.397-0.176l-0.275-1.547l0.52-0.652l0.377-0.595l-0.229-2.305l-0.516-0.894 l-0.962-0.724l-0.796-1.036H59.26l-1.1,0.195l-1.908-0.298l-0.027,0.307l-1.298,0.336l-0.553-0.386l-0.246,0.055l-0.749,0.98 l-2.03-0.234l-0.802,0.221l-0.51,1.051l-0.897-0.139l-0.293,0.614l-0.042,0.869l0,0.261l0.668,0.957l0.19,0.702l-0.398,0.798 l-0.363,0.034l-0.126,1.295l-1.086,0.607l-0.103,0.169l1.239,0.657l-0.372,0.374l0.017,0.066l0.387-0.316h1.524l0.521,0.732 h0.333l0.611,0.45l-0.038,0.61l0.495,0.194l0.806,1.254l-0.498,1.666l0.412,0.409l0.013,0.18l0.949,0.083v0.697l0.399,0.668 L55.585,92.15z"/>
    <path class="c1 c2" d="M51.749,76.178l1.181,0.137l0.625-0.82l1.031-0.227l0.535,0.372l0.17-0.043l0.038-0.421 l0.619-0.444l0.78,0.469l1.406,0.169l1.041-0.179l0.681-0.005l0.712-0.979l1.621-0.439l0.103-0.187l0.073-1.368l0.542-0.688 l1.047-0.376l0.973-0.799l0.838-0.189l-0.164-1.422l-0.724-3.249l-0.88-1.158l0.146-1.466l-0.239-0.459l-0.248-0.781 l0.841-0.461l-1.18-1.553l0.396-0.846l1.018-0.248l0.045-0.097l-0.308-0.514l0.881-1.357l-0.293-1.187l-0.288-0.274 l-0.639-0.174l-0.875,0.422l-0.414-0.348l-0.196,0.565l-1.569-0.016l-1.135-0.295l0.38-0.746l0.242-0.288l-0.737-0.981 l-0.838,0.049l-2.664,0.933l-0.115-0.989l-0.256-1.088l-1.192-0.913l-1.446-2.432l-0.614-2.009l-0.099,0.06l-0.718,0.991 l-1.19,0.427l-0.755-0.125L49.37,48.55l-0.78,0.232l-0.66,0.534l0.722,1.036l0.31,1.402l-0.223,0.784l-1.22,0.894l0.284,1.176 l0.563,1.01l-0.344,0.771v0.627l0.51,0.686l-0.159,0.75l-0.588,0.399l-0.116,0.454l-0.696,1.176l-0.371,0.202v0.235 l-2.479,2.058l-0.928-0.325v0.54l-0.304,1.698l-0.355,0.781l-0.483,1.455l0.201,0.233l1.746,0.909l0.298,1.173l1.061-0.277 l0.039-0.119l0.703-0.463l0.852,0.614l0.71,1.138l1.595,1.783l-0.044,1.519l1.333,0.844l1.139,1.294L51.749,76.178z"/>
    <path class="c1" d="M38.763,91.196l1.494,0.543l0.484-0.177l0.606-0.702l0.644-0.498l0.849-0.044 l0.394-0.438l0.218-1.853l1-0.758l0.911-1.091l1.609-2.513l0.857-0.48l0.155-1.596l0.601-0.057l-0.056-0.207l-0.729-0.979 l0.096-1.802l0.659-1.377l0.901,0.142l0.386-0.795l0.906-0.25l-0.008-0.055l-0.894-1.018l-1.649-1.008l0.05-1.702l-1.382-1.554 l-0.681-1.079l-0.048,0.144l-2.211,0.512h-0.389l-0.396-1.557l-1.582-0.863l-0.218-0.254l-0.241,0.499l-0.784,0.546 l-2.567-0.048l-0.458,0.236l-0.506,0.775l-1.998,0.209l1.672,1.823l-0.607,0.568l0.12,0.157l0.997,1.966l-0.468,0.439 l0.126,1.133l-0.621,2.003l-0.806,0.13l-2.14-0.098l0.025-0.473l-0.317-0.046l-0.335,0.243l0.259,0.936l-0.68,0.3l-0.193,0.311 l0.938,1.093l0.056,2.571l-0.626,0.865l0.001,0.015l-0.104,0.127l-0.002-0.002l-0.291,0.344l-0.22,0.344l0.024,0.233 l0.256-0.132l2.941,2.091l1.126,1.848l0.071,0.284l0.385,0.026l1.698,0.575l0.321,0.903L38.763,91.196z M29.213,79.819 l2.187,2.082l0.396,0.55l-0.034-1.537l-0.466-0.543h-0.483v-0.214l-0.327,0.21l-1.256-0.55L29.213,79.819z"/>
    <path class="c1" d="M44.63,53.16l0.876,0.5l0.792-0.397l0.199,0.199l-0.104-0.431 l1.479-1.094l0.059-0.208l-0.232-1.056l-0.935-1.296l-0.225-0.734l-0.672-0.695l-0.66-1.105h-1.632l-0.326-3.636l-0.531-0.184 l-0.129-0.935l0.376-0.269l-0.243-0.511l-0.07-0.652l-0.041,0.018l-2.534,1.657l-0.431-0.085l-0.651,0.2l-1.979-0.685 l-1.804,0.094l-2.426-0.664l-0.362,0.142l-0.532,0.799l-1.177-0.28l0.108-0.844l-0.219-0.458l-0.645-1.836l0.377-0.38 l0.019-0.188l-0.12-0.269l-0.949-0.148l-0.293,0.391l-1.039,0.18l-0.688-0.33l-1.067-0.303l0.41,0.765l-0.156,0.851l0.356,1.569 l1.614,2.121l0.072,1.672l0.402,0.497l0.069,1.651l-0.343,0.14l-0.086,0.278l0.371,0.823l0.684,1.118l0.376,0.136l0.285,0.705 l-0.462,0.614h-0.333l-0.091,0.087l0.268,0.737l0.181,0.041l0.26-0.293l1.449-0.575l1.211,0.581l1.648-0.129l0.201,0.297 l0.242,0.063l1.818-0.423l1.38-0.13l0.564-0.918l1.219,0.636l0.179,0.953l0.789-0.025l0.044,0.701l0.308-0.044l0.875-0.782 l0.931-0.251l0.914-0.508l0.531,0.529L44.63,53.16z M25.84,47.769l-0.797-1.581l0.467,0.087l-0.334-0.312h1.775l0.568,0.646 l-0.632,0.954l-0.131-0.123L25.84,47.769z"/>
    <path class="c1" d="M82.886,58.662l0.769,0.413l0.161,0.162 l0.156-0.103l0.076-0.552l1.193-0.615l0.761,0.238l0.177-0.089l0.208-0.905l0.381-1.345l0.55-0.057l0.224-0.342l-0.183-0.705 l-0.633-0.192l-0.414-0.415H85.34l0.343-1.916l-0.037-0.01l-0.898-1.06l-0.79-0.103l-0.659-1.169l0.245-0.161l-0.879-0.408 l-1.541-0.783l-0.41-0.688l-0.752-0.144l-0.152-1.191l-0.793-0.62v-1.566l0.448-0.52v-0.485l0.338-0.631l-0.097-0.303 l-1.019-1.267l0.366-0.729l-0.059-0.705l0.408-0.302l-0.117-0.501l0.257-0.401l-0.168-0.217l0.274-1.153l-0.114-1.825 l1.219-0.328l-0.61-0.234l-1.228-1.012l-1.007-0.077l-0.436-0.653l0.069-0.392l-0.304-0.421l-0.324-0.669l0.302-0.826 l-0.086-0.309l-0.456,1.109l-0.629,0.628l-1.449,0.279l-0.671-0.054l0.036,1.376l-0.378,0.402l0.025,0.969l-0.93,1.002 l-0.187,0.709l0.162,0.575l0.381,0.579l-0.169,1.112l-0.468,0.187l-0.375,0.605l-0.968-0.043l-0.043,0.119l-1.291,0.556 l-0.051,0.718l0.94,0.578l-0.713,0.958l-0.424-0.055l0.11,0.297l-0.1,0.107l0.071-0.011l0.416,0.73l-1.205,1.834l0.047,0.443 l-0.33,0.524l-0.058,0.258l0.802,0.672l-0.46,0.409l0.385,0.047l0.199,0.82l-0.368,0.615l0.093,0.641l-0.912,0.578l0.137,0.4 l0.879,0.188l1.24,1.412l0.182,0.995l1.17,0.963l1.084,1.43l0.595,0.172l0.548-0.171l0.615-0.4l0.495,0.159l0.309-0.369 l1.428,0.13l-0.051-0.07l0.474-0.863l0.812,0.176l0.481-0.338l1.524,0.381l0.361,1.031l1.259,1.344l-0.368,0.479l0.282,0.239 l-0.002,0.02l0.94,0.379l-0.221,0.468l0.009,0.005l0.215,0.069L82.886,58.662z"/>
    <path class="c1 c4" d="M62.327,96.421l0.069,0.003l0.506-0.311l0.197-0.609l0.305-0.477 l0.025-0.577l0.648-0.791l1.382-1.342l0.404,1.489h0.371l0.756,0.76l0.111,0.689l0.841-2.566l0.825,0.604l1.631-1.631 l0.896,2.017l0.215-0.156l0.4-0.571l0.548-0.101l0.888,0.15l0.015,0.142l0.171-0.086l1.165,1.248l0.604-0.94l0.409-0.088 l0.09-0.193l1.427-1.086l0.053-0.367l0.363-0.214v-0.221l0.617-0.479l-0.011-0.122l0.573-1.567l-0.36-0.126l-0.471-0.684 l-0.064-0.528l-1.373-0.214L75.87,88.02l-0.568-0.083l-1.383,0.005l0.493-1.865l-0.049-0.266l-1.437-1.526l-0.849-1.272 l0.605-3.587l-0.527-1.889l0.629-0.891l0.606-0.5l0.236-0.456l-0.156-1.147l-1.222-0.631l-0.711-1.16l-0.526-0.753l-0.559,0.514 l-0.645,0.399l-0.541-0.542l-0.365,0.23l-0.608-0.343l-0.756,0.414l-1.752-1.167V71.18l-0.41,0.093l-1.004,0.787l-0.858,0.308 l-0.168,0.214l-0.124,1.381L62.86,74.62l-1.69,0.459l-0.434,0.597l0.674,0.877l1.026,0.799l0.676,1.236l0.145,1.034l0.134,1.776 l-0.855,1.259l0.103,0.579L63,83.395l0.312,1.286l-0.409,0.433l0.298,0.935l-0.21,1.578l-0.281,0.708l-0.647,0.178l0.012,0.119 l-1.033,1.36l-0.408,1.361l-0.438,0.708l-0.113,1l-0.167,0.075l0.029,0.021l0.102,0.79l0.351,0.454l0.235,0.676l-0.237,1.147 l0.295,0.163l1.195-0.44L62.327,96.421z"/>
    <path class="c1 c3" d="M67.273,44.684l0.768,0.242 l0.517-0.786l-0.436-0.436l0.105-0.733l0.205-0.22l-0.295-0.786l0.591-0.168l-0.099-0.06l0.137-1.931l1.477-0.686l0.127-0.344 l1.112,0.05l0.24-0.387l0.241-0.096l0.024-0.167l-0.334-0.509v-0.286l-0.215-0.514l0.335-1.279l0.824-0.888l-0.025-0.973 l0.378-0.401l-0.029-1.079l-0.481-0.045l-1.303,0.26l-0.121-0.357l-0.614,0.507l-1.328-0.958l-0.704,0.41l-0.212-0.125 l-0.025,0.432l-3.471,0.118l-0.329-0.399l-1.047,0.05l-1.111,1.113l-0.409-1.504l-0.223-0.123l-1.781-0.389l-0.584,0.389 l-0.695-0.419l-0.146-0.715l0.292-0.292l-0.667,0.049l-1.306,0.573l-0.699-0.466l-0.108-0.761l-1.683-0.657l-1.249,0.079 l-0.026,0.134l1.144,1.21v0.751l-0.641,0.211l-0.89-0.29l-0.672,0.918l0.051,0.041l0.981,1.091L53.54,33.5l0.872,1.771 l-0.126,0.663l0.435,0.079v0.791l-0.521,0.612l0.069,0.557l0.789,0.788l-0.305,0.814l-0.17,0.25l0.21,0.211l0.395,1.643 l-0.457,0.331l0.312,0.28l1.019-0.268l0.78-0.462l1.511,0.569l0.638-0.41l1.567,1.109l0.278,0.064l0.149-0.139l0.353-0.362 l0.579,0.579l0.404-0.34l2.161,0.24l0.442-0.294l1.144,0.555L67.273,44.684z"/>
    <path class="c1 c2" d="M88.682,100.193l0.418,0.407l-0.064-0.136l0.931-0.879l-0.116-0.329l-0.048,0.007 l-0.258-0.064l-0.308,0.204l-0.508-0.359l-1.258-1.376l0.479-0.722l0.103,0.012l-0.068-0.441l0.632-0.102l0.874,0.012 l-0.303-0.499l0.562-1.65l0.573-0.036l0.531-0.306l0.244-0.638l1.053-0.748l-0.054-0.165l0.745-0.703l0.736-0.205l1.005-0.626 l0.066-0.369l-0.623,0.037l-0.397-0.791l0.844-1.883l1.387,0.978l0.447-0.041l0.97-0.78l0.663-0.693l1.672,0.128l0.203-0.048 l0.521-0.955l0.724-0.47l0.306-0.305l-0.124-0.479l0.147-0.652l-0.178-0.291l-1.283-0.99l-0.365-1.216l-0.427-0.428 l-0.896-0.101l-0.383-0.684l-0.119-0.624l1.806-1.99l-0.369-0.948l-1.256-0.754l-0.54-0.842l0.186-1.461l-0.458-0.564 l-0.071-0.747l-0.774-0.146l-2.192,0.574l-0.46,0.478l-0.217,0.463l0.072,0.241l0.394,0.188l0.244,0.735l-1.63,1.328 l-1.798,0.601l-0.395-0.997l0.402-0.85l0.661-0.33l0.104-1.224l-0.063-0.094l-1.389,1.351l-1.442,0.413l-0.32-0.417 l-0.171-0.025l-0.452,0.512l-0.992,0.331l-0.477-0.712H85.9l-1.053-1.313l-1.063-0.732l-1.108,0.225l-1.442,4.842l-1.21-1.515 l0.05-0.288l-0.126-0.162l-0.107,0.298l-0.846-0.17l-0.247,0.518l-0.423-0.335l0.13,0.414l-1.639,1.525l-0.489-0.526 l-0.827-0.055l-1.133,0.441l-0.411-0.649l-0.627-0.222l0.003-0.017l-0.087,0.127l0.463,1.658l-0.578,3.416l0.579,0.878 l1.585,1.674l0.143,0.775l-0.218,0.826l0.366,0.028l0.69-0.55l2.555,0.399l0.125,1.034l0.146,0.213l1.009,0.351l-0.845,2.313 l0.038,0.442l-0.66,0.529v0.285l-0.44,0.261l-0.042,0.297l-1.558,1.186l-0.195,0.42l-0.489,0.105l-0.675,0.969l-0.158,0.103 l0.358,1.192l0.538,0.023l0.438,1.389l0.744,0.308l0.104,0.928l0.289-0.101l0.633,0.522l0.102-0.271l0.883-0.187l0.514,0.245 l0.577-0.603l1.111,0.585l0.115-0.299h1.71l0.225,0.513l0.782-0.148l0.725-0.639l0.545,0.172l0.881-0.365l0.328,1.239 l0.232-0.181l0.372,0.202l0.273-0.272l0.867,0.379l0.127,0.276L88.682,100.193z M92.408,74.455l-0.099,1.171l0.433-0.365 l-0.109-0.052L92.408,74.455z"/>
  </g>
</svg>
