<svg id="icon-unit_chart" xmlns="http://www.w3.org/2000/svg" viewBox="0 0 130 130">
  <style>
    .bg {
      fill: hsl(280, 84%, 31%);
    }
    .c1 {
      fill: #FFFFFF;
    }
  </style>
  <circle class="bg" cx="65" cy="65" r="64"/>
  <g>
    <g>
      <path class="c1" d="M97.5,98.5h-65c-0.6,0-1-0.4-1-1v-65c0-0.6,0.4-1,1-1s1,0.4,1,1v64h64c0.6,0,1,0.4,1,1S98.1,98.5,97.5,98.5z"/>
    </g>
    <g>
      <circle class="c1" cx="45.9" cy="86.8" r="4.1"/>
    </g>
    <g>
      <circle class="c1" cx="45.9" cy="74.6" r="4.1"/>
    </g>
    <g>
      <circle class="c1" cx="45.9" cy="62.5" r="4.1"/>
    </g>
    <g>
      <circle class="c1" cx="65.4" cy="86.8" r="4.1"/>
    </g>
    <g>
      <circle class="c1" cx="65.4" cy="74.6" r="4.1"/>
    </g>
    <g>
      <circle class="c1" cx="65.4" cy="62.5" r="4.1"/>
    </g>
    <g>
      <circle class="c1" cx="65.4" cy="50.3" r="4.1"/>
    </g>
    <g>
      <circle class="c1" cx="65.4" cy="38.1" r="4.1"/>
    </g>
    <g>
      <circle class="c1" cx="84.9" cy="86.8" r="4.1"/>
    </g>
    <g>
      <circle class="c1" cx="84.9" cy="74.6" r="4.1"/>
    </g>
    <g>
      <circle class="c1" cx="84.9" cy="62.5" r="4.1"/>
    </g>
    <g>
      <circle class="c1" cx="84.9" cy="50.3" r="4.1"/>
    </g>
  </g>
</svg>
