<svg id="icon-nightingale_rose_chart" xmlns="http://www.w3.org/2000/svg" viewBox="0 0 130 130">
  <style>
    .bg {
      fill: hsl(280, 84%, 31%);
    }
    .c1 {
      fill: #FFFFFF;
    }
    .c2 {
      opacity: 0.5;
    }
    .c3 {
      opacity: 0.3;
    }
    .c4 {
      opacity: 0.25;
    }
  </style>
  <circle class="bg" cx="65" cy="65" r="64"/>
  <g>
    <path class="c1 c2" d="M80.158,54.783c-0.122,0-0.146,0.086-0.248,0.108
              			c0.076-0.431-0.684-0.126-0.998-0.218c-0.299-1.334-0.251-2.979-1.374-3.595c0.383-0.249,1.03-0.265,1.123-0.761
              			C79.622,51.401,80.075,52.93,80.158,54.783z"/>
    <path class="c1 c3" d="M63.063,54.891c-0.204,1.278,0.702,2.131,0.623,2.941
              			c-0.148,0.054-0.282,0.116-0.375,0.217c-0.075,0.008-0.148,0.017-0.123,0.11c-2.395,1.072-4.745,2.178-6.866,3.486
              			c2.262-1.088,4.548-2.277,6.866-3.269c0.766,0.893,1.642,1.69,2.744,2.289c-2.156,3.311-4.406,6.54-6.489,9.913
              			c2.048-2.312,3.591-5.07,5.24-7.734c1.351,0.748,2.926,1.297,5.119,1.307c0.157,2.951-0.321,6.455,0.25,9.042
              			c-4.438-0.047-7.834-1.004-10.609-2.504c-0.375,0.328-0.741,0.66-0.748,1.309c-3.667-1.669-6.273-4.26-8.489-7.19
              			c1.808-0.741,4.011-2.003,5.993-2.943c-1.305-1.873-2.085-4.209-2.249-7.081C56.749,55.027,60.059,54.826,63.063,54.891z"/>
    <path class="c1 c2" d="M83.281,54.783c0.123,0,0.25,0,0.373,0
              			c-0.084,2.471-0.82,4.368-1.872,5.99c-0.087-0.004-0.136-0.015-0.126-0.108C81.811,59.27,83.8,57.32,83.281,54.783z"/>
    <path class="c1" d="M97.008,54.891h6.741c0.249-5.921-1.847-10.733-4.243-14.706c-0.059-0.416,0.907-0.266,0.496-0.655
              			c-3.152-4.691-7.436-8.398-12.852-11.112c-0.781,1.511-1.812,2.941-2.748,4.359c-0.948,1.434-1.727,2.956-2.991,4.138
              			c-3.074-1.495-6.709-2.5-11.359-2.614c-0.29,4.868-0.046,10.782-0.127,15.471c0.933-0.616,2.312,0.22,3.12,0.434
              			c0.527-0.075-0.118-0.494,0.376-0.545c0.865,0.7,1.875,1.269,2.371,2.288c0.631-0.247,1.194-0.555,1.746-0.871
              			c0.383-0.249,1.03-0.265,1.123-0.761c0.961,1.083,1.414,2.612,1.497,4.465c1.262,0.281,1.697,0.184,3.123,0h0.373
              			c-0.084,2.47-0.82,4.367-1.872,5.99c1.782,1.276,4.25,1.956,5.993,3.27c-1.922,2.54-4.074,4.872-7.365,6.21
              			c-1.329-1.673-2.354-3.609-3.62-5.339h-0.124c-1.87,0.838-3.857,1.569-6.741,1.526c0.427-0.369-0.062-0.693,0.127-0.981
              			c-0.132-0.394,0.281-1.263-0.25-1.308c0.157,2.952-0.321,6.454,0.25,9.043c-4.438-0.049-7.835-1.006-10.609-2.504
              			c-0.375,0.328-0.741,0.66-0.748,1.308c-3.667-1.669-6.375-4.442-8.591-7.373c1.808-0.741,3.965-2.038,5.947-2.978
              			c-1.241-1.781-1.868-3.792-2.068-6.454c-0.062-0.175-0.028-0.227-0.033-0.408c-8.373-0.063-17.333-0.009-25.46-0.11
              			c-0.935,1.495-0.403,3.414-0.125,5.012c0.907,5.183,2.657,9.66,4.992,13.292c-3.52,2.043-7.34,3.83-11.107,5.662
              			c3.701,5.609,8.558,10.319,14.104,14.161c1.894,1.31,4.075,2.247,5.866,3.704c-0.789,1.709-2.162,2.909-2.871,4.686
              			c8.329,4.023,17.895,6.969,30.703,7.08c0.08-3.776-0.167-7.844,0.124-11.438c9.902-0.145,17.346-2.438,23.836-5.555
              			c-1.793-3.446-4.258-6.305-6.113-9.697c5.221-2.995,9.668-6.668,12.854-11.439c-2.433-1.252-5.104-2.297-7.237-3.813
              			C95.445,63.187,96.773,59.515,97.008,54.891z"/>
    <path class="c1" d="M69.925,51.079c0.285,0.117,0.05,0.685,0.127,0.979c-0.713-0.004-1.303,0.1-1.622,0.436
              			c-0.33-0.15-0.543-0.398-0.503-0.869c-0.77,0.269-1.31,0.74-1.618,1.414c-0.299-0.068-0.584-0.146-0.625-0.437
              			c-0.426-0.079-0.204,0.403-0.5,0.437c-0.022-0.282,0.352-0.772,0.625-0.437c0.502-0.613,0.993-1.237,1.873-1.524
              			c-0.021,0.273,0.19,0.34,0.373,0.435C68.605,51.308,69.088,51.036,69.925,51.079z"/>
    <path class="c1" d="M72.297,56.09c0-0.112-0.098-0.132-0.123-0.218c-0.303-0.426-1.045-0.471-1.374-0.871h0.249
              			c-0.029-0.158-0.206-0.185-0.249-0.329c1.03-0.989,3.515-1.652,4.866-2.724c-1.966,0.607-3.369,1.707-5.24,2.397
              			c0.827-1.31,1.729-2.559,2.495-3.922c-1.213,0.939-1.802,3.001-2.869,3.704c-0.146-0.563,0.304-1.644-0.25-1.852
              			c-0.081,0.583,0.164,1.453-0.126,1.852c-0.451-0.477-0.537-1.272-1.246-1.525c0.204,0.536,0.555,0.946,0.855,1.4
              			c0.796,0.495,1.026,1.574,0.689,2.412c0.353,2.172-0.917,6.079,0.077,7.52c0.08-2.794-0.167-5.884,0.124-8.499
              			c0.799,1.07,1.797,2.747,2.745,4.031c0.028-0.084,0.003-0.215,0.124-0.216c-0.757-1.228-1.865-2.728-2.37-3.815
              			C71.475,55.426,71.643,55.971,72.297,56.09z"/>
    <path class="c1 c2" d="M69.925,49.772c0.933-0.616,2.312,0.22,3.12,0.434
              			c0.528-0.075-0.117-0.494,0.376-0.545c0.865,0.7,1.875,1.27,2.371,2.288c-0.042,0-0.083,0-0.126,0
              			c-1.966,0.607-3.369,1.707-5.24,2.397c0.827-1.31,1.729-2.559,2.495-3.922c-1.213,0.939-1.802,3.001-2.868,3.704
              			c-0.146-0.562,0.303-1.644-0.25-1.852c-0.082,0.583,0.163,1.452-0.127,1.852c-0.451-0.477-0.537-1.272-1.246-1.525
              			c0.271,0.707,0.795,1.193,1.121,1.853c-1.062-0.346-2.043-1.34-3.117-1.306c0.947,0.516,2.114,1.092,2.927,1.724
              			c-1.375,0.073-3.079,0.128-4.301-0.09c-0.083,0-0.166,0-0.25,0c-0.074-0.757,0.233-1.179,0.375-1.744
              			c0.296-0.034,0.074-0.516,0.5-0.437c0.041,0.29,0.326,0.369,0.625,0.437c0.31-0.674,0.85-1.145,1.619-1.414
              			c-0.041,0.471,0.172,0.719,0.502,0.869c0.319-0.336,0.909-0.44,1.623-0.436c-0.078-0.294,0.157-0.862-0.128-0.979
              			C69.925,50.642,69.925,50.206,69.925,49.772z"/>
    <path class="c1" d="M65.932,60.666c0.166,0.798-0.789,1.561-1.249,2.178c-1.648,2.664-3.191,5.422-5.24,7.734
              			C61.526,67.205,63.775,63.976,65.932,60.666z"/>
    <path class="c1" d="M65.559,56.962c0.766-0.533,1.692-0.922,2.623-1.308c0.33,0.159-0.558,0.162-0.5,0.437
              			c-0.66,0.33-1.318,0.665-1.998,0.979C65.579,57.09,65.564,57.027,65.559,56.962z"/>
    <path class="c1" d="M65.559,56.962c0.008,0.065,0.021,0.128,0.125,0.107c-0.54,0.257-0.992,0.587-1.623,0.763
              			C64.337,57.346,64.9,57.111,65.559,56.962z"/>
    <path class="c1" d="M67.432,58.487c0.039,0,0.082,0,0.123,0c0.049,0.37-0.216,0.465-0.373,0.652
              			c-0.164,0.039-0.197,0.193-0.373,0.219C67.004,59.057,67.102,58.669,67.432,58.487z"/>
    <path class="c1 c4" d="M75.792,51.949c0.631-0.247,1.194-0.554,1.746-0.871
              			c1.123,0.616,1.075,2.26,1.374,3.595c0,0.074,0,0.146,0,0.218c0.234,0.026,0.828,0.283,0.998,0
              			c0.102-0.021,0.126-0.108,0.248-0.108c1.262,0.281,1.697,0.184,3.123,0c0.519,2.537-1.471,4.486-1.625,5.882
              			c-0.01,0.093,0.039,0.104,0.126,0.108c1.782,1.276,4.25,1.956,5.993,3.27c-1.922,2.54-4.074,4.872-7.365,6.21
              			c-1.329-1.674-2.354-3.61-3.62-5.339c-0.04,0-0.084,0-0.124,0c-0.145-0.226,0.057-0.409-0.377-0.544
              			c0.184-0.24,0.672-0.216,0.751-0.544c-1.521,0.673-4.382,2.273-6.987,1.633c-0.133-0.394,0.28-1.263-0.25-1.308
              			c-2.193-0.009-3.77-0.559-5.12-1.307c0.46-0.617,1.415-1.38,1.249-2.178c-1.102-0.599-1.978-1.396-2.744-2.289
              			c0-0.072,0-0.143,0-0.217c-0.025-0.093,0.048-0.102,0.123-0.11c0.106,0.321,0.314-0.142,0.625,0
              			c0.045-0.183-0.098-0.204-0.25-0.217c0.079-0.811-0.827-1.663-0.623-2.941c0.114-0.297,0.389,0.153,0.749,0
              			c0.358-0.011,0.815,0.06,0.996-0.108c0.085,0,0.167,0,0.25,0c0.458,0.116,1.145,0.039,1.749,0.108c0.789,0,1.58,0,2.367,0
              			c-0.139,0.423-0.773,0.41-0.994,0.763c-0.93,0.386-1.856,0.775-2.621,1.308c-0.66,0.149-1.223,0.384-1.499,0.871
              			c0.631-0.176,1.083-0.506,1.624-0.763c0.68-0.313,1.336-0.648,1.996-0.979c0.588-0.072,1.004-0.865,1.621-0.545
              			c-0.562,1.034-1.343,1.877-1.871,2.941c-0.328,0.183-0.427,0.57-0.623,0.871c-0.271,0.38-0.556,0.753-0.75,1.2
              			c0.446-0.003,0.838-0.92,1.123-1.419c0.158-0.187,0.424-0.282,0.373-0.652c0.764-0.788,1.319-1.755,1.875-2.725
              			c0.143-0.014,0.29-0.194,0.373,0c0.836,1.933-0.853,6.573,0.25,8.171c0.08-2.793-0.167-5.883,0.124-8.499
              			c0.8,1.07,1.798,2.747,2.745,4.031c0.737,1.012,1.053,1.973,1.871,2.727c0.057,0.276,0.177,0.499,0.378,0.651
              			c0.272,0.415,0.465,0.9,0.87,1.199c0.175-0.408-0.527-0.987-0.748-1.417c-0.077-0.296-0.247-0.509-0.5-0.653
              			c-0.314-0.791-1.211-1.786-1.747-2.723c-0.757-1.228-1.864-2.729-2.37-3.815c0.801-0.007,0.969,0.538,1.622,0.656
              			c0.759,0.356,1.422,0.795,2.248,1.09c1.988,1.058,3.966,2.129,6.113,3.047c-0.854,1.437-2.244,2.398-3.494,3.487
              			c1.554-0.713,2.575-1.892,3.494-3.158c0.264-0.238,0.354,0.054,0.753,0c-0.117-0.193-0.236-0.379-0.625-0.33
              			c-1.854-1.214-4.071-2.112-6.117-3.159c-0.787-0.437-1.535-0.911-2.495-1.197C71.87,55.445,71.128,55.4,70.799,55
              			c0.083,0,0.165,0,0.249,0c2.312-0.235,5.103-0.054,7.612-0.111c-2.128-0.5-5.316-0.077-7.861-0.218
              			c1.03-0.989,3.516-1.652,4.866-2.724C75.709,51.949,75.75,51.949,75.792,51.949z"/>
    <path class="c1" d="M75.292,62.626c0.22,0.43,0.923,1.008,0.748,1.417c-0.405-0.299-0.597-0.785-0.87-1.199
              			C75.146,62.717,75.195,62.649,75.292,62.626z"/>
    <path class="c1" d="M73.045,59.25c0.536,0.938,1.434,1.933,1.747,2.723c-0.013,0.122,0.183,0.168,0,0.22
              			c-0.817-0.754-1.134-1.715-1.871-2.727C72.949,59.382,72.924,59.251,73.045,59.25z"/>
    <path class="c1" d="M74.545,57.181c-0.826-0.295-1.49-0.733-2.248-1.09c0-0.112-0.098-0.132-0.123-0.218
              			c0.96,0.286,1.708,0.76,2.495,1.197C74.562,57.049,74.552,57.111,74.545,57.181z"/>
    <path class="c1" d="M74.669,57.069c2.046,1.047,4.265,1.944,6.117,3.159c-0.044,0-0.086,0-0.128,0
              			c-2.146-0.918-4.125-1.99-6.113-3.047C74.552,57.111,74.562,57.049,74.669,57.069z"/>
    <path class="c1 c2" d="M80.658,60.228c0.042,0,0.084,0,0.128,0
              			c0.389-0.05,0.508,0.136,0.625,0.33c-0.397,0.054-0.489-0.238-0.753,0c-0.918,1.266-1.94,2.444-3.494,3.158
              			C78.414,62.626,79.805,61.665,80.658,60.228z"/>
    <path class="c1" d="M70.8,54.673c2.546,0.141,5.733-0.283,7.861,0.218c-2.511,0.057-5.302-0.124-7.612,0.111
              			C71.02,54.844,70.843,54.817,70.8,54.673z"/>
    <path class="c1" d="M63.188,58.16c0,0.075,0,0.145,0,0.217c-2.318,0.992-4.674,2.289-6.866,3.269
              			C58.443,60.338,60.793,59.231,63.188,58.16z"/>
    <path class="c1" d="M69.302,55.546c0.291-0.221,0.287,0.043,0.128,0.216c-0.557,0.97-1.113,1.938-1.875,2.725
              			c-0.041,0-0.084,0-0.123,0C67.959,57.423,68.74,56.58,69.302,55.546z"/>
    <path class="c1" d="M66.809,59.357c0.176-0.026,0.209-0.18,0.373-0.219c-0.287,0.499-0.678,1.416-1.125,1.419
              			C66.252,60.11,66.535,59.737,66.809,59.357z"/>
    <path class="c1 c2" d="M70.052,65.458c2.606,0.64,5.47-0.96,6.988-1.633
              			c-0.079,0.329-0.567,0.304-0.751,0.544c0.434,0.135,0.232,0.318,0.377,0.544c-1.87,0.838-3.857,1.569-6.741,1.526
              			C70.352,66.07,69.863,65.747,70.052,65.458z"/>
    <path class="c1" d="M79.91,54.891c-0.17,0.283-0.764,0.026-0.998,0c0-0.072,0-0.144,0-0.218
              			C79.229,54.765,79.986,54.46,79.91,54.891z"/>
    <path class="c1" d="M63.687,57.833c0.152,0.014,0.295,0.034,0.25,0.217c-0.311-0.142-0.519,0.321-0.625,0
              			C63.404,57.948,63.539,57.886,63.687,57.833z"/>
    <g>
      <rect class="bg" x="50.914" y="43.227" transform="matrix(0.4362 0.8998 -0.8998 0.4362 86.388 -9.9864)" width="0.499" height="41.443"/>
    </g>
    <g>
      <rect class="bg" x="55.536" y="50.539" transform="matrix(0.8272 0.5619 -0.5619 0.8272 52.2773 -18.2337)" width="0.501" height="50.691"/>
    </g>
    <g>
      <rect class="bg" x="47.117" y="77.648" transform="matrix(0.0126 0.9999 -0.9999 0.0126 147.1102 6.8185)" width="45.97" height="0.5"/>
    </g>
    <g>
      <rect class="bg" x="61.733" y="69.407" transform="matrix(0.5681 0.823 -0.823 0.5681 91.8246 -35.6432)" width="36.271" height="0.501"/>
    </g>
    <g>
      <rect class="bg" x="68.157" y="60.709" transform="matrix(0.9025 0.4307 -0.4307 0.9025 34.3074 -29.637)" width="28.917" height="0.5"/>
    </g>
    <g>
      <rect class="bg" x="69.812" y="54.757" transform="matrix(1 0.0065 -0.0065 1 0.3574 -0.5417)" width="28.323" height="0.5"/>
    </g>
    <g>
      <rect class="bg" x="85.387" y="29.708" transform="matrix(0.4527 0.8917 -0.8917 0.4527 89.0626 -50.464)" width="0.501" height="35.215"/>
    </g>
    <g>
      <rect class="bg" x="76.138" y="32.844" transform="matrix(0.8465 0.5325 -0.5325 0.8465 35.5811 -33.7948)" width="0.501" height="23.908"/>
    </g>
    <g>
      <rect class="bg" x="64.509" y="53.384" transform="matrix(0.8974 0.4413 -0.4413 0.8974 30.5842 -24.2436)" width="5.813" height="0.5"/>
    </g>
    <g>
      <rect class="bg" x="65.99" y="52.468" transform="matrix(0.5421 0.8403 -0.8403 0.5421 75.714 -33.5106)" width="5.231" height="0.5"/>
    </g>
  </g>
</svg>
