<svg id="icon-bee_swarm_box_plot" xmlns="http://www.w3.org/2000/svg" viewBox="0 0 130 130">
  <style>
    .bg {
      fill: hsl(280, 84%, 31%);
    }
    .c1 {
      fill: #FFFFFF;
      fill-opacity: 0.4;
      stroke: #FFFFFF;
      stroke-width: 0.5;
      stroke-miterlimit: 10;
    }
    .c2 {
      fill: none;
      stroke: #FFFFFF;
      stroke-width: 0.5;
      stroke-miterlimit: 10;
    }
    .c3 {
      fill: #FFFFFF;
    }
  </style>
  <circle class="bg" cx="65" cy="65" r="64"/>
  <g>
    <rect class="c1" x="46" y="43.8" width="27.3" height="42.3"/>
    <rect class="c1" x="73.2" y="43.8" width="27.3" height="42.3"/>
    <line class="c2" x1="100.5" y1="65.1" x2="110" y2="65.1"/>
    <line class="c2" x1="46" y1="65.1" x2="20" y2="65.1"/>
    <line class="c2" x1="20" y1="59.1" x2="20" y2="71.1"/>
    <line class="c2" x1="110" y1="59.1" x2="110" y2="71.1"/>
    <g>
      <circle class="c3" cx="101.9" cy="65.1" r="1.5"/>
      <circle class="c3" cx="99.3" cy="67.1" r="1.5"/>
      <circle class="c3" cx="97.2" cy="64.6" r="1.5"/>
      <circle class="c3" cx="93.9" cy="62" r="1.5"/>
      <circle class="c3" cx="91.8" cy="64.3" r="1.5"/>
      <circle class="c3" cx="88" cy="64.8" r="1.5"/>
      <circle class="c3" cx="84.7" cy="63.6" r="1.5"/>
      <circle class="c3" cx="84.2" cy="60.5" r="1.5"/>
      <circle class="c3" cx="86.4" cy="58.2" r="1.5"/>
      <circle class="c3" cx="84.9" cy="66.9" r="1.5"/>
      <circle class="c3" cx="81.9" cy="65.5" r="1.5"/>
      <circle class="c3" cx="80.9" cy="68.9" r="1.5"/>
      <circle class="c3" cx="81.6" cy="62.4" r="1.5"/>
      <circle class="c3" cx="78.7" cy="65" r="1.5"/>
      <circle class="c3" cx="75.3" cy="65" r="1.5"/>
      <circle class="c3" cx="72" cy="65" r="1.5"/>
      <circle class="c3" cx="68.7" cy="65" r="1.5"/>
      <circle class="c3" cx="65.8" cy="63.6" r="1.5"/>
      <circle class="c3" cx="62.6" cy="62.4" r="1.5"/>
      <circle class="c3" cx="63.6" cy="59.5" r="1.5"/>
      <circle class="c3" cx="65" cy="56.6" r="1.5"/>
      <circle class="c3" cx="63.1" cy="65.6" r="1.5"/>
      <circle class="c3" cx="60" cy="64.5" r="1.5"/>
      <circle class="c3" cx="57" cy="66.4" r="1.5"/>
      <circle class="c3" cx="56.6" cy="63.2" r="1.5"/>
      <circle class="c3" cx="53.8" cy="64.9" r="1.5"/>
      <circle class="c3" cx="50.6" cy="64.9" r="1.5"/>
      <circle class="c3" cx="47.5" cy="66.3" r="1.5"/>
      <circle class="c3" cx="44.8" cy="64" r="1.5"/>
      <circle class="c3" cx="41.6" cy="64.6" r="1.5"/>
      <circle class="c3" cx="39.7" cy="62.1" r="1.5"/>
      <circle class="c3" cx="41.6" cy="59.3" r="1.5"/>
      <circle class="c3" cx="43.8" cy="56.6" r="1.5"/>
      <circle class="c3" cx="44.7" cy="53.4" r="1.5"/>
      <circle class="c3" cx="41.2" cy="68.9" r="1.5"/>
      <circle class="c3" cx="38.7" cy="66.5" r="1.5"/>
      <circle class="c3" cx="36.2" cy="64.6" r="1.5"/>
      <circle class="c3" cx="38" cy="69.8" r="1.5"/>
      <circle class="c3" cx="38" cy="73" r="1.5"/>
      <circle class="c3" cx="36.6" cy="61.1" r="1.5"/>
      <circle class="c3" cx="37.9" cy="57.9" r="1.5"/>
      <circle class="c3" cx="32.9" cy="65" r="1.5"/>
      <circle class="c3" cx="41.3" cy="72.2" r="1.5"/>
      <circle class="c3" cx="44.7" cy="60.9" r="1.5"/>
      <circle class="c3" cx="44.2" cy="67.3" r="1.5"/>
      <circle class="c3" cx="44.2" cy="70.6" r="1.5"/>
      <circle class="c3" cx="44.3" cy="74" r="1.5"/>
      <circle class="c3" cx="48" cy="62.8" r="1.5"/>
      <circle class="c3" cx="48.2" cy="59.6" r="1.5"/>
      <circle class="c3" cx="48.5" cy="56.5" r="1.5"/>
      <circle class="c3" cx="48.3" cy="53.3" r="1.5"/>
      <circle class="c3" cx="47.7" cy="69.6" r="1.5"/>
      <circle class="c3" cx="48.1" cy="72.8" r="1.5"/>
      <circle class="c3" cx="48.3" cy="76.2" r="1.5"/>
      <circle class="c3" cx="51.8" cy="61.9" r="1.5"/>
      <circle class="c3" cx="52.5" cy="58.5" r="1.5"/>
      <circle class="c3" cx="52.9" cy="55.3" r="1.5"/>
      <circle class="c3" cx="52.5" cy="52.2" r="1.5"/>
      <circle class="c3" cx="51.6" cy="67.8" r="1.5"/>
      <circle class="c3" cx="52.7" cy="70.8" r="1.5"/>
      <circle class="c3" cx="52.9" cy="74.4" r="1.5"/>
      <circle class="c3" cx="52.5" cy="77.7" r="1.5"/>
      <circle class="c3" cx="56.2" cy="59.9" r="1.5"/>
      <circle class="c3" cx="57.3" cy="56.6" r="1.5"/>
      <circle class="c3" cx="56.5" cy="69.7" r="1.5"/>
      <circle class="c3" cx="57.4" cy="73" r="1.5"/>
      <circle class="c3" cx="59.7" cy="60.4" r="1.5"/>
      <circle class="c3" cx="60.9" cy="57.3" r="1.5"/>
      <circle class="c3" cx="60.2" cy="67.7" r="1.5"/>
      <circle class="c3" cx="60.3" cy="71.4" r="1.5"/>
      <circle class="c3" cx="63.2" cy="69" r="1.5"/>
      <circle class="c3" cx="64.2" cy="72.3" r="1.5"/>
      <circle class="c3" cx="66" cy="67.2" r="1.5"/>
      <circle class="c3" cx="66.7" cy="60.6" r="1.5"/>
      <circle class="c3" cx="69.7" cy="61.8" r="1.5"/>
      <circle class="c3" cx="70" cy="67.9" r="1.5"/>
      <circle class="c3" cx="73.2" cy="67.9" r="1.5"/>
      <circle class="c3" cx="74.6" cy="70.9" r="1.5"/>
      <circle class="c3" cx="73.1" cy="61.9" r="1.5"/>
      <circle class="c3" cx="74.7" cy="59.1" r="1.5"/>
      <circle class="c3" cx="76.5" cy="61.9" r="1.5"/>
      <circle class="c3" cx="76.7" cy="68" r="1.5"/>
      <circle class="c3" cx="89.8" cy="67.7" r="1.5"/>
      <circle class="c3" cx="93.3" cy="67.1" r="1.5"/>
      <circle class="c3" cx="94.9" cy="70" r="1.5"/>
    </g>
  </g>
</svg>
