<svg id="icon-box_plot_2" xmlns="http://www.w3.org/2000/svg" viewBox="0 0 130 130">
  <style>
    .bg {
      fill: hsl(280, 84%, 31%);
    }
    .c1 {
      opacity: 0.3;
      enable-background: new;
    }
    .c2 {
      fill: #FFFFFF;
    }
  </style>
  <circle class="bg" cx="65" cy="65" r="64"/>
  <g>
    <g class="c1">
      <rect class="c2" x="48" y="81.3" width="11.2" height="14.1"/>
    </g>
    <path class="c2" d="M69.9,82.5c-0.4,0-0.8,0.3-0.8,0.7v4.6h-8.6v-6.6c0-0.4-0.3-0.7-0.8-0.7H39.5c-0.4,0-0.8,0.3-0.8,0.7v6.6h-9.9
      		v-4.6c0-0.4-0.3-0.7-0.8-0.7c-0.4,0-0.8,0.3-0.8,0.7v10.9c0,0.4,0.3,0.7,0.8,0.7c0.4,0,0.8-0.3,0.8-0.7v-4.9h9.9v6.3
      		c0,0.4,0.3,0.7,0.8,0.7h20.2c0.4,0,0.8-0.3,0.8-0.7v-6.3h8.6v4.9c0,0.4,0.3,0.7,0.8,0.7c0.4,0,0.8-0.3,0.8-0.7V83.2
      		C70.7,82.8,70.3,82.5,69.9,82.5z M40.3,81.9h6.9v12.9c0,0,0,0,0,0.1h-6.9V81.9z M48.7,94.8C48.7,94.8,48.8,94.8,48.7,94.8l0-12.9
      		H59v6.6c0,0,0,0,0,0s0,0,0,0v6.3H48.7z"/>
    <g class="c1">
      <rect class="c2" x="68.1" y="57.8" width="5.1" height="14.1"/>
    </g>
    <path class="c2" d="M83.9,59c-0.4,0-0.8,0.3-0.8,0.7v4.6h-8.6v-6.6c0-0.4-0.3-0.7-0.8-0.7H59.7c-0.4,0-0.8,0.3-0.8,0.7v6.6H49
      		v-4.6c0-0.4-0.3-0.7-0.8-0.7c-0.4,0-0.8,0.3-0.8,0.7v10.9c0,0.4,0.3,0.7,0.8,0.7c0.4,0,0.8-0.3,0.8-0.7v-4.9h9.9V72
      		c0,0.4,0.3,0.7,0.8,0.7h14.1c0.4,0,0.8-0.3,0.8-0.7v-6.3h8.6v4.9c0,0.4,0.3,0.7,0.8,0.7c0.4,0,0.8-0.3,0.8-0.7V59.7
      		C84.7,59.4,84.3,59,83.9,59z M60.5,58.4h6.9v12.9c0,0,0,0,0,0.1h-6.9V58.4z M68.9,71.4C68.9,71.3,68.9,71.3,68.9,71.4l0-12.9H73V65
      		c0,0,0,0,0,0s0,0,0,0v6.3H68.9z"/>
    <g>
      <g class="c1">
        <rect class="c2" x="74.9" y="33.6" width="15.9" height="14.1"/>
      </g>
      <path class="c2" d="M101.5,34.8c-0.4,0-0.8,0.3-0.8,0.7v4.6h-8.6v-6.6c0-0.4-0.3-0.7-0.8-0.7H54.6c-0.4,0-0.8,0.3-0.8,0.7v6.6
      			h-9.9v-4.6c0-0.4-0.3-0.7-0.8-0.7c-0.4,0-0.8,0.3-0.8,0.7v10.9c0,0.4,0.3,0.7,0.8,0.7c0.4,0,0.8-0.3,0.8-0.7v-4.9h9.9v6.3
      			c0,0.4,0.3,0.7,0.8,0.7h36.8c0.4,0,0.8-0.3,0.8-0.7v-6.3h8.6v4.9c0,0.4,0.3,0.7,0.8,0.7c0.4,0,0.8-0.3,0.8-0.7V35.5
      			C102.3,35.1,102,34.8,101.5,34.8z M55.4,34.2h18.7v12.9c0,0,0,0,0,0.1H55.4V34.2z M75.7,47.1C75.7,47.1,75.7,47.1,75.7,47.1
      			l0-12.9h15v6.6c0,0,0,0,0,0s0,0,0,0v6.3H75.7z"/>
    </g>
  </g>
</svg>
