<svg id="icon-pareto_chart" xmlns="http://www.w3.org/2000/svg" viewBox="0 0 130 130">
  <style>
    .bg {
      fill: hsl(280, 84%, 31%);
    }
    .c1 {
      fill: #FFFFFF;
    }
  </style>
  <circle class="bg" cx="65" cy="65" r="64"/>
  <g>
    <rect class="c1" x="33.4" y="47.6" width="10.5" height="48.2"/>
    <rect class="c1" x="46.1" y="63.2" width="10.5" height="32.6"/>
    <rect class="c1" x="58.7" y="85" width="10.5" height="10.8"/>
    <rect class="c1" x="71.4" y="88.9" width="10.5" height="6.9"/>
    <circle class="bg" cx="38.7" cy="47.6" r="3.6"/>
    <rect class="c1" x="84.1" y="92.8" width="10.5" height="3"/>
    <path class="c1" d="M89.3,27.8c-1.1,0-2,0.7-2.3,1.7l-8,0.2c-0.3-0.9-1.2-1.6-2.3-1.6c-1.2,0-2.2,0.9-2.4,2.1l-8.5,1.5
    		c-0.4-0.8-1.2-1.3-2.1-1.3c-1.3,0-2.4,1.1-2.4,2.4c0,0,0,0.1,0,0.1l-8.2,3.1c-0.4-0.5-1.1-0.9-1.9-0.9c-1.3,0-2.4,1.1-2.4,2.4
    		c0,0.3,0.1,0.6,0.2,0.8L40,45.6c-0.4-0.2-0.8-0.4-1.3-0.4c-1.3,0-2.4,1.1-2.4,2.4c0,1.3,1.1,2.4,2.4,2.4c1.3,0,2.4-1.1,2.4-2.4
    		c0-0.3-0.1-0.6-0.2-0.8l9.1-7.3c0.4,0.2,0.8,0.4,1.3,0.4c1.3,0,2.4-1.1,2.4-2.4c0,0,0-0.1,0-0.1l8.2-3.1c0.4,0.5,1.1,0.9,1.9,0.9
    		c1.2,0,2.2-0.9,2.4-2.1l8.5-1.5c0.4,0.8,1.2,1.3,2.1,1.3c1.1,0,2-0.7,2.3-1.7l8-0.2c0.3,0.9,1.2,1.6,2.3,1.6c1.3,0,2.4-1.1,2.4-2.4
    		C91.7,28.9,90.7,27.8,89.3,27.8z"/>
  </g>
</svg>
