<svg id="icon-violin_plot" xmlns="http://www.w3.org/2000/svg" viewBox="0 0 130 130">
  <style>
    .bg {
      fill: hsl(280, 84%, 31%);
    }
    .c1 {
      fill: #FFFFFF;
    }
  </style>
  <circle class="bg" cx="65" cy="65" r="64"/>
  <g>
    <path class="c1" opacity="0.5" d="M23.144,53.806c-0.101,4.393,0.017,8.794-0.017,13.184
      		c-0.013,1.825-0.207,3.644-0.215,5.454c-0.004,1.36,0.004,2.758,1.193,3.31c7.395,3.429,14.554,7.825,22.396,9.903
      		c3.771,1.001,7.658,2.631,11.574,2.389c3.747-0.231,7.838-0.348,11.424-1.639c3.526-1.271,7.178-2.337,10.612-3.894
      		c3.477-1.578,6.426-3.056,9.418-5.519c3.031-2.494,6.332-4.481,9.439-6.843c1.428-1.084,2.865-1.156,4.588-1.565
      		c1.7-0.4,3.473-0.319,5.209-0.395c0.627-0.025,1.254-0.126,1.883-0.047l3.358-0.026c0.623-0.656,0.384-4.709,0.46-5.544
      		c-3.053-0.281-6.148-0.042-9.176-0.65c-3.021-0.609-5.568-1.486-8.15-3.194c-2.725-1.802-5.5-3.445-8.141-5.403
      		c-2.646-1.964-5.229-4.033-7.898-5.956c-1.291-0.932-2.586-1.949-4.061-2.503c-1.418-0.534-2.916-0.73-4.389-1.004
      		c-3.182-0.592-6.271-1.769-9.499-2.066c-6.302-0.58-12.967,0.047-18.941,2.36c-6.434,2.493-12.916,4.681-18.894,8.335
      		C24.598,52.937,23.874,53.379,23.144,53.806"/>
    <g>
      <rect class="bg" x="20.185" y="64.318" width="96.715" height="1.5"/>
    </g>
    <g>
      <rect class="c1" x="41.409" y="59.292" width="37.057" height="11.151"/>
      <path class="bg" d="M78.716,70.693H41.159V59.042h37.557V70.693z M41.659,70.193h36.557V59.542H41.659V70.193z"/>
    </g>
    <circle class="bg" cx="55" cy="65" r="3.1"/>
  </g>
</svg>
