<svg id="icon-unit_chart_2" xmlns="http://www.w3.org/2000/svg" viewBox="0 0 130 130">
  <style>
    .bg {
      fill: hsl(280, 84%, 31%);
    }
    .c1 {
      fill: #FFFFFF;
    }
  </style>
  <circle class="bg" cx="65" cy="65" r="64"/>
  <g>
    <rect class="c1" x="31.9" y="95" width="66.2" height="2"/>
    <g>
      <rect class="c1" x="36.9" y="85.6" width="14" height="5.4"/>
      <rect class="c1" x="36.9" y="76.5" width="14" height="5.4"/>
      <rect class="c1" x="36.9" y="67.4" width="14" height="5.4"/>
      <rect class="c1" x="58.1" y="85.6" width="14" height="5.4"/>
      <rect class="c1" x="58.1" y="76.5" width="14" height="5.4"/>
      <rect class="c1" x="58.1" y="67.4" width="14" height="5.4"/>
      <rect class="c1" x="58.1" y="58.3" width="14" height="5.4"/>
      <rect class="c1" x="58.1" y="49.2" width="14" height="5.4"/>
      <rect class="c1" x="79.1" y="85.6" width="14" height="5.4"/>
      <rect class="c1" x="79.1" y="76.5" width="14" height="5.4"/>
      <rect class="c1" x="79.1" y="67.4" width="14" height="5.4"/>
      <rect class="c1" x="79.1" y="58.3" width="14" height="5.4"/>
      <rect class="c1" x="79.1" y="49.2" width="14" height="5.4"/>
      <rect class="c1" x="58.1" y="40.1" width="14" height="5.4"/>
      <rect class="c1" x="58.1" y="31" width="14" height="5.4"/>
    </g>
  </g>
</svg>
