<svg id="icon-heatmap_2" xmlns="http://www.w3.org/2000/svg" viewBox="0 0 130 130">
  <style>
    .bg {
      fill: hsl(280, 84%, 31%);
    }
    .c1 {
      fill: #FFFFFF;
    }
  </style>
  <g>
   <circle class="bg" cx="65" cy="65" r="64"/>
  </g>
  <g>
    <rect class="c1" x="28.5" y="34.3" width="22.9" height="13.9"/>
    <rect class="c1" x="28.5" y="50.1" width="22.9" height="13.9"/>
    <rect class="c1" x="53.4" y="34.3" width="22.9" height="13.9"/>
    <rect class="c1" x="53.4" y="50.1" width="22.9" height="13.9"/>
    <g>
      <polygon class="c1" points="28.5,67.6 28.5,72.2 34.7,66 30.3,66 "/>
      <polygon class="c1" points="28.5,74.1 28.5,78.5 41.3,66 36.6,66 "/>
      <polygon class="c1" points="29.1,79.8 43,66 47.8,66 33.6,79.8 "/>
      <polygon class="c1" points="35.4,79.8 49.6,66 51.4,66 51.4,69.6 41.1,79.8 "/>
      <polygon class="c1" points="42.9,79.8 51.4,71.5 51.4,76.8 48.5,79.8 "/>
    </g>
    <g>
      <polygon class="c1" points="53.4,67.6 53.4,72.2 59.5,66 55.1,66 "/>
      <polygon class="c1" points="53.4,74.1 53.4,78.5 66.1,66 61.5,66 "/>
      <polygon class="c1" points="54,79.8 67.9,66 72.7,66 58.5,79.8 "/>
      <polygon class="c1" points="60.3,79.8 74.4,66 76.2,66 76.2,69.6 65.9,79.8 "/>
      <polygon class="c1" points="67.7,79.8 76.2,71.5 76.2,76.8 73.3,79.8 "/>
    </g>
    <g>
      <polygon class="c1" points="78.6,51.8 78.6,56.4 84.8,50.1 80.4,50.1 "/>
      <polygon class="c1" points="78.6,58.3 78.6,62.6 91.4,50.2 86.7,50.2 "/>
      <polygon class="c1" points="79.2,64 93.1,50.2 97.9,50.2 83.7,64 "/>
      <polygon class="c1" points="85.6,64 99.7,50.1 101.5,50.1 101.5,53.7 91.2,64 "/>
      <polygon class="c1" points="93,64 101.5,55.7 101.5,60.9 98.6,64 "/>
    </g>
    <g>
      <polygon class="c1" points="78.6,35.9 78.6,40.5 84.8,34.3 80.4,34.3 "/>
      <polygon class="c1" points="78.6,42.4 78.6,46.8 91.4,34.3 86.7,34.3 "/>
      <polygon class="c1" points="79.2,48.2 93.1,34.3 97.9,34.3 83.7,48.2 "/>
      <polygon class="c1" points="85.6,48.2 99.7,34.3 101.5,34.3 101.5,37.9 91.2,48.2 "/>
      <polygon class="c1" points="93,48.2 101.5,39.8 101.5,45.1 98.6,48.2 "/>
    </g>
    <g>
      <polygon class="c1" points="78.2,84 78.2,87.1 83.4,81.8 80.4,81.8 "/>
      <polygon class="c1" points="78.2,90.7 78.2,93.7 90.1,81.9 87,81.9 "/>
      <polygon class="c1" points="80.3,95.7 94.2,81.9 97.2,81.9 83.3,95.7 "/>
      <polygon class="c1" points="87.5,95.7 101.1,82.1 101.1,85.2 90.5,95.7 "/>
      <polygon class="c1" points="94.3,95.7 101.1,88.9 101.1,91.9 97.3,95.7 "/>
    </g>
    <g>
      <polygon class="c1" points="53.4,84 53.4,87.1 58.6,81.8 55.6,81.8 "/>
      <polygon class="c1" points="53.4,90.7 53.4,93.7 65.2,81.9 62.2,81.9 "/>
      <polygon class="c1" points="55.5,95.7 69.3,81.9 72.3,81.9 58.5,95.7 "/>
      <polygon class="c1" points="62.7,95.7 76.2,82.1 76.2,85.2 65.7,95.7 "/>
      <polygon class="c1" points="69.4,95.7 76.2,88.9 76.2,91.9 72.5,95.7 "/>
    </g>
    <g>
      <polygon class="c1" points="28.5,84 28.5,87.1 33.7,81.8 30.7,81.8 "/>
      <polygon class="c1" points="28.5,90.7 28.5,93.7 40.3,81.9 37.3,81.9 "/>
      <polygon class="c1" points="30.6,95.7 44.5,81.9 47.5,81.9 33.6,95.7 "/>
      <polygon class="c1" points="37.8,95.7 51.4,82.1 51.4,85.2 40.8,95.7 "/>
      <polygon class="c1" points="44.6,95.7 51.4,88.9 51.4,91.9 47.6,95.7 "/>
    </g>
    <g>
      <polygon class="c1" points="78.2,68.2 78.2,71.2 83.4,66 80.4,66 "/>
      <polygon class="c1" points="78.2,74.8 78.2,77.8 90.1,66 87,66 "/>
      <polygon class="c1" points="80.3,79.9 94.2,66 97.2,66 83.3,79.9 "/>
      <polygon class="c1" points="87.5,79.9 101.1,66.3 101.1,69.3 90.5,79.9 "/>
      <polygon class="c1" points="94.3,79.9 101.1,73.1 101.1,76.1 97.3,79.9 "/>
    </g>
  </g>
</svg>
