<svg id="icon-bean_plot" xmlns="http://www.w3.org/2000/svg" viewBox="0 0 130 130">
  <style>
    .bg {
      fill: hsl(280, 84%, 31%);
    }
    .c1 {
      opacity: 0.4;
      fill: #FFFFFF;
    }
    .c2 {
      fill: #FFFFFF;
    }
  </style>
  <circle class="bg" cx="65" cy="65" r="64"/>
  <g>
    <path class="c1" d="M18.1,64.3c0,0,0.5-0.2,1.2-0.7c0.7-0.4,1.8-1.1,3.1-2c1.3-0.9,2.9-1.8,4.7-3.3c1.8-1.5,3.8-3.2,6-3.8
      		c1.1-0.3,2.3-0.1,3.4,0.1c1.2,0.2,2.4,0,3.7-1c0.6-0.4,1.3-1.1,1.9-2c0.3-0.4,0.6-0.9,1-1.4c0.3-0.6,0.7-1.2,1-1.7
      		c0.7-1.2,1.3-2.5,2-3.7c0.7-1.2,1.4-2.2,2-3c0.3-0.4,0.7-0.7,1-0.9c0.3-0.2,0.7-0.4,1-0.4c0.7-0.2,1.4,0.1,2.1,1.1
      		c1.4,1.8,2.8,6.3,4.3,8.1c0.7,0.9,1.4,1.3,2.2,1.1c0.7-0.1,1.5-0.8,2.2-1.8c1.5-2.2,2.9-5.5,4.4-6.2c1.5-0.8,2.9,0.3,4.4,2.7
      		c0.2,0.3,0.4,0.6,0.5,1l0.5,1l1.1,2.1c0.4,0.6,0.7,1.3,1.1,1.9c0.4,0.6,0.7,1.1,1.1,1.5c0.7,0.9,1.4,1.5,2.2,1.6
      		c0.7,0.1,1.4-0.3,2.1-0.8c0.7-0.5,1.4-0.8,2.1-0.6c0.7,0.2,1.4,0.7,2.1,1.3c1.4,1.3,2.7,3.5,4,4.9c0.7,0.7,1.3,1.3,2,1.6
      		c0.6,0.3,1.3,0.5,1.9,0.2c0.6-0.2,1.3-0.8,1.9-1.3c0.3-0.3,0.6-0.6,0.9-0.9c0.3-0.3,0.6-0.5,0.9-0.7c0.6-0.4,1.2-0.6,1.7-0.5
      		c0.6,0,1.1,0.3,1.7,0.6c0.5,0.3,1.1,0.6,1.6,0.8c0.5,0.1,1,0.1,1.5-0.2c0.3-0.1,0.5-0.5,0.7-1.1c0.2-0.7,0.5-1.4,0.7-2.1l0.2-0.5
      		c0.1-0.2,0.1-0.3,0.2-0.4l0.2-0.4l0.2-0.3c0.2-0.3,0.5-0.4,0.7-0.3c0.4,0.1,0.9,0.5,1.3,1c0.1,0.1,0.2,0.3,0.3,0.4
      		c0.1,0.1,0.2,0.3,0.3,0.4c0.2,0.3,0.4,0.7,0.6,1c0.4,0.7,0.8,1.4,1.1,2c0.2,0.3,0.4,0.6,0.5,0.9c0.2,0.3,0.3,0.6,0.5,0.8
      		c0.2,0.2,0.3,0.4,0.5,0.6c0.2,0.2,0.3,0.3,0.4,0.5c0.3,0.3,0.6,0.6,0.8,0.9c0.1,0.1,0.2,0.3,0.4,0.4c0.1,0.1,0.2,0.2,0.3,0.3
      		c0.2,0.2,0.4,0.4,0.6,0.5c0.3,0.3,0.5,0.6,0.7,0.8c0.2,0.1,0,0.8-0.2,0.9c-0.2,0.2-0.3,0.3-0.6,0.6c-0.2,0.2-0.3,0.3-0.5,0.5
      		c-0.1,0.1-0.2,0.2-0.3,0.3c-0.1,0.1-0.2,0.3-0.3,0.4c-0.2,0.3-0.5,0.6-0.8,0.9c-0.1,0.2-0.3,0.3-0.4,0.5c-0.2,0.2-0.3,0.4-0.5,0.6
      		c-0.2,0.2-0.3,0.5-0.5,0.8c-0.2,0.3-0.3,0.5-0.5,0.9c-0.4,0.6-0.7,1.3-1.1,2c-0.2,0.3-0.4,0.6-0.6,1c-0.1,0.1-0.2,0.3-0.3,0.4
      		c-0.1,0.1-0.2,0.3-0.3,0.4c-0.4,0.5-0.8,0.8-1.3,1c-0.2,0.1-0.4,0.1-0.7-0.3l-0.2-0.3l-0.2-0.4c-0.1-0.1-0.1-0.3-0.2-0.4l-0.2-0.5
      		c-0.2-0.7-0.5-1.4-0.7-2.1c-0.2-0.6-0.5-1-0.7-1.1c-0.5-0.2-1-0.3-1.5-0.2c-0.5,0.1-1.1,0.5-1.6,0.8c-0.5,0.3-1.1,0.6-1.7,0.6
      		c-0.6,0-1.2-0.2-1.7-0.5c-0.3-0.2-0.6-0.4-0.9-0.7c-0.3-0.3-0.6-0.6-0.9-0.9c-0.6-0.6-1.2-1.1-1.9-1.3c-0.6-0.2-1.3-0.1-1.9,0.2
      		c-0.6,0.3-1.3,0.9-2,1.6c-1.3,1.5-2.7,3.6-4,4.9c-0.7,0.6-1.4,1.2-2.1,1.3c-0.7,0.2-1.4-0.1-2.1-0.6c-0.7-0.4-1.4-0.9-2.1-0.8
      		c-0.7,0.1-1.4,0.7-2.2,1.6c-0.4,0.4-0.7,0.9-1.1,1.5c-0.4,0.6-0.7,1.3-1.1,1.9L70.8,82l-0.5,1c-0.2,0.3-0.4,0.7-0.5,1
      		c-1.5,2.4-2.9,3.5-4.4,2.7c-1.5-0.7-2.9-4.1-4.4-6.2c-0.7-1-1.5-1.7-2.2-1.8c-0.7-0.2-1.5,0.2-2.2,1.1c-1.4,1.8-2.9,6.3-4.3,8.1
      		c-0.7,1-1.4,1.3-2.1,1.1c-0.3-0.1-0.7-0.2-1-0.4c-0.3-0.2-0.7-0.5-1-0.9c-0.7-0.7-1.4-1.7-2-3c-0.7-1.2-1.3-2.5-2-3.7
      		c-0.3-0.6-0.7-1.2-1-1.7c-0.3-0.5-0.7-1-1-1.4c-0.6-0.9-1.3-1.6-1.9-2c-1.3-1-2.5-1.2-3.7-1c-1.2,0.2-2.3,0.4-3.4,0.1
      		c-2.2-0.6-4.2-2.3-6-3.8c-1.8-1.5-3.3-2.4-4.6-3.3c-1.3-0.9-2.5-1.6-3.1-2c-0.7-0.4-1.2-0.7-1.2-0.7V64.3z"/>
    <g>
      <g>
        <path class="c2" d="M58.8,90.5c-0.5,0-0.8-0.5-0.8-1.1V40.6c0-0.6,0.4-1.1,0.8-1.1c0.5,0,0.8,0.5,0.8,1.1v48.8
        				C59.6,90,59.2,90.5,58.8,90.5z"/>
      </g>
      <g>
        <path class="c2" d="M62,67.3c-0.2,0-0.3-0.1-0.3-0.3v-4.7c0-0.2,0.2-0.3,0.3-0.3s0.3,0.1,0.3,0.3V67
        				C62.3,67.2,62.2,67.3,62,67.3z"/>
      </g>
      <g>
        <path class="c2" d="M50.8,67.3c-0.2,0-0.3-0.1-0.3-0.3v-4.7c0-0.2,0.2-0.3,0.3-0.3c0.2,0,0.3,0.1,0.3,0.3V67
        				C51.1,67.2,51,67.3,50.8,67.3z"/>
      </g>
      <g>
        <path class="c2" d="M48.6,67.3c-0.2,0-0.3-0.1-0.3-0.3v-4.7c0-0.2,0.2-0.3,0.3-0.3s0.3,0.1,0.3,0.3V67
        				C49,67.2,48.8,67.3,48.6,67.3z"/>
      </g>
      <g>
        <path class="c2" d="M47.8,67.3c-0.2,0-0.3-0.1-0.3-0.3v-4.7c0-0.2,0.2-0.3,0.3-0.3c0.2,0,0.3,0.1,0.3,0.3V67
        				C48.1,67.2,48,67.3,47.8,67.3z"/>
      </g>
      <g>
        <path class="c2" d="M44,67.3c-0.2,0-0.3-0.1-0.3-0.3v-4.7c0-0.2,0.2-0.3,0.3-0.3s0.3,0.1,0.3,0.3V67
        				C44.4,67.2,44.2,67.3,44,67.3z"/>
      </g>
      <g>
        <path class="c2" d="M40.6,67.3c-0.2,0-0.3-0.1-0.3-0.3v-4.7c0-0.2,0.2-0.3,0.3-0.3c0.2,0,0.3,0.1,0.3,0.3V67
        				C41,67.2,40.8,67.3,40.6,67.3z"/>
      </g>
      <g>
        <path class="c2" d="M39.3,67.3c-0.2,0-0.3-0.1-0.3-0.3v-4.7c0-0.2,0.2-0.3,0.3-0.3c0.2,0,0.3,0.1,0.3,0.3V67
        				C39.7,67.2,39.5,67.3,39.3,67.3z"/>
      </g>
      <g>
        <path class="c2" d="M38.2,67.3c-0.2,0-0.3-0.1-0.3-0.3v-4.7c0-0.2,0.2-0.3,0.3-0.3s0.3,0.1,0.3,0.3V67
        				C38.6,67.2,38.4,67.3,38.2,67.3z"/>
      </g>
      <g>
        <path class="c2" d="M37.5,67.3c-0.2,0-0.3-0.1-0.3-0.3v-4.7c0-0.2,0.2-0.3,0.3-0.3c0.2,0,0.3,0.1,0.3,0.3V67
        				C37.8,67.2,37.6,67.3,37.5,67.3z"/>
      </g>
      <g>
        <path class="c2" d="M33.2,67.3c-0.2,0-0.3-0.1-0.3-0.3v-4.7c0-0.2,0.2-0.3,0.3-0.3c0.2,0,0.3,0.1,0.3,0.3V67
        				C33.6,67.2,33.4,67.3,33.2,67.3z"/>
      </g>
      <g>
        <path class="c2" d="M31.9,67.3c-0.2,0-0.3-0.1-0.3-0.3v-4.7c0-0.2,0.2-0.3,0.3-0.3c0.2,0,0.3,0.1,0.3,0.3V67
        				C32.2,67.2,32.1,67.3,31.9,67.3z"/>
      </g>
      <g>
        <path class="c2" d="M30.4,67.3c-0.2,0-0.3-0.1-0.3-0.3v-4.7c0-0.2,0.2-0.3,0.3-0.3c0.2,0,0.3,0.1,0.3,0.3V67
        				C30.8,67.2,30.6,67.3,30.4,67.3z"/>
      </g>
      <g>
        <path class="c2" d="M28,67.3c-0.2,0-0.3-0.1-0.3-0.3v-4.7c0-0.2,0.2-0.3,0.3-0.3s0.3,0.1,0.3,0.3V67
        				C28.3,67.2,28.1,67.3,28,67.3z"/>
      </g>
      <g>
        <path class="c2" d="M26.8,67.3c-0.2,0-0.3-0.1-0.3-0.3v-4.7c0-0.2,0.2-0.3,0.3-0.3s0.3,0.1,0.3,0.3V67
        				C27.2,67.2,27,67.3,26.8,67.3z"/>
      </g>
      <g>
        <path class="c2" d="M23.2,67.3c-0.2,0-0.3-0.1-0.3-0.3v-4.7c0-0.2,0.2-0.3,0.3-0.3c0.2,0,0.3,0.1,0.3,0.3V67
        				C23.5,67.2,23.4,67.3,23.2,67.3z"/>
      </g>
      <g>
        <path class="c2" d="M21.2,67.3c-0.2,0-0.3-0.1-0.3-0.3v-4.7c0-0.2,0.2-0.3,0.3-0.3c0.2,0,0.3,0.1,0.3,0.3V67
        				C21.6,67.2,21.4,67.3,21.2,67.3z"/>
      </g>
      <g>
        <path class="c2" d="M23.7,67.3c-0.2,0-0.3-0.1-0.3-0.3v-4.7c0-0.2,0.2-0.3,0.3-0.3c0.2,0,0.3,0.1,0.3,0.3V67
        				C24.1,67.2,23.9,67.3,23.7,67.3z"/>
      </g>
      <g>
        <path class="c2" d="M64.3,67.3c-0.2,0-0.3-0.1-0.3-0.3v-4.7c0-0.2,0.2-0.3,0.3-0.3c0.2,0,0.3,0.1,0.3,0.3V67
        				C64.6,67.2,64.5,67.3,64.3,67.3z"/>
      </g>
      <g>
        <path class="c2" d="M65.5,67.3c-0.2,0-0.3-0.1-0.3-0.3v-4.7c0-0.2,0.2-0.3,0.3-0.3s0.3,0.1,0.3,0.3V67
        				C65.9,67.2,65.7,67.3,65.5,67.3z"/>
      </g>
      <g>
        <path class="c2" d="M70.1,67.3c-0.2,0-0.3-0.1-0.3-0.3v-4.7c0-0.2,0.2-0.3,0.3-0.3c0.2,0,0.3,0.1,0.3,0.3V67
        				C70.5,67.2,70.3,67.3,70.1,67.3z"/>
      </g>
      <g>
        <path class="c2" d="M71.7,67.3c-0.2,0-0.3-0.1-0.3-0.3v-4.7c0-0.2,0.2-0.3,0.3-0.3c0.2,0,0.3,0.1,0.3,0.3V67
        				C72.1,67.2,71.9,67.3,71.7,67.3z"/>
      </g>
      <g>
        <path class="c2" d="M75.5,67.3c-0.2,0-0.3-0.1-0.3-0.3v-4.7c0-0.2,0.2-0.3,0.3-0.3s0.3,0.1,0.3,0.3V67
        				C75.9,67.2,75.7,67.3,75.5,67.3z"/>
      </g>
      <g>
        <path class="c2" d="M82.1,67.3c-0.2,0-0.3-0.1-0.3-0.3v-4.7c0-0.2,0.2-0.3,0.3-0.3c0.2,0,0.3,0.1,0.3,0.3V67
        				C82.5,67.2,82.3,67.3,82.1,67.3z"/>
      </g>
      <g>
        <path class="c2" d="M83.7,67.3c-0.2,0-0.3-0.1-0.3-0.3v-4.7c0-0.2,0.2-0.3,0.3-0.3c0.2,0,0.3,0.1,0.3,0.3V67
        				C84.1,67.2,83.9,67.3,83.7,67.3z"/>
      </g>
      <g>
        <path class="c2" d="M84.8,67.3c-0.2,0-0.3-0.1-0.3-0.3v-4.7c0-0.2,0.2-0.3,0.3-0.3s0.3,0.1,0.3,0.3V67
        				C85.1,67.2,85,67.3,84.8,67.3z"/>
      </g>
      <g>
        <path class="c2" d="M91.3,67.3c-0.2,0-0.3-0.1-0.3-0.3v-4.7c0-0.2,0.2-0.3,0.3-0.3s0.3,0.1,0.3,0.3V67
        				C91.7,67.2,91.5,67.3,91.3,67.3z"/>
      </g>
      <g>
        <path class="c2" d="M94.6,67.3c-0.2,0-0.3-0.1-0.3-0.3v-4.7c0-0.2,0.2-0.3,0.3-0.3s0.3,0.1,0.3,0.3V67
        				C95,67.2,94.8,67.3,94.6,67.3z"/>
      </g>
      <g>
        <path class="c2" d="M97.6,67.3c-0.2,0-0.3-0.1-0.3-0.3v-4.7c0-0.2,0.2-0.3,0.3-0.3s0.3,0.1,0.3,0.3V67
        				C97.9,67.2,97.8,67.3,97.6,67.3z"/>
      </g>
      <g>
        <path class="c2" d="M99.2,67.3c-0.2,0-0.3-0.1-0.3-0.3v-4.7c0-0.2,0.2-0.3,0.3-0.3s0.3,0.1,0.3,0.3V67
        				C99.6,67.2,99.4,67.3,99.2,67.3z"/>
      </g>
      <g>
        <path class="c2" d="M104,67.3c-0.2,0-0.3-0.1-0.3-0.3v-4.7c0-0.2,0.2-0.3,0.3-0.3c0.2,0,0.3,0.1,0.3,0.3V67
        				C104.3,67.2,104.1,67.3,104,67.3z"/>
      </g>
      <g>
        <path class="c2" d="M106,67.3c-0.2,0-0.3-0.1-0.3-0.3v-4.7c0-0.2,0.2-0.3,0.3-0.3c0.2,0,0.3,0.1,0.3,0.3V67
        				C106.3,67.2,106.2,67.3,106,67.3z"/>
      </g>
      <g>
        <path class="c2" d="M107.2,67.3c-0.2,0-0.3-0.1-0.3-0.3v-4.7c0-0.2,0.2-0.3,0.3-0.3c0.2,0,0.3,0.1,0.3,0.3V67
        				C107.5,67.2,107.3,67.3,107.2,67.3z"/>
      </g>
      <g>
        <path class="c2" d="M85.7,67.3c-0.2,0-0.3-0.1-0.3-0.3v-4.7c0-0.2,0.2-0.3,0.3-0.3s0.3,0.1,0.3,0.3V67
        				C86,67.2,85.9,67.3,85.7,67.3z"/>
      </g>
    </g>
  </g>
</svg>
