<svg id="icon-control_chart" xmlns="http://www.w3.org/2000/svg" viewBox="0 0 130 130">
  <style>
    .bg {
      fill: hsl(280, 84%, 31%);
    }
    .c1 {
      fill: #FFFFFF;
    }
    .c2 {
      opacity: 0.5;
    }
  </style>
  <circle class="bg" cx="65" cy="65" r="64"/>
  <g>
    <g>
      <g>
        <path class="c1" d="M97.5,98.5h-65c-0.6,0-1-0.4-1-1v-65c0-0.6,0.4-1,1-1s1,0.4,1,1v64h64c0.6,0,1,0.4,1,1S98.1,98.5,97.5,98.5z
        				"/>
      </g>
    </g>
    <g>
      <g>
        <path class="c1" d="M38.6,85.5c-0.2,0-0.4,0-0.6-0.1c-0.7-0.3-1-1.2-0.6-1.9l9.8-19.4c0.2-0.5,0.7-0.8,1.2-0.8
        				c0.5,0,1,0.3,1.2,0.7l7.9,13.7l7.9-14.1c0.2-0.4,0.7-0.7,1.1-0.7c0.5,0,0.9,0.2,1.2,0.5l5.3,6.9l10.9-25c0.2-0.5,0.7-0.8,1.2-0.8
        				c0.5,0,1,0.3,1.3,0.7L95.8,63c0.4,0.7,0.1,1.5-0.6,1.9c-0.7,0.4-1.5,0.1-1.9-0.6l-8.1-15.2L74.5,73.6c-0.2,0.5-0.6,0.8-1.1,0.8
        				c-0.5,0.1-1-0.1-1.3-0.5l-5.4-7.1l-8.1,14.4c-0.2,0.4-0.7,0.7-1.2,0.7c0,0,0,0,0,0c-0.5,0-1-0.3-1.2-0.7l-7.8-13.6l-8.6,17.1
        				C39.6,85.3,39.1,85.5,38.6,85.5z"/>
      </g>
    </g>
    <g class="c2">
      <g>
        <path class="c1" d="M97.1,68.4H37.2c-0.6,0-1-0.4-1-1s0.4-1,1-1h59.9c0.6,0,1,0.4,1,1S97.7,68.4,97.1,68.4z"/>
      </g>
    </g>
    <g class="c2">
      <path class="c1" d="M96.2,37.8h-4c-0.6,0-1-0.4-1-1s0.4-1,1-1h4c0.6,0,1,0.4,1,1S96.7,37.8,96.2,37.8z M85.2,37.8h-4
      			c-0.6,0-1-0.4-1-1s0.4-1,1-1h4c0.6,0,1,0.4,1,1S85.7,37.8,85.2,37.8z M74.2,37.8h-4c-0.6,0-1-0.4-1-1s0.4-1,1-1h4c0.6,0,1,0.4,1,1
      			S74.7,37.8,74.2,37.8z M63.2,37.8h-4c-0.6,0-1-0.4-1-1s0.4-1,1-1h4c0.6,0,1,0.4,1,1S63.7,37.8,63.2,37.8z M52.2,37.8h-4
      			c-0.6,0-1-0.4-1-1s0.4-1,1-1h4c0.6,0,1,0.4,1,1S52.7,37.8,52.2,37.8z M41.2,37.8h-4c-0.6,0-1-0.4-1-1s0.4-1,1-1h4c0.6,0,1,0.4,1,1
      			S41.7,37.8,41.2,37.8z"/>
    </g>
    <g class="c2">
      <path class="c1" d="M96.2,91.6h-4c-0.6,0-1-0.4-1-1s0.4-1,1-1h4c0.6,0,1,0.4,1,1S96.7,91.6,96.2,91.6z M85.2,91.6h-4
      			c-0.6,0-1-0.4-1-1s0.4-1,1-1h4c0.6,0,1,0.4,1,1S85.7,91.6,85.2,91.6z M74.2,91.6h-4c-0.6,0-1-0.4-1-1s0.4-1,1-1h4c0.6,0,1,0.4,1,1
      			S74.7,91.6,74.2,91.6z M63.2,91.6h-4c-0.6,0-1-0.4-1-1s0.4-1,1-1h4c0.6,0,1,0.4,1,1S63.7,91.6,63.2,91.6z M52.2,91.6h-4
      			c-0.6,0-1-0.4-1-1s0.4-1,1-1h4c0.6,0,1,0.4,1,1S52.7,91.6,52.2,91.6z M41.2,91.6h-4c-0.6,0-1-0.4-1-1s0.4-1,1-1h4c0.6,0,1,0.4,1,1
      			S41.7,91.6,41.2,91.6z"/>
    </g>
  </g>
</svg>
