<svg id="icon-notched_box_plot" xmlns="http://www.w3.org/2000/svg" viewBox="0 0 130 130">
  <style>
    .bg {
      fill: hsl(280, 84%, 31%);
    }
    .c1 {
      opacity: 0.4;
      fill: #FFFFFF;
    }
    .c2 {
      fill: #FFFFFF;
    }
  </style>
  <circle class="bg" cx="65" cy="65" r="64"/>
  <g>
    <polygon class="c1" points="37,56.4 37,35.9 49.9,35.9 52,38.2 54.2,40.5 54.2,51.4 52.1,53.9 50,56.4"/>
    <polygon class="c1" points="54.6,94.2 54.6,73.2 69.9,73.2 72.4,76 74.6,78.4 74.6,88.8 72.6,91.3 69.9,94.2"/>
    <g>
      <path class="c2" d="M35.8,47.2v10.5h14.6l4-4.8l4.1,4.8h6V47.2h19.4v3.5h2v-9h-2v3.5H64.5V34.7h-6l-4,4.8l-4.2-4.8H35.8v10.5h-7
        			v-3.5h-2v9h2v-3.5H35.8z M59.4,36.7h3.1v19h-3.1l-4-4.6v-9.5L59.4,36.7z M37.8,36.7h11.6l4,4.6v9.5l-4,4.8H37.8V36.7z"/>
      <path class="c2" d="M101.5,79.2v3.5h-5.3V72.4H78.7l-3.9,4.8l-4.2-4.8H53.4v10.5H35.9v-3.5h-2v9h2v-3.5h17.5v10.5h17.2l3.9-4.8
      			l4.2,4.8h17.5V84.8h5.3v3.5h2v-9H101.5z M69.6,93.2H55.4v-19h14.3l4,4.6v9.5L69.6,93.2z M94.2,93.3H79.6l-4-4.6v-9.5l4-4.8h14.6
      			V93.3z"/>
    </g>
  </g>
</svg>
