<svg id="icon-choropleth_map_2" xmlns="http://www.w3.org/2000/svg" viewBox="0 0 130 130">
  <style>
    .bg {
      fill: hsl(280, 84%, 31%);
    }
    .c1 {
      fill: #FFFFFF;
    }
    .c2 {
      clip-path: url('#SVGID_2_');
    }
    .c3 {
      clip-path: url('#SVGID_4_');
    }
    .c4 {
      clip-path: url('#SVGID_6_');
    }
    .c5 {
      clip-path: url('#SVGID_8_');
    }
    .c6 {
      clip-path: url('#SVGID_10_');
    }
  </style>
  <circle class="bg" cx="65" cy="65" r="64"/>
  <g>
    <polygon class="c1" points="69,50.5 69.1,50.3 68.4,49.5 68.8,48.8 68.4,48.5 68.7,47.4 68.9,47.1 67.8,46.8 66.5,45.2 66.1,45
            		65.8,45.1 63.7,44.9 63,45.6 62.4,45 62.2,45.2 61.2,44.9 60.1,44.2 59.4,44.6 58.9,44.2 58,43.9 57.5,44.2 55.9,44.6 55.4,44.2
            		55.1,45.3 54.3,45.7 54.3,45.8 54.6,47.1 55.3,49.7 56.7,51.8 57.9,52.8 58.3,54.1 59.9,53.5 61.4,53.4 62.9,55.5 62.7,55.8
            		63,55.8 63.2,55.3 64.1,55 64.5,55.4 65.1,55.1 65.4,54.8 65.6,54.5 65.6,53.4 67.5,52.4 68.3,52.3 68.1,51.5 69.1,50.8 	"/>
    <polygon class="c1" points="105.8,42.3 105.5,42 104.6,41.8 102.4,42 101.4,43.3 100.5,43.3 99.7,43.5 97.8,42.9 97.7,43.6
            		97.2,43.6 97.1,43.7 97.3,43.8 97.5,44.3 98.1,43.9 98.6,44.1 99.4,43.9 99.8,44.6 99.7,44.8 100.1,45 100.1,45.7 99.9,46
            		99.9,47.2 98.8,48.7 99,50 99.6,50 99.9,51.1 99.4,51.9 98.8,54.1 98.3,55.1 98,56.8 98.6,57.3 99.3,58.4 99.4,58.7 100.3,59.2
            		100.4,60.2 100.5,60.4 101.6,60.3 102.2,60 102.2,59.6 102.9,58.8 102.4,58.1 102.1,57.1 102.5,54.8 102.3,52.3 102.9,50.3
            		103.2,48 103.3,46.4 104.8,44.5 	"/>
    <g>
      <defs>
        <polygon id="SVGID_1_" points="98.4,45.1 98.3,45.1 97.1,45.9 96.5,44.6 95.7,44.3 95.7,43.4 96.1,42.8 96.4,42.8 96.6,42.6
                				96.8,42.6 96.9,41.6 96.8,41.6 96.2,40.9 95.5,40.8 95,41.4 93.7,40.8 91.5,38.1 91.2,38.1 90.1,37.6 89.4,38.3 88.6,38.5
                				86.8,37.7 85.9,37.7 85.6,38 84.2,38.5 83.4,37.2 82.8,37 81.7,37.3 81.8,38.4 81.6,39.3 81.9,39.7 81.5,40.3 81.6,41 81.1,41.4
                				81.2,41.8 81,42.2 81.7,43.2 82,44 81.6,44.8 81.6,45.4 81.1,45.9 81.1,46.6 81.8,47.2 82,48.1 82.4,48.2 82.9,49 84.2,49.7
                				85.6,50.3 86.3,51.1 85.8,51.4 86.4,51.5 87.3,52.6 88,52.8 88.3,53.7 87.7,54.1 87.7,54.4 87.8,54.4 88.4,54.9 89.3,55.2
                				89.5,55.9 89.6,56 89.9,56 90.3,54.9 90.8,54.5 92.1,55.3 93.1,55.3 93.4,55.1 94.1,55.6 94.2,55.1 94.9,54.8 96.5,56.2
                				97.1,56.5 97.4,54.8 97.9,53.7 98.5,51.5 98.8,51 98.1,51 97.8,48.5 98.9,46.9 98.9,45.6 99,45.5 98.4,45.2 			"/>
      </defs>
      <clipPath id="SVGID_2_">
        <use href="#SVGID_1_" style="overflow:visible;"/>
      </clipPath>
      <g class="c2">
        <g>
          <rect class="c1" x="57.7" y="32.3" transform="matrix(0.7071 -0.7071 0.7071 0.7071 -0.1803 64.9535)" width="41.3" height="0.7"/>
        </g>
        <g>
          <rect class="c1" x="59.2" y="33.8" transform="matrix(0.7071 -0.7071 0.7071 0.7071 -0.7998 66.4497)" width="41.3" height="0.7"/>
        </g>
        <g>
          <rect class="c1" x="60.7" y="35.3" transform="matrix(0.7071 -0.7071 0.7071 0.7071 -1.4196 67.9454)" width="41.3" height="0.7"/>
        </g>
        <g>
          <rect class="c1" x="62.2" y="36.8" transform="matrix(0.7071 -0.7071 0.7071 0.7071 -2.0389 69.4414)" width="41.3" height="0.7"/>
        </g>
        <g>
          <rect class="c1" x="63.7" y="38.3" transform="matrix(0.7071 -0.7071 0.7071 0.7071 -2.6589 70.9372)" width="41.3" height="0.7"/>
        </g>
        <g>
          <rect class="c1" x="65.2" y="39.8" transform="matrix(0.7071 -0.7071 0.7071 0.7071 -3.2782 72.433)" width="41.3" height="0.7"/>
        </g>
        <g>
          <rect class="c1" x="66.7" y="41.3" transform="matrix(0.7071 -0.7071 0.7071 0.7071 -3.8981 73.9291)" width="41.3" height="0.7"/>
        </g>
        <g>
          <rect class="c1" x="68.2" y="42.8" transform="matrix(0.7071 -0.7071 0.7071 0.7071 -4.5175 75.4249)" width="41.3" height="0.7"/>
        </g>
        <g>
          <rect class="c1" x="69.7" y="44.3" transform="matrix(0.7071 -0.7071 0.7071 0.7071 -5.1374 76.9209)" width="41.3" height="0.7"/>
        </g>
        <g>
          <rect class="c1" x="71.2" y="45.8" transform="matrix(0.7071 -0.7071 0.7071 0.7071 -5.7569 78.4165)" width="41.3" height="0.7"/>
        </g>
        <g>
          <rect class="c1" x="72.6" y="47.3" transform="matrix(0.7071 -0.7071 0.7071 0.7071 -6.3764 79.9127)" width="41.3" height="0.7"/>
        </g>
        <g>
          <rect class="c1" x="74.1" y="48.8" transform="matrix(0.7071 -0.7071 0.7071 0.7071 -6.9961 81.4083)" width="41.3" height="0.7"/>
        </g>
        <g>
          <rect class="c1" x="75.6" y="50.3" transform="matrix(0.7071 -0.7071 0.7071 0.7071 -7.6157 82.9045)" width="41.3" height="0.7"/>
        </g>
        <g>
          <rect class="c1" x="77.1" y="51.8" transform="matrix(0.7071 -0.7071 0.7071 0.7071 -8.2354 84.4002)" width="41.3" height="0.7"/>
        </g>
        <g>
          <rect class="c1" x="78.6" y="53.3" transform="matrix(0.7071 -0.7071 0.7071 0.7071 -8.8547 85.8963)" width="41.3" height="0.7"/>
        </g>
        <g>
          <rect class="c1" x="80.1" y="54.8" transform="matrix(0.7071 -0.7071 0.7071 0.7071 -9.4747 87.392)" width="41.3" height="0.7"/>
        </g>
        <g>
          <rect class="c1" x="81.6" y="56.3" transform="matrix(0.7071 -0.7071 0.7071 0.7071 -10.094 88.8879)" width="41.3" height="0.7"/>
        </g>
        <g>
          <rect class="c1" x="83.1" y="57.8" transform="matrix(0.7071 -0.7071 0.7071 0.7071 -10.7139 90.3839)" width="41.3" height="0.7"/>
        </g>
        <g>
          <rect class="c1" x="84.6" y="59.2" transform="matrix(0.7071 -0.7071 0.7071 0.7071 -11.3334 91.8795)" width="41.3" height="0.7"/>
        </g>
      </g>
    </g>
    <g>
      <defs>
        <polygon id="SVGID_3_" points="45,63.1 46.7,61.7 46.7,61.2 47.4,60.9 47.9,60.1 48,59.5 48.5,59.1 48.1,58.6 48.2,57.3
                				48.3,56.9 48.1,56.5 47.6,56.5 47.1,55.8 46.6,56 44.8,55 44.6,53.2 44.4,53.3 43.6,53.5 42.7,54.3 41,54.6 40.9,53.8 40.3,53.8
                				40,52.5 39.7,53 37.9,53.2 35.9,53.7 35.1,53.4 35,53.3 34.2,53.4 34.3,54.7 33.9,55.6 34.3,56.8 34.7,58.6 34.3,59.6 33.9,59.5
                				33.1,59.8 32.4,62.1 30.4,61.2 27.3,62.9 26.1,63.2 25.7,63.5 25.4,64.7 22.6,65.9 22.4,66.3 22.2,66.4 22.2,66.4 22.4,67.2
                				22.3,67.3 22.4,67.3 23,67 23.7,67.4 24.4,66.8 25.6,66.5 26.2,68.1 24.9,68.1 24.9,68.1 25,68.9 26.2,69.5 27.1,71.2 26,71.1
                				25.7,71.9 25.1,72.8 27.5,75.4 27.9,76.6 29.1,77.4 29.7,77.7 31.1,78.5 31.5,78.1 31.9,78.6 32.7,78.5 33.6,77.8 35.2,78.1
                				35.2,78.4 36.2,78.5 36.3,78.5 36.7,77.3 36.5,75.8 36.8,75.6 36.2,74.3 35.5,73.6 36.1,73 33,69.7 35.8,70.3 37.3,70.1
                				37.7,69.5 38.6,69.1 41.1,69.1 41.4,68.9 41.8,68.1 42.2,68 42.7,66.5 43,65.8 43.3,64.3 43.3,63 44.2,62.8 			"/>
      </defs>
      <clipPath id="SVGID_4_">
        <use href="#SVGID_3_" style="overflow:visible;"/>
      </clipPath>
      <g class="c3">
        <g>
          <rect class="c1" x="-1.4" y="51.7" transform="matrix(0.7071 -0.7071 0.7071 0.7071 -31.2286 28.8438)" width="41.3" height="0.7"/>
        </g>
        <g>
          <rect class="c1" x="0.1" y="53.2" transform="matrix(0.7071 -0.7071 0.7071 0.7071 -31.8481 30.34)" width="41.3" height="0.7"/>
        </g>
        <g>
          <rect class="c1" x="1.6" y="54.7" transform="matrix(0.7071 -0.7071 0.7071 0.7071 -32.4679 31.8356)" width="41.3" height="0.7"/>
        </g>
        <g>
          <rect class="c1" x="3.1" y="56.2" transform="matrix(0.7071 -0.7071 0.7071 0.7071 -33.0871 33.3317)" width="41.3" height="0.7"/>
        </g>
        <g>
          <rect class="c1" x="4.6" y="57.7" transform="matrix(0.7071 -0.7071 0.7071 0.7071 -33.7071 34.8275)" width="41.3" height="0.7"/>
        </g>
        <g>
          <rect class="c1" x="6.1" y="59.2" transform="matrix(0.7071 -0.7071 0.7071 0.7071 -34.3265 36.3233)" width="41.3" height="0.7"/>
        </g>
        <g>
          <rect class="c1" x="7.6" y="60.7" transform="matrix(0.7071 -0.7071 0.7071 0.7071 -34.9464 37.8193)" width="41.3" height="0.7"/>
        </g>
        <g>
          <rect class="c1" x="9" y="62.2" transform="matrix(0.7071 -0.7071 0.7071 0.7071 -35.5658 39.3151)" width="41.3" height="0.7"/>
        </g>
        <g>
          <rect class="c1" x="10.5" y="63.7" transform="matrix(0.7071 -0.7071 0.7071 0.7071 -36.1857 40.8112)" width="41.3" height="0.7"/>
        </g>
        <g>
          <rect class="c1" x="12" y="65.2" transform="matrix(0.7071 -0.7071 0.7071 0.7071 -36.8052 42.3067)" width="41.3" height="0.7"/>
        </g>
        <g>
          <rect class="c1" x="13.5" y="66.7" transform="matrix(0.7071 -0.7071 0.7071 0.7071 -37.4247 43.8029)" width="41.3" height="0.7"/>
        </g>
        <g>
          <rect class="c1" x="15" y="68.2" transform="matrix(0.7071 -0.7071 0.7071 0.7071 -38.0444 45.2986)" width="41.3" height="0.7"/>
        </g>
        <g>
          <rect class="c1" x="16.5" y="69.7" transform="matrix(0.7071 -0.7071 0.7071 0.7071 -38.6639 46.7948)" width="41.3" height="0.7"/>
        </g>
        <g>
          <rect class="c1" x="18" y="71.2" transform="matrix(0.7071 -0.7071 0.7071 0.7071 -39.2837 48.2904)" width="41.3" height="0.7"/>
        </g>
        <g>
          <rect class="c1" x="19.5" y="72.7" transform="matrix(0.7071 -0.7071 0.7071 0.7071 -39.903 49.7865)" width="41.3" height="0.7"/>
        </g>
        <g>
          <rect class="c1" x="21" y="74.2" transform="matrix(0.7071 -0.7071 0.7071 0.7071 -40.523 51.2823)" width="41.3" height="0.7"/>
        </g>
        <g>
          <rect class="c1" x="22.5" y="75.7" transform="matrix(0.7071 -0.7071 0.7071 0.7071 -41.1423 52.7781)" width="41.3" height="0.7"/>
        </g>
        <g>
          <rect class="c1" x="24" y="77.2" transform="matrix(0.7071 -0.7071 0.7071 0.7071 -41.7622 54.2742)" width="41.3" height="0.7"/>
        </g>
        <g>
          <rect class="c1" x="25.5" y="78.7" transform="matrix(0.7071 -0.7071 0.7071 0.7071 -42.3817 55.7697)" width="41.3" height="0.7"/>
        </g>
      </g>
    </g>
    <g>
      <defs>
        <polygon id="SVGID_5_" points="55,41.8 54.4,41.2 55,40.3 54.4,39.7 54.2,38.3 54.5,38 54.2,38 54.5,36.6 53.9,35.4 53.3,35
                				52.2,33.9 51.1,35 48.4,36.1 47.1,36.3 45.4,37.1 44.1,38.3 43.6,38.5 42.8,40.2 44.3,40.3 45.8,41.1 44.7,41.5 44.8,42.3
                				45.4,43.3 45,43.6 45.3,43.7 45.6,47.1 46.9,47.1 47.8,48.6 48.5,49.3 48.6,49.6 49.3,49.1 50.1,48.9 50.7,48.3 51.7,48.5
                				52.4,48.2 53.1,47.3 53.5,47 53.2,45.7 53.6,44.9 54.2,44.6 54.6,42.9 55.2,42.5 			"/>
      </defs>
      <clipPath id="SVGID_6_">
        <use href="#SVGID_5_" style="overflow:visible;"/>
      </clipPath>
      <g class="c4">
        <g>
          <rect class="c1" x="14.9" y="26.8" transform="matrix(0.7071 -0.7071 0.7071 0.7071 -8.7825 33.1017)" width="41.3" height="0.7"/>
        </g>
        <g>
          <rect class="c1" x="16.4" y="28.3" transform="matrix(0.7071 -0.7071 0.7071 0.7071 -9.402 34.5979)" width="41.3" height="0.7"/>
        </g>
        <g>
          <rect class="c1" x="17.9" y="29.8" transform="matrix(0.7071 -0.7071 0.7071 0.7071 -10.0217 36.0935)" width="41.3" height="0.7"/>
        </g>
        <g>
          <rect class="c1" x="19.4" y="31.3" transform="matrix(0.7071 -0.7071 0.7071 0.7071 -10.641 37.5896)" width="41.3" height="0.7"/>
        </g>
        <g>
          <rect class="c1" x="20.9" y="32.8" transform="matrix(0.7071 -0.7071 0.7071 0.7071 -11.261 39.0854)" width="41.3" height="0.7"/>
        </g>
        <g>
          <rect class="c1" x="22.4" y="34.3" transform="matrix(0.7071 -0.7071 0.7071 0.7071 -11.8804 40.5812)" width="41.3" height="0.7"/>
        </g>
        <g>
          <rect class="c1" x="23.9" y="35.8" transform="matrix(0.7071 -0.7071 0.7071 0.7071 -12.5003 42.0772)" width="41.3" height="0.7"/>
        </g>
        <g>
          <rect class="c1" x="25.4" y="37.2" transform="matrix(0.7071 -0.7071 0.7071 0.7071 -13.1196 43.573)" width="41.3" height="0.7"/>
        </g>
        <g>
          <rect class="c1" x="26.9" y="38.7" transform="matrix(0.7071 -0.7071 0.7071 0.7071 -13.7395 45.0691)" width="41.3" height="0.7"/>
        </g>
        <g>
          <rect class="c1" x="28.4" y="40.2" transform="matrix(0.7071 -0.7071 0.7071 0.7071 -14.359 46.5646)" width="41.3" height="0.7"/>
        </g>
        <g>
          <rect class="c1" x="29.9" y="41.7" transform="matrix(0.7071 -0.7071 0.7071 0.7071 -14.9785 48.0608)" width="41.3" height="0.7"/>
        </g>
        <g>
          <rect class="c1" x="31.4" y="43.2" transform="matrix(0.7071 -0.7071 0.7071 0.7071 -15.5983 49.5565)" width="41.3" height="0.7"/>
        </g>
        <g>
          <rect class="c1" x="32.9" y="44.7" transform="matrix(0.7071 -0.7071 0.7071 0.7071 -16.2178 51.0527)" width="41.3" height="0.7"/>
        </g>
        <g>
          <rect class="c1" x="34.4" y="46.2" transform="matrix(0.7071 -0.7071 0.7071 0.7071 -16.8375 52.5483)" width="41.3" height="0.7"/>
        </g>
        <g>
          <rect class="c1" x="35.9" y="47.7" transform="matrix(0.7071 -0.7071 0.7071 0.7071 -17.4568 54.0444)" width="41.3" height="0.7"/>
        </g>
        <g>
          <rect class="c1" x="37.4" y="49.2" transform="matrix(0.7071 -0.7071 0.7071 0.7071 -18.0768 55.5402)" width="41.3" height="0.7"/>
        </g>
        <g>
          <rect class="c1" x="38.9" y="50.7" transform="matrix(0.7071 -0.7071 0.7071 0.7071 -18.6962 57.036)" width="41.3" height="0.7"/>
        </g>
        <g>
          <rect class="c1" x="40.4" y="52.2" transform="matrix(0.7071 -0.7071 0.7071 0.7071 -19.3161 58.5321)" width="41.3" height="0.7"/>
        </g>
        <g>
          <rect class="c1" x="41.9" y="53.7" transform="matrix(0.7071 -0.7071 0.7071 0.7071 -19.9356 60.0276)" width="41.3" height="0.7"/>
        </g>
      </g>
    </g>
    <polygon class="c1" points="96.6,66.3 96.8,65.4 97.8,64.5 98,64 98.9,62.6 98.8,62.6 98,62.7 97.7,62 98.3,60.5 99.2,60 99.4,60
            		99.4,59.9 98.5,59.4 98.4,58.8 97.8,57.9 97.3,57.5 97,57.6 95.9,57 95,56.2 94.9,56.7 94.1,56.9 93.4,56.3 91.8,56.3 91,55.8
            		90.6,56.9 89.9,57 89.7,57.4 89.3,57.4 89,58 88.6,58 88.5,58.7 88.1,60 87.2,60.5 86.4,60.3 86.3,60.3 87.1,60.6 86.7,62.4
            		86.5,62.5 86.5,62.9 87.1,63 87.7,64.7 87.3,65 87.4,65.6 87.1,65.9 87.2,66.4 86.8,66.9 86.6,67.6 86.1,67.7 86.3,67.9 85.8,68.5
            		86.7,69 87.1,68.9 87.5,70 86.6,70.5 86.9,70.8 86.8,71 87,71.1 87.3,71.3 87.4,73.2 87.1,73.4 87.3,73.5 87.7,74.4 86.9,74.8
            		87.5,75.5 87.8,75.5 88.1,76.1 88.1,76.1 88.8,75.3 89.9,75.5 90,75.7 90.6,75.5 92,74.1 92,73.8 92.3,72.9 92.3,72.6 93.4,70.6
            		94.4,70 94.6,69.5 94.4,68.3 94.7,67.4 	"/>
    <g>
      <defs>
        <polygon id="SVGID_7_" points="86.3,71.9 85.6,71.3 85.7,71 85.5,70.8 85.5,70 86,69.7 85.7,69.5 84.9,69.2 84.7,68.3 84.9,68
                				84.7,67.8 85.3,66.9 85.8,66.8 85.8,66.4 86.1,66.1 86.1,65.6 86.3,65.3 86.2,64.7 86.5,64.4 86.3,63.8 85.5,63.6 85.5,62.8
                				85,62.3 85.4,61.7 85.8,61.6 85.9,61.3 85.6,61.2 84.8,61.8 84.1,61 83.8,61.2 83,60.9 82.1,60.4 82.2,60.4 81.6,60.4 81.7,59.6
                				81.1,59.1 81.5,58.5 80.6,57.5 80.4,56.9 79.9,56.8 79.4,57.1 79.6,57.3 78.7,57.9 76.9,57.7 76.5,58.2 75.9,58 75.5,58.2
                				74.6,58.5 73.4,58.1 72.1,56.5 70.8,55.4 70.6,54.3 69.7,53.4 69,53.2 67.7,53.4 66.6,54 66.6,55 66.2,55.4 66.5,55.5 67.1,56.1
                				67.5,58 66.7,59.2 67,59.6 66.4,60.9 65.9,60.7 65.7,60.8 67.1,62.7 66,63.3 66.3,63.9 66.1,65.3 66.9,66.4 67.7,69.8 67.9,71.5
                				67.9,72.2 68.7,72.7 69.4,72.3 70,72.7 70.5,72.3 71,72.9 72.3,71.7 73.5,73.4 74,74.4 75.5,75.1 75.8,77.1 75.4,77.7 75.5,78.1
                				75.5,78.2 75.7,78.2 75.9,78.5 76.4,78.3 77.9,78.3 78,78.4 78.4,78 78.2,77.2 79.1,76.3 79.5,76.7 79.5,76.6 80.4,76.4
                				80.5,76.2 81.7,76.4 82.1,77 83,73.9 84.6,73.5 84.9,73.3 86.1,74.1 86.1,74.1 86,73 86.4,72.7 			"/>
      </defs>
      <clipPath id="SVGID_8_">
        <use href="#SVGID_7_" style="overflow:visible;"/>
      </clipPath>
      <g class="c5">
        <g>
          <rect class="c1" x="42" y="50.6" transform="matrix(0.7071 -0.7071 0.7071 0.7071 -17.7028 59.2169)" width="41.3" height="0.7"/>
        </g>
        <g>
          <rect class="c1" x="43.5" y="52.1" transform="matrix(0.7071 -0.7071 0.7071 0.7071 -18.3223 60.7131)" width="41.3" height="0.7"/>
        </g>
        <g>
          <rect class="c1" x="45" y="53.6" transform="matrix(0.7071 -0.7071 0.7071 0.7071 -18.9421 62.2088)" width="41.3" height="0.7"/>
        </g>
        <g>
          <rect class="c1" x="46.5" y="55.1" transform="matrix(0.7071 -0.7071 0.7071 0.7071 -19.5613 63.7049)" width="41.3" height="0.7"/>
        </g>
        <g>
          <rect class="c1" x="48" y="56.6" transform="matrix(0.7071 -0.7071 0.7071 0.7071 -20.1813 65.2006)" width="41.3" height="0.7"/>
        </g>
        <g>
          <rect class="c1" x="49.5" y="58.1" transform="matrix(0.7071 -0.7071 0.7071 0.7071 -20.8007 66.6965)" width="41.3" height="0.7"/>
        </g>
        <g>
          <rect class="c1" x="51" y="59.6" transform="matrix(0.7071 -0.7071 0.7071 0.7071 -21.4206 68.1925)" width="41.3" height="0.7"/>
        </g>
        <g>
          <rect class="c1" x="52.5" y="61.1" transform="matrix(0.7071 -0.7071 0.7071 0.7071 -22.04 69.6883)" width="41.3" height="0.7"/>
        </g>
        <g>
          <rect class="c1" x="54" y="62.6" transform="matrix(0.7071 -0.7071 0.7071 0.7071 -22.6599 71.1843)" width="41.3" height="0.7"/>
        </g>
        <g>
          <rect class="c1" x="55.5" y="64.1" transform="matrix(0.7071 -0.7071 0.7071 0.7071 -23.2794 72.6799)" width="41.3" height="0.7"/>
        </g>
        <g>
          <rect class="c1" x="57" y="65.6" transform="matrix(0.7071 -0.7071 0.7071 0.7071 -23.8989 74.1761)" width="41.3" height="0.7"/>
        </g>
        <g>
          <rect class="c1" x="58.5" y="67.1" transform="matrix(0.7071 -0.7071 0.7071 0.7071 -24.5186 75.6718)" width="41.3" height="0.7"/>
        </g>
        <g>
          <rect class="c1" x="60" y="68.6" transform="matrix(0.7071 -0.7071 0.7071 0.7071 -25.1381 77.1679)" width="41.3" height="0.7"/>
        </g>
        <g>
          <rect class="c1" x="61.5" y="70" transform="matrix(0.7071 -0.7071 0.7071 0.7071 -25.7579 78.6636)" width="41.3" height="0.7"/>
        </g>
        <g>
          <rect class="c1" x="62.9" y="71.5" transform="matrix(0.7071 -0.7071 0.7071 0.7071 -26.3772 80.1597)" width="41.3" height="0.7"/>
        </g>
        <g>
          <rect class="c1" x="64.4" y="73" transform="matrix(0.7071 -0.7071 0.7071 0.7071 -26.9972 81.6555)" width="41.3" height="0.7"/>
        </g>
        <g>
          <rect class="c1" x="65.9" y="74.5" transform="matrix(0.7071 -0.7071 0.7071 0.7071 -27.6165 83.1513)" width="41.3" height="0.7"/>
        </g>
        <g>
          <rect class="c1" x="67.4" y="76" transform="matrix(0.7071 -0.7071 0.7071 0.7071 -28.2364 84.6473)" width="41.3" height="0.7"/>
        </g>
        <g>
          <rect class="c1" x="68.9" y="77.5" transform="matrix(0.7071 -0.7071 0.7071 0.7071 -28.8559 86.1429)" width="41.3" height="0.7"/>
        </g>
      </g>
    </g>
    <g>
      <defs>
        <polygon id="SVGID_9_" points="63.1,88.6 63.1,88.5 63.3,87.4 62.9,86.1 63.3,85.6 63.2,85.3 62.8,85.2 62.6,83.6 63.1,83
                				63.5,82.4 63.2,80.1 62.7,79.2 61.8,78.5 61,77.4 60.4,77.4 59.3,77.6 57.4,77.3 57.3,77.6 56,78 55.5,77.6 55.2,77.6 54.5,78.6
                				52.4,78.4 51.6,78.6 51.1,79.6 50.2,79.5 49.9,80.1 49.9,81 49.9,81.2 50.6,82.2 50.8,82.9 50.4,83.7 50,83.7 49.9,85 48.8,85.6
                				48.7,85.8 49.9,86.5 49.6,86.8 49.6,86.9 50,86.6 51.5,86.6 52,87.3 52.3,87.3 52.9,87.8 52.9,88.4 53.4,88.6 54.2,89.8
                				53.7,91.5 54.1,91.9 54.1,92.1 55.1,92.2 55.1,92.9 55.5,93.5 56.7,93.4 57.8,94.3 59.9,93.8 60.2,93.6 60.4,92.9 60.8,92.1
                				61.3,90.7 62.1,89.6 62,88.7 62.8,88.3 			"/>
      </defs>
      <clipPath id="SVGID_10_">
        <use href="#SVGID_9_" style="overflow:visible;"/>
      </clipPath>
      <g class="c6">
        <g>
          <rect class="c1" x="22" y="71.2" transform="matrix(0.7071 -0.7071 0.7071 0.7071 -38.1269 51.0938)" width="41.3" height="0.7"/>
        </g>
        <g>
          <rect class="c1" x="23.5" y="72.7" transform="matrix(0.7071 -0.7071 0.7071 0.7071 -38.7464 52.59)" width="41.3" height="0.7"/>
        </g>
        <g>
          <rect class="c1" x="25" y="74.2" transform="matrix(0.7071 -0.7071 0.7071 0.7071 -39.3662 54.0856)" width="41.3" height="0.7"/>
        </g>
        <g>
          <rect class="c1" x="26.5" y="75.7" transform="matrix(0.7071 -0.7071 0.7071 0.7071 -39.9854 55.5817)" width="41.3" height="0.7"/>
        </g>
        <g>
          <rect class="c1" x="28" y="77.2" transform="matrix(0.7071 -0.7071 0.7071 0.7071 -40.6054 57.0775)" width="41.3" height="0.7"/>
        </g>
        <g>
          <rect class="c1" x="29.5" y="78.7" transform="matrix(0.7071 -0.7071 0.7071 0.7071 -41.2248 58.5733)" width="41.3" height="0.7"/>
        </g>
        <g>
          <rect class="c1" x="31" y="80.2" transform="matrix(0.7071 -0.7071 0.7071 0.7071 -41.8447 60.0693)" width="41.3" height="0.7"/>
        </g>
        <g>
          <rect class="c1" x="32.5" y="81.7" transform="matrix(0.7071 -0.7071 0.7071 0.7071 -42.4641 61.5652)" width="41.3" height="0.7"/>
        </g>
        <g>
          <rect class="c1" x="34" y="83.2" transform="matrix(0.7071 -0.7071 0.7071 0.7071 -43.084 63.0612)" width="41.3" height="0.7"/>
        </g>
        <g>
          <rect class="c1" x="35.4" y="84.7" transform="matrix(0.7071 -0.7071 0.7071 0.7071 -43.7034 64.5568)" width="41.3" height="0.7"/>
        </g>
        <g>
          <rect class="c1" x="36.9" y="86.2" transform="matrix(0.7071 -0.7071 0.7071 0.7071 -44.323 66.0529)" width="41.3" height="0.7"/>
        </g>
        <g>
          <rect class="c1" x="38.4" y="87.7" transform="matrix(0.7071 -0.7071 0.7071 0.7071 -44.9427 67.5486)" width="41.3" height="0.7"/>
        </g>
        <g>
          <rect class="c1" x="39.9" y="89.1" transform="matrix(0.7071 -0.7071 0.7071 0.7071 -45.5622 69.0448)" width="41.3" height="0.7"/>
        </g>
        <g>
          <rect class="c1" x="41.4" y="90.6" transform="matrix(0.7071 -0.7071 0.7071 0.7071 -46.182 70.5405)" width="41.3" height="0.7"/>
        </g>
        <g>
          <rect class="c1" x="42.9" y="92.1" transform="matrix(0.7071 -0.7071 0.7071 0.7071 -46.8012 72.0365)" width="41.3" height="0.7"/>
        </g>
        <g>
          <rect class="c1" x="44.4" y="93.6" transform="matrix(0.7071 -0.7071 0.7071 0.7071 -47.4212 73.5323)" width="41.3" height="0.7"/>
        </g>
        <g>
          <rect class="c1" x="45.9" y="95.1" transform="matrix(0.7071 -0.7071 0.7071 0.7071 -48.0406 75.0281)" width="41.3" height="0.7"/>
        </g>
        <g>
          <rect class="c1" x="47.4" y="96.6" transform="matrix(0.7071 -0.7071 0.7071 0.7071 -48.6605 76.5242)" width="41.3" height="0.7"/>
        </g>
        <g>
          <rect class="c1" x="48.9" y="98.1" transform="matrix(0.7071 -0.7071 0.7071 0.7071 -49.28 78.0197)" width="41.3" height="0.7"/>
        </g>
      </g>
    </g>
    <polygon class="c1" points="61,76.4 61.7,75.4 63.3,75 63.4,74.8 63.5,73.4 64,72.8 65.1,72.4 66,71.6 66.9,71.4 66.7,70 66,66.7
            		65.1,65.6 65.2,64.1 65,63.6 64.8,62.9 65.6,62.4 64.4,60.8 64.8,60 65.8,59.7 65.9,59.7 65.6,59.1 66.4,57.8 66.2,56.6 65.9,56.3
            		65.2,56.1 64.4,56.6 63.9,56.2 63.7,56.8 62.2,56.8 61,56.5 61.4,55.7 61.7,55.4 60.9,54.5 60.1,54.5 57.4,55.4 57.3,54.5 57,53.4
            		55.9,52.5 54.4,50 53.8,48 53.7,48.1 53,49.1 51.8,49.5 51,49.4 50.5,49.8 49.7,50 49,50.5 49.7,51.6 50.1,53 49.8,53.8 48.6,54.7
            		48.9,55.8 49.5,56.8 49.1,57.6 49.1,58.2 49.6,58.9 49.5,59.7 48.9,60.1 48.8,60.5 48.1,61.7 47.7,61.9 47.7,62.1 45.2,64.2
            		44.3,63.9 44.3,64.4 44,66.1 43.6,66.9 43.2,68.4 43.4,68.6 45.1,69.5 45.4,70.7 46.5,70.4 46.5,70.3 47.2,69.8 48.1,70.4
            		48.8,71.6 50.4,73.3 50.3,74.9 51.6,75.7 52.8,77 52.8,77.4 54,77.5 54.7,76.7 55.7,76.5 56.2,76.9 56.4,76.8 56.4,76.4 57,76
            		57.8,76.4 59.2,76.6 60.3,76.4 	"/>
    <polygon class="c1" points="51.8,77.5 51.8,77.4 50.9,76.4 49.3,75.4 49.3,73.7 48,72.2 47.3,71.1 47.2,71.2 45,71.7 44.6,71.7
            		44.2,70.2 42.7,69.3 42.4,69.1 42.2,69.6 41.4,70.1 38.8,70.1 38.4,70.3 37.9,71.1 35.9,71.3 37.6,73.1 36.9,73.7 37.1,73.8
            		38.1,75.8 37.6,76.2 37.7,77.4 37.1,79.4 36.3,79.5 34.2,79.4 34.2,78.9 33.9,78.9 33.5,79.1 33.8,80.1 33.1,80.4 32.9,80.7
            		33.9,81.8 33.9,84.3 33.3,85.2 33.3,85.2 33.2,85.3 33.2,85.3 32.9,85.7 32.7,86 32.7,86.3 32.9,86.1 35.9,88.2 37,90.1 37.1,90.4
            		37.5,90.4 39.2,91 39.5,91.9 39.9,92.4 41.4,93 41.8,92.8 42.4,92.1 43.1,91.6 43.9,91.6 44.3,91.1 44.5,89.3 45.6,88.5 46.5,87.4
            		48.1,84.9 48.9,84.4 49.1,82.8 49.7,82.8 49.6,82.6 48.9,81.6 49,79.8 49.7,78.4 50.6,78.5 50.9,77.7 	"/>
    <polygon class="c1" points="49,53 48.8,51.9 47.9,50.6 47.6,49.9 47,49.2 46.3,48.1 44.7,48.1 44.3,44.4 43.8,44.3 43.7,43.3
            		44.1,43.1 43.8,42.5 43.7,41.9 43.7,41.9 41.2,43.6 40.7,43.5 40.1,43.7 38.1,43 36.3,43.1 33.9,42.4 33.5,42.6 33,43.4 31.8,43.1
            		31.9,42.2 31.7,41.8 31.1,39.9 31.4,39.6 31.5,39.4 31.3,39.1 30.4,39 30.1,39.4 29.1,39.5 28.4,39.2 27.3,38.9 27.7,39.7
            		27.5,40.5 27.9,42.1 29.5,44.2 29.6,45.9 30,46.4 30.1,48 29.7,48.2 29.6,48.4 30,49.3 30.7,50.4 31.1,50.5 31.3,51.2 30.9,51.8
            		30.6,51.8 30.5,51.9 30.7,52.7 30.9,52.7 31.2,52.4 32.6,51.8 33.8,52.4 35.5,52.3 35.7,52.6 35.9,52.6 37.7,52.2 39.1,52.1
            		39.7,51.2 40.9,51.8 41.1,52.8 41.9,52.7 41.9,53.4 42.2,53.4 43.1,52.6 44,52.4 44.9,51.9 45.5,52.4 45.7,54.4 46.6,54.9
            		47.4,54.5 47.6,54.7 47.5,54.3 49,53.2 	"/>
    <polygon class="c1" points="87.1,59.4 87.3,59.3 87.5,58.4 87.9,57.1 88.4,57 88.6,56.7 88.5,56 87.8,55.8 87.4,55.4 86.4,55.4
            		86.8,53.5 86.7,53.5 85.8,52.4 85.1,52.3 84.4,51.1 84.6,51 83.8,50.6 82.2,49.8 81.8,49.1 81.1,48.9 80.9,47.8 80.1,47.1
            		80.1,45.6 80.6,45 80.6,44.6 80.9,43.9 80.8,43.6 79.8,42.4 80.1,41.6 80.1,40.9 80.5,40.6 80.4,40.1 80.6,39.7 80.5,39.5
            		80.7,38.4 80.6,36.5 81.9,36.2 81.2,36 80,35 79,34.9 78.6,34.2 78.6,33.8 78.3,33.4 78,32.7 78.3,31.9 78.2,31.6 77.8,32.7
            		77.1,33.3 75.7,33.6 75,33.6 75.1,34.9 74.7,35.3 74.7,36.3 73.8,37.3 73.6,38 73.8,38.6 74.1,39.2 74,40.3 73.5,40.5 73.1,41.1
            		72.2,41 72.1,41.2 70.8,41.7 70.8,42.4 71.7,43 71,44 70.6,43.9 70.7,44.2 70.6,44.3 70.6,44.3 71.1,45 69.9,46.9 69.9,47.3
            		69.6,47.8 69.5,48.1 70.3,48.8 69.9,49.2 70.2,49.2 70.4,50 70.1,50.7 70.2,51.3 69.3,51.9 69.4,52.3 70.3,52.5 71.5,53.9
            		71.7,54.9 72.9,55.8 73.9,57.3 74.5,57.4 75.1,57.3 75.7,56.9 76.2,57 76.5,56.7 77.9,56.8 77.9,56.7 78.4,55.9 79.2,56 79.7,55.7
            		81.2,56.1 81.5,57.1 82.8,58.5 82.4,58.9 82.7,59.2 82.7,59.2 83.7,59.6 83.4,60 83.4,60 83.7,60.1 84,59.9 84.8,60.3 84.9,60.5
            		85.1,60.4 85.1,59.8 86.3,59.2 	"/>
    <polygon class="c1" points="79.6,90.1 79.1,89.4 79,88.9 77.7,88.7 77,89.3 76.4,89.2 75,89.2 75.5,87.3 75.5,87 74,85.5
            		73.2,84.2 73.8,80.7 73.3,78.8 73.9,77.9 74.5,77.4 74.7,76.9 74.6,75.8 73.3,75.1 72.6,74 72.1,73.2 71.5,73.7 70.9,74.1
            		70.4,73.6 70,73.8 69.4,73.5 68.6,73.9 66.9,72.7 66.9,72.4 66.5,72.5 65.5,73.3 64.6,73.6 64.4,73.8 64.3,75.2 64,75.9 62.3,76.3
            		61.8,76.9 62.5,77.8 63.5,78.6 64.2,79.8 64.4,80.9 64.5,82.6 63.6,83.9 63.7,84.5 64.1,84.6 64.4,85.9 64,86.3 64.3,87.3
            		64.1,88.9 63.8,89.6 63.2,89.7 63.2,89.9 62.1,91.2 61.7,92.6 61.3,93.3 61.2,94.3 61,94.4 61,94.4 61.1,95.2 61.5,95.6 61.7,96.3
            		61.5,97.5 61.8,97.6 63,97.2 63.4,97.7 63.5,97.7 64,97.3 64.2,96.7 64.5,96.3 64.5,95.7 65.2,94.9 66.6,93.5 67,95 67.3,95
            		68.1,95.8 68.2,96.5 69,93.9 69.9,94.5 71.5,92.9 72.4,94.9 72.6,94.8 73,94.2 73.6,94.1 74.4,94.2 74.5,94.4 74.6,94.3 75.8,95.5
            		76.4,94.6 76.8,94.5 76.9,94.3 78.3,93.2 78.4,92.9 78.7,92.6 78.7,92.4 79.4,91.9 79.3,91.8 79.9,90.3 	"/>
    <polygon class="c1" points="72.8,39.7 73.1,39.6 73.1,39.4 72.7,38.9 72.7,38.6 72.5,38.1 72.9,36.8 73.7,35.9 73.7,35 74,34.6
            		74,33.5 73.5,33.4 72.2,33.7 72.1,33.3 71.5,33.8 70.2,32.9 69.5,33.3 69.3,33.2 69.2,33.6 65.8,33.7 65.4,33.3 64.4,33.4
            		63.3,34.5 62.9,33 62.6,32.9 60.9,32.5 60.3,32.9 59.6,32.4 59.4,31.7 59.7,31.4 59.1,31.5 57.8,32.1 57.1,31.6 56.9,30.8
            		55.3,30.2 54,30.2 54,30.4 55.1,31.6 55.1,32.3 54.5,32.6 53.6,32.3 52.9,33.2 53,33.2 54,34.3 54.6,34.7 55.5,36.5 55.4,37.2
            		55.8,37.2 55.8,38 55.3,38.6 55.4,39.2 56.2,40 55.8,40.8 55.7,41.1 55.9,41.3 56.3,42.9 55.8,43.2 56.1,43.5 57.2,43.3 57.9,42.8
            		59.4,43.4 60.1,43 61.7,44.1 61.9,44.1 62.1,44 62.4,43.6 63,44.2 63.4,43.9 65.6,44.1 66,43.8 67.2,44.4 68.4,45.9 69.1,46.2
            		69.7,45.4 69.2,44.9 69.3,44.2 69.5,44 69.2,43.2 69.8,43 69.7,43 69.9,41 71.3,40.4 71.5,40 72.6,40.1 	"/>
    <polygon class="c1" points="102.3,85.5 101,84.5 100.7,83.3 100.2,82.8 99.3,82.7 99,82.1 98.8,81.4 100.6,79.4 100.3,78.5
        		99,77.7 98.5,76.9 98.7,75.4 98.2,74.9 98.1,74.1 97.4,74 95.2,74.5 94.7,75 94.5,75.5 94.6,75.7 95,75.9 95.2,76.7 93.6,78
        		91.8,78.6 91.4,77.6 91.8,76.7 92.4,76.4 92.5,75.2 92.5,75.1 91.1,76.4 89.7,76.9 89.3,76.4 89.2,76.4 88.7,76.9 87.7,77.3
        		87.2,76.5 87,76.5 85.9,75.2 84.9,74.5 83.8,74.7 82.3,79.6 81.1,78 81.2,77.8 81,77.6 80.9,77.9 80.1,77.7 79.8,78.2 79.4,77.9
        		79.6,78.3 77.9,79.8 77.4,79.3 76.6,79.3 75.5,79.7 75.1,79.1 74.4,78.8 74.4,78.8 74.3,78.9 74.8,80.6 74.2,84 74.8,84.9
        		76.4,86.6 76.5,87.3 76.3,88.2 76.7,88.2 77.4,87.7 79.9,88.1 80.1,89.1 80.2,89.3 81.2,89.6 80.4,92 80.4,92.4 79.7,92.9
        		79.7,93.2 79.3,93.5 79.3,93.8 77.7,95 77.5,95.4 77,95.5 76.3,96.5 76.2,96.6 76.5,97.7 77.1,97.8 77.5,99.2 78.3,99.5
        		78.4,100.4 78.7,100.3 79.3,100.8 79.4,100.5 80.3,100.4 80.8,100.6 81.4,100 82.5,100.6 82.6,100.3 84.3,100.3 84.5,100.8
        		85.3,100.7 86,100 86.6,100.2 87.5,99.8 87.8,101.1 88,100.9 88.4,101.1 88.7,100.8 89.5,101.2 89.7,101.5 89.8,101.4 90.2,101.8
        		90.1,101.7 91.1,100.8 90.9,100.5 90.9,100.5 90.6,100.4 90.3,100.6 89.8,100.3 88.6,98.9 89,98.2 89.1,98.2 89.1,97.7 89.7,97.6
        		90.6,97.7 90.3,97.2 90.8,95.5 91.4,95.5 91.9,95.2 92.2,94.5 93.2,93.8 93.2,93.6 93.9,92.9 94.7,92.7 95.7,92.1 95.7,91.7
        		95.1,91.8 94.7,91 95.6,89.1 97,90.1 97.4,90 98.4,89.2 99,88.5 100.7,88.7 100.9,88.6 101.4,87.7 102.2,87.2 102.5,86.9
        		102.3,86.4 102.5,85.8 	"/>
  </g>
</svg>
