<svg id="icon-range" xmlns="http://www.w3.org/2000/svg" viewBox="0 0 170 170">
  <style>
    .bg {
      fill: hsl(312, 100%, 31%);
    }
    .c1 {
      fill: #FFFFFF;
    }
  </style>
  <circle class="bg" cx="85" cy="85" r="84.5"/>
  <g>
    <g>
      <rect class="c1" x="18" y="76.21" width="134" height="13.332"/>
      <rect class="bg" x="58.75" y="77.876" width="52.5" height="10"/>
    </g>
    <g>
      <path class="c1" d="M108.791,103.4H59.827c-0.552,0-1-0.447-1-1s0.448-1,1-1h48.964c0.553,0,1,0.447,1,1 S109.344,103.4,108.791,103.4z"/>
      <path class="c1" d="M62.946,107.854c-0.257,0-0.515-0.099-0.71-0.296l-4.377-4.416c-0.386-0.39-0.386-1.019,0-1.408 l4.377-4.414c0.388-0.393,1.022-0.396,1.414-0.006c0.392,0.389,0.395,1.021,0.006,1.414l-3.679,3.71l3.679,3.712 c0.389,0.393,0.386,1.025-0.006,1.414C63.455,107.757,63.2,107.854,62.946,107.854z"/>
      <path class="c1" d="M106.32,107.855c-0.255,0-0.509-0.097-0.704-0.29c-0.393-0.389-0.395-1.021-0.006-1.414l3.679-3.71 l-3.679-3.712c-0.389-0.393-0.387-1.025,0.006-1.414s1.025-0.387,1.414,0.006l4.377,4.416c0.387,0.39,0.387,1.019,0,1.408 l-4.377,4.414C106.835,107.757,106.577,107.855,106.32,107.855z"/>
    </g>
  </g>
</svg>
