<svg id="icon-alluvial_2" xmlns="http://www.w3.org/2000/svg" viewBox="0 0 130 130">
  <style>
    .bg {
      fill: hsl(280, 84%, 31%);
    }
    .c1 {
      fill: #FFFFFF;
    }
  </style>
  <circle class="bg" cx="65" cy="65" r="64"/>
  <path class="c1" d="M96.6,41.4V32h-3l-1,0c-11.4,0-21.9,2.2-32.4,7.5c-4.9,2.6-9.9,4.7-15,6.5c-2.6,0.9-5.1,1.6-7.7,2.2
  	c-2.5,0.6-5.3,1-7.6,1.1l-3.2,0v0.2v36.1h4.3c0,0,3.3-0.2,6.4-0.2c6.3,0,15.7,0.7,23.5,5.5c4,2.4,14.6,10.8,31.9,11l0.8,0h0h0.1h3
  	v-5.4c0,0-3.1,0-3.2,0C77.5,96.6,68.6,89,62.8,86c-10.5-5.4-23.4-6.1-29.5-6.1c-1.2,0-1.9,0-2.5,0.1v0c1-0.1,2.7-0.1,5.2-0.1
  	c6.5,0,16.9,0.6,25.1,3.8c4.3,1.7,14,9.6,31.3,9.9l0.1,0h4v-24c0,0-4.2,0-4.2,0c-15.9,0-18.6-0.5-27.8-0.8
  	c-14.9-0.5-30.2-2.1-33.7-2.4v-0.1c0.2,0,0.2,0,0.4,0c3.5,0,6.8,0.2,10.2,0.2c1.6,0,3.2-0.1,4.9-0.2c5.9-0.6,10.1-0.8,15.5-0.8
  	c9.8,0,20.3,0.7,30.9,0.8l0,0h4V54.8h-4l0,0c-11.1,0.1-22.2,1.2-32.4,3.5c-4.9,1.2-9.9,2.2-15,3c-2.6,0.4-5.1,0.7-7.7,1
  	c-1.5,0.2-3,0.3-4.5,0.3c-0.7,0-1.3,0-2.1-0.1v-0.4c5.4-0.2,10.3-1.1,15.4-2.3c5.3-1.2,10.5-3.5,15.6-5.3c7.9-2.7,16.4-3.1,25-3.1
  	c1.9,0,3.8,0.1,5.8,0.1l0.1,0h4v-7h-4l-0.1,0c-11.1,0.1-22.2,1.9-32.4,5.5c-4.9,1.8-9.9,3.3-15,4.6c-2.6,0.6-5.1,1.1-7.7,1.5
  	c-1.5,0.2-3,0.4-4.5,0.4c-0.7,0-1.3-0.1-2.1-0.1v-0.2c5.4-0.3,10.3-1.6,15.4-3.2C51.5,51.4,57,48.5,62,46c7.9-3.8,16.1-4.7,24.7-4.7
  	c1.9,0,3.8,0,5.7,0.1l0.1,0H96.6z M30.8,81c0.6,0,1.4,0,2.5,0c6.5,0,18.9,0.8,29,6c1.1,0.6,2.2,1.3,3.6,2.1
  	c5.6,3.4,13.9,8.4,26.5,8.6l0,3.1c-15.1-0.2-24.9-6.7-29.7-9.9c-0.6-0.4-1.2-0.8-1.6-1c-8-4.9-17.5-5.6-24-5.6c-2.2,0-4.4-0.2-6.4,0
  	L30.8,81z M30.8,67.3c0.6,0,1.3,0.1,2.1,0.2c5.7,0.5,19,1.7,31.6,2.2c2.7,0.1,4.8,0.2,6.8,0.3c5,0.3,9.7,0.5,21,0.5h0.2l0,21.7
  	c-13.3-0.2-22.1-5-27.4-7.9c-1.5-0.8-2.7-1.5-3.7-1.9c-8.1-3.2-18.3-3.8-25.4-3.8c-1.3,0-3.2,0-5.2,0.1L30.8,67.3z M32.9,63.7
  	c1.4,0,2.7-0.1,4.6-0.3c2.4-0.3,5-0.6,7.8-1c5.1-0.8,10-1.8,15.1-3c9.8-2.2,20.6-3.4,32.2-3.5l0,9c-4.9,0-9.9-0.2-14.7-0.4
  	c-5.6-0.2-10.9-0.4-16.1-0.4c-5.7,0-9.9,0.2-15.5,0.8c-1.4,0.1-3,0.2-4.8,0.2c-1.6,0-3.3-0.1-5-0.1C34.7,65,33,65,31.2,65
  	c-0.1,0-0.3,0-0.4,0l0-1.3C31.5,63.7,32.2,63.7,32.9,63.7z M32.9,57.8c1.4,0,2.8-0.1,4.6-0.4c2.4-0.4,5-0.9,7.8-1.6
  	c5.1-1.2,10-2.7,15.1-4.6c9.7-3.4,20.5-5.3,32.1-5.4l0,4.5l-0.6,0c-1.7,0-3.5,0-5.2,0c-9.7,0-17.7,0.5-25.3,3.1
  	c-1.3,0.5-2.7,1-4,1.5c-3.7,1.4-7.6,2.9-11.5,3.8c-4.1,0.9-9.5,2-15.2,2.3l0-3.2C31.5,57.8,32.2,57.8,32.9,57.8z M92.5,40.2l-0.6,0
  	c-1.7,0-3.5,0-5.2,0c-9.7,0-17.5,1-25.1,4.8c-1.3,0.7-2.7,1.4-4,2.1c-3.7,2-7.8,3.8-11.7,5c-4.1,1.3-9.4,2.8-15.1,3.2l0-4.9
  	c2.4-0.2,4.9-0.7,6.8-1.1c2.4-0.5,5-1.3,7.8-2.2c5.1-1.7,10-3.9,15.1-6.5c9.7-4.9,20.5-7.4,32-7.6L92.5,40.2z"/>
</svg>
