<svg id="icon-error_bars" xmlns="http://www.w3.org/2000/svg" viewBox="0 0 130 130">
  <style>
    .bg {
      fill: hsl(280, 84%, 31%);
    }
    .c1 {
      fill: #FFFFFF;
    }
    .c2 {
      fill: none;
      stroke: #FFFFFF;
    }
  </style>
  <circle class="bg" cx="65" cy="65" r="64"/>
  <g>
    <circle class="c1" cx="45.259" cy="67.536" r="5.482"/>
    <line class="c2" x1="19.641" y1="67.534" x2="70.878" y2="67.534"/>
    <line class="c2" x1="45.26" y1="99.415" x2="45.26" y2="35.654"/>
    <path class="c1" d="M89.414,42.761c0,3.026-2.453,5.48-5.48,5.48c-3.029,0-5.481-2.455-5.481-5.48 c0-3.03,2.452-5.484,5.481-5.484C86.961,37.277,89.414,39.731,89.414,42.761z"/>
    <line class="c2" x1="68.141" y1="42.76" x2="99.727" y2="42.76"/>
    <line class="c2" x1="83.934" y1="56.987" x2="83.934" y2="28.53"/>
    <line class="c2" x1="41.667" y1="98.902" x2="48.715" y2="98.902"/>
    <line class="c2" x1="41.667" y1="35.466" x2="48.715" y2="35.466"/>
    <line class="c2" x1="80.41" y1="28.418" x2="87.456" y2="28.418"/>
    <line class="c2" x1="67.999" y1="46.283" x2="67.999" y2="39.235"/>
    <line class="c2" x1="100.109" y1="46.283" x2="100.109" y2="39.235"/>
    <line class="c2" x1="19.444" y1="71.061" x2="19.444" y2="64.013"/>
    <line class="c2" x1="70.741" y1="71.061" x2="70.741" y2="64.013"/>
    <line class="c2" x1="80.41" y1="57.494" x2="87.456" y2="57.494"/>
    <circle class="c1" cx="90.587" cy="87.796" r="5.481"/>
    <line class="c2" x1="72.893" y1="87.794" x2="108.281" y2="87.794"/>
    <line class="c2" x1="90.586" y1="97.93" x2="90.586" y2="77.66"/>
    <line class="c2" x1="87.062" y1="77.369" x2="94.111" y2="77.369"/>
    <line class="c2" x1="72.695" y1="91.318" x2="72.695" y2="84.271"/>
    <line class="c2" x1="108.328" y1="91.318" x2="108.328" y2="84.271"/>
    <line class="c2" x1="87.062" y1="98.418" x2="94.111" y2="98.418"/>
  </g>
</svg>
