<svg id="icon-probability" xmlns="http://www.w3.org/2000/svg" viewBox="0 0 170 170">
  <style>
    .bg {
      fill: hsl(312, 100%, 31%);
    }
    .c1 {
      fill: #FFFFFF;
    }
  </style>
  <circle class="bg" cx="85" cy="85" r="84.5"/>
  <g>
    <path class="c1" d="M140.09,54.172c0-0.005,0.002-0.008,0.002-0.013c-1.414-1.63-3.834-2.182-5.891-3.208
      		c-4.631-2.312-9.104-4.737-13.829-6.915c-2.457-1.134-4.903-2.933-7.13-3.457c-6.661-1.572-13.635-1.171-20.528-1.73
      		c-0.168,0.048-0.252,0.181-0.218,0.433c1.58,1.511,4.43,2.564,6.917,3.889c4.593,2.448,8.741,4.883,13.396,7.347
      		c2.289,1.212,5.082,3.116,6.918,3.458c1.936,0.362,4.233-0.092,6.266,0c4.562,0.207,9.759,0.561,14.007,0.639
      		C140.111,54.512,140.098,54.367,140.09,54.172z M110.434,41.875c2.988,0.181,5.533,0.805,6.697,2.81
      		C114.855,44.64,111.732,43.611,110.434,41.875z M114.971,48.574c3.192,0.192,5.793,0.98,7.131,3.026
      		C119.127,51.188,116.545,50.384,114.971,48.574z"/>
    <path class="c1" d="M105.529,92.618c4.139-11.662,8.179-23.421,11.64-35.76c-0.101-0.259-0.202-0.515-0.321-0.76
      		c-1.109-1.045-2.295-1.741-3.895-2.628c-3.344-1.85-6.562-3.297-9.939-5.185c-3.719-2.08-9.334-5.809-13.701-6.986
      		c-0.266,0.022-0.533,0.067-0.797,0.15c-0.742,0.987-0.939,2.233-1.492,3.811c-2.462,7.032-5.46,15.404-7.219,22.009
      		c0.018,0.237,0.072,0.455,0.159,0.654c1.398,1.036,3.271,1.597,5.116,2.187c2.431,4.844,4.218,10.331,6.481,15.342
      		c2.25,1.356,4.291,2.776,6.482,4.104c2.021,1.227,4.075,3.053,6.913,3.398C105.184,92.9,105.383,92.797,105.529,92.618z
      		 M92.857,46.989c2.832,0.954,3.281,6.755,0.216,8.211C86.324,57.062,87.098,45.047,92.857,46.989z M95.667,71.623
      		c-4.519-2.244-1.815-11.241,3.024-8.644c2.688,1.441,2.514,7.297-0.433,8.644H95.667z M100.637,86.749
      		c-4.504-2.254-1.816-11.242,3.024-8.645c2.688,1.441,2.515,7.298-0.433,8.645H100.637L100.637,86.749z"/>
    <path class="c1" d="M140.209,58.165c-5.593-0.705-12.74-1.473-17.966-0.949c-2.662,0.267-3.867,6.238-4.755,8.86
      		c-1.225,3.627-2.035,6.624-3.023,9.508c-2.132,6.221-4.643,11.916-5.592,17.296c0,0.006,0.003,0.009,0.003,0.015
      		c0.004,0.519,0.083,0.903,0.354,1.26c0.203,0.046,0.405,0.1,0.609,0.141c6.689-0.461,12.484-1.643,18.885-2.287
      		c3.588-8.013,6.6-16.889,9.727-25.283c0.957-2.572,2.27-5.059,2.703-7.714C140.982,58.612,140.631,58.341,140.209,58.165z
      		 M114.032,90.926c-3.255-0.428-1.056-9.753,2.81-8.211C118.879,85.048,116.749,91.282,114.032,90.926z M120.73,69.317
      		c-2.719-1.247-0.353-8.687,3.24-8.212C126.807,63.504,123.686,70.672,120.73,69.317z M125.484,88.766
      		c-1.274-2.766-0.205-7.502,3.457-7.348C130.919,84.024,128.816,89.469,125.484,88.766z M133.48,69.317
      		c-2.905-2.356,0.721-9.751,3.672-6.916C137.443,66.222,136.323,68.629,133.48,69.317z"/>
    <path class="c1" d="M71.247,68.095c-2.919-1.105-5.922-2.213-8.824-3.157c-0.272-0.047-0.546-0.091-0.819-0.122
      		c-0.071,0.041-0.167,0.056-0.296,0.038c-8.958,5.001-18.735,10.056-27.66,14.694c-1.22,0.633-2.764,1.188-3.542,2.395
      		c0.001,0.113,0.014,0.225,0.03,0.335c1.949,1.754,5.062,2.97,7.833,4.4c2.557,1.321,5.21,2.707,7.75,3.9
      		c0.337,0.105,0.744,0.271,1.088,0.271c0.044-0.021,0.09-0.033,0.135-0.053c-0.001-0.001-0.002-0.004-0.002-0.005
      		c0.037-0.004,0.067-0.03,0.102-0.039c7.529-4.407,15.678-8.694,23.341-12.935c2.827-1.566,6.586-3.409,8.644-5.41
      		c0.041-0.261,0.062-0.524,0.042-0.785C77.041,69.751,73.979,69.13,71.247,68.095z M35.809,81.924
      		c0.085-2.796,4.378-4.185,7.779-3.673C43.08,81.425,39.234,82.385,35.809,81.924z M45.749,87.111
      		c-0.056-2.756,5.178-4.713,7.779-3.458C52.766,86.502,49.109,87.578,45.749,87.111z M45.749,76.74
      		c0.09-2.646,4.901-4.27,7.779-3.458C52.839,76.355,48.513,77.679,45.749,76.74z M63.036,68.311c-0.481,2.51-4.708,4.075-7.78,3.458
      		C55.485,68.504,60.522,67.206,63.036,68.311z M55.689,81.277c1.079-2.516,5.414-4.268,8.211-3.025
      		C62.875,81.026,58.429,82.768,55.689,81.277z M66.493,75.874c0.695-2.745,4.781-4.221,7.78-3.242
      		C73.694,75.434,69.045,77.154,66.493,75.874z"/>
    <path class="c1" d="M96.591,109.92c-0.001-0.081,0.017-0.15,0.04-0.214c-0.438-2.81-1.879-5.242-2.91-7.759
      		c-3.59-8.739-6.816-16.798-10.157-25.499c-2.928-1.604-4.74,0.742-6.916,1.944c-7.128,3.94-12.815,7.059-19.88,11.021
      		c-2.415,1.354-7.157,3.261-7.563,4.97c-0.263,1.108,0.584,3.467,1.082,4.971c2.846,8.603,5.234,14.795,8.21,23.121
      		c0.679,1.897,2.071,8.234,3.89,8.645c1.231,0.277,3.227-1.359,4.538-2.161c10.103-6.185,20.058-11.874,29.332-18.046
      		C96.475,110.631,96.598,110.343,96.591,109.92z M56.552,102.163c-3.622-1.996-2.113-8.028,1.729-8.644
      		C65.145,92.421,63.244,105.852,56.552,102.163z M66.709,124.637c-5.206,0.016-5.844-8.312-0.649-9.074
      		C72.551,114.607,72.342,124.62,66.709,124.637z M73.623,107.781c-5.239,0.152-5.986-8.775-0.431-9.292
      		c0.559-0.052,1.519-0.097,2.16,0.217C79.008,100.484,77.789,107.66,73.623,107.781z M78.81,90.927
      		c-3.916-0.644-4.657-7.61-0.433-8.86C85.547,80.434,85.276,91.988,78.81,90.927z M85.939,112.104
      		c-3.382-1.289-3.236-8.312,1.944-8.211C93.796,104.006,91.85,114.355,85.939,112.104z"/>
    <path class="c1" d="M45.54,94.469c-0.126-0.134-0.256-0.263-0.41-0.367c-5.553-2.189-10.607-5.85-15.872-7.691
    		c-0.031,0.004-0.055,0.02-0.089,0.02c-0.185,0.002-0.269,0.07-0.323,0.191c0.112,2.438,1.56,5.456,2.571,8.27
    		c2.854,7.939,5.983,16.152,8.644,23.77c5.649,3.755,11.304,8.527,17.079,11.633c0.274-0.047,0.455-0.157,0.615-0.357
    		C54.26,117.533,49.52,106.38,45.54,94.469z M40.492,103.314c2.637,1.254,4.048,3.731,4.323,7.348
    		C41.663,110.126,40.164,105.925,40.492,103.314z"/>
  </g>
</svg>
