<svg id="icon-barcode_plot" xmlns="http://www.w3.org/2000/svg" viewBox="0 0 130 130">
  <style>
    .bg {
      fill: hsl(280, 84%, 31%);
    }
    .c1 {
      fill: #FFFFFF;
    }
  </style>
  <g>
    <path class="bg" d="M64.7,0.6c35.3,0,64,28.7,64,64s-28.7,64-64,64s-64-28.7-64-64C0.7,29.3,29.4,0.6,64.7,0.6z"/>
  </g>
  <g>
    <g>
      <g>
        <path class="c1" d="M97,94.2H78.8v-3c0-0.6-0.4-1-1-1s-1,0.4-1,1v3h-25v-3c0-0.6-0.4-1-1-1s-1,0.4-1,1v3H34V34.7
        				c0-0.6-0.4-1-1-1s-1,0.4-1,1v61.7h65c0.6,0,1-0.4,1-1S97.6,94.2,97,94.2z"/>
      </g>
    </g>
    <g>
      <rect class="c1" x="44.5" y="79" width="13.3" height="2"/>
    </g>
    <g>
      <rect class="c1" x="71.5" y="83.2" width="13.3" height="2"/>
    </g>
    <g>
      <rect class="c1" x="71.5" y="68.5" width="13.3" height="2"/>
    </g>
    <g>
      <rect class="c1" x="71.5" y="72" width="13.3" height="2"/>
    </g>
    <g>
      <rect class="c1" x="71.5" y="49.4" width="13.3" height="2"/>
    </g>
    <g>
      <rect class="c1" x="71.5" y="58.9" width="13.3" height="2"/>
    </g>
    <g>
      <rect class="c1" x="71.5" y="43.2" width="13.3" height="2"/>
    </g>
    <g>
      <rect class="c1" x="44.5" y="64.4" width="13.3" height="2"/>
    </g>
    <g>
      <rect class="c1" x="44.5" y="61.1" width="13.3" height="2"/>
    </g>
    <g>
      <rect class="c1" x="44.5" y="57.8" width="13.3" height="2"/>
    </g>
    <g>
      <rect class="c1" x="44.5" y="45.3" width="13.3" height="2"/>
    </g>
    <g>
      <rect class="c1" x="44.5" y="39" width="13.3" height="2"/>
    </g>
  </g>
</svg>
