<svg id="icon-Ldot_matrix_chartayer_1" xmlns="http://www.w3.org/2000/svg" viewBox="0 0 130 130">
  <style>
    .bg {
      fill: hsl(280, 84%, 31%);
    }
    .c1 {
      fill: #FFFFFF;
    }
    .c3 {
      opacity: 0.5;
    }
    .c4 {
      fill: none;
      stroke: #FFFFFF;
    }
  </style>
  <circle class="bg" cx="65" cy="65" r="64"/>
  <g>
    <circle class="c1" cx="32.759" cy="44.552" r="6.953"/>
    <circle class="c1" cx="32.759" cy="65.003" r="6.953"/>
    <circle class="c1" cx="32.759" cy="85.454" r="6.953"/>
    <circle class="c1" cx="54.301" cy="44.552" r="6.953"/>
    <circle class="c1" cx="54.301" cy="65.003" r="6.953"/>
    <circle class="c1" cx="54.301" cy="85.454" r="6.953"/>
    <circle class="c1" cx="75.844" cy="44.552" r="6.953"/>
    <circle class="c1 c3" cx="75.844" cy="65.003" r="6.953"/>
    <circle class="c1 c3" cx="75.844" cy="85.454" r="6.953"/>
    <path class="c4" d="M104.133,44.552c0,3.728-3.02,6.749-6.749,6.749c-3.727,0-6.747-3.021-6.747-6.749 c0-3.728,3.021-6.749,6.747-6.749C101.113,37.804,104.133,40.824,104.133,44.552z"/>
    <path class="c4" d="M104.133,65.003c0,3.728-3.02,6.749-6.749,6.749c-3.727,0-6.747-3.021-6.747-6.749 c0-3.729,3.021-6.749,6.747-6.749C101.113,58.254,104.133,61.275,104.133,65.003z"/>
    <path class="c4" d="M104.133,85.454c0,3.728-3.02,6.749-6.749,6.749c-3.727,0-6.747-3.021-6.747-6.749 c0-3.729,3.021-6.75,6.747-6.75C101.113,78.704,104.133,81.725,104.133,85.454z"/>
  </g>
</svg>
