<svg id="icon-barbell_plot" xmlns="http://www.w3.org/2000/svg" viewBox="0 0 130 130">
  <style>
    .bg {
      fill: hsl(280, 84%, 31%);
    }
    .c1 {
      fill: #FFFFFF;
    }
  </style>
  <g>
   <circle class="bg" cx="65" cy="65" r="64"/>
  </g>
  <g>
    <rect class="c1" x="32" y="32.3" width="1" height="65.3"/>
    <path class="c1" d="M97.5,77.5c0-2-1.2-3.7-3-4.5V32.3h-1v40.4c-0.3-0.1-0.6-0.1-0.9-0.1c-2.2,0-4,1.4-4.6,3.3H73.8V32.3h-1V76
    		H56.5c-0.5-1.4-1.6-2.5-3-3V55.3h5.2c0.6,1.9,2.4,3.3,4.6,3.3c2.7,0,4.8-2.2,4.8-4.8S65.9,49,63.3,49c-2.2,0-4,1.4-4.6,3.3h-5.2
    		v-20h-1v20h-5.7c-0.6-1.9-2.4-3.3-4.6-3.3c-2.7,0-4.8,2.2-4.8,4.8s2.2,4.8,4.8,4.8c2.2,0,4-1.4,4.6-3.3h5.7v17.4
    		c-0.2,0-0.4-0.1-0.6-0.1c-2.7,0-4.8,2.2-4.8,4.8s2.2,4.8,4.8,4.8c0.2,0,0.4,0,0.6-0.1v15.4h1V82c1.4-0.5,2.5-1.6,3-3h16.3v18.7h1
    		V79h14.3c0.6,1.9,2.4,3.3,4.6,3.3c0.3,0,0.6,0,0.9-0.1v15.4h1V82C96.3,81.2,97.5,79.5,97.5,77.5z"/>
  </g>
</svg>
