<svg id="icon-graded_error_bars" xmlns="http://www.w3.org/2000/svg" viewBox="0 0 130 130">
  <style>
    .bg {
      fill: hsl(280, 84%, 31%);
    }
    .c1 {
      fill: #FFFFFF;
    }
  </style>
  <circle class="bg" cx="65" cy="65" r="64"/>
  <g>
    <path class="c1" d="M108.3,87.3h-3.5v-1.8h-9.4c-0.5-1.2-1.5-2.1-2.7-2.6v-2h-1.6v-3.3h-1v3.3h-1.6v2c-1.2,0.5-2.1,1.5-2.7,2.6
      		h-9.6v1.8h-3.3v1h3.3v1.5h9.5c0.5,1.3,1.5,2.3,2.8,2.9v2.2h1.6v3h1v-3h1.6v-2.2c1.3-0.6,2.3-1.6,2.8-2.9h9.2v-1.5h3.5V87.3z"/>
    <path class="c1" d="M79,44.9c0.5,1.3,1.6,2.3,2.8,2.8v4h1.6V57h1v-5.3h1.7v-4c1.2-0.5,2.2-1.5,2.7-2.7h6.3v-1.6h4.5v-1h-4.5v-1.7
      		h-6.4c-0.5-1.2-1.5-2.2-2.7-2.7v-3.7h-1.7v-5.7h-1v5.7h-1.6v3.6c-1.3,0.5-2.3,1.5-2.8,2.8h-6.7v1.7h-4.2v1h4.2v1.6H79z"/>
    <path class="c1" d="M59.5,65.6h-9.3c-0.5-1.2-1.5-2.2-2.8-2.8V51.6h-1.6V35.7h-1v15.9h-1.6v11.3c-1.2,0.5-2.2,1.5-2.8,2.8H30.3
    		v1.6H19.6v1h10.7v1.6h10.2c0.5,1.2,1.5,2.2,2.8,2.8v11.1h1.6v15.7h1V83.8h1.6V72.6c1.2-0.5,2.2-1.5,2.8-2.8h9.3v-1.6h11.3v-1H59.5
    		V65.6z"/>
  </g>
</svg>
