<svg id="icon-icicle_diagram" xmlns="http://www.w3.org/2000/svg" viewBox="0 0 130 130">
  <style>
    .bg {
      fill: hsl(280, 84%, 31%);
    }
    .c1 {
      fill: #F2F2F2;
    }
  </style>
  <g>
   <circle class="bg" cx="65" cy="65" r="64"/>
  </g>
  <g>
    <rect class="c1" x="78.5" y="54.9" width="10.7" height="20.2"/>
    <rect class="c1" x="67.6" y="54.9" width="9.4" height="20.2"/>
    <rect class="c1" x="57.4" y="32.5" width="19.7" height="20.9"/>
    <rect class="c1" x="48.1" y="54.9" width="7.8" height="20.2"/>
    <rect class="c1" x="54.9" y="76.6" width="1" height="20.9"/>
    <rect class="c1" x="32.5" y="54.9" width="14.1" height="20.2"/>
    <rect class="c1" x="48.1" y="76.6" width="5.3" height="20.9"/>
    <rect class="c1" x="90.7" y="76.6" width="2.5" height="20.9"/>
    <rect class="c1" x="40.4" y="76.6" width="6.2" height="20.9"/>
    <rect class="c1" x="78.5" y="32.5" width="19" height="20.9"/>
    <rect class="c1" x="32.5" y="32.5" width="23.4" height="20.9"/>
    <rect class="c1" x="90.7" y="54.9" width="6.8" height="20.2"/>
    <rect class="c1" x="94.7" y="76.6" width="2.8" height="20.9"/>
    <rect class="c1" x="85.4" y="76.6" width="3.8" height="20.9"/>
    <rect class="c1" x="32.5" y="76.6" width="6.4" height="20.9"/>
    <rect class="c1" x="57.4" y="76.6" width="4.4" height="20.9"/>
    <rect class="c1" x="57.4" y="54.9" width="8.8" height="20.2"/>
    <rect class="c1" x="78.5" y="76.6" width="5.4" height="20.9"/>
    <rect class="c1" x="63.2" y="76.6" width="2.9" height="20.9"/>
    <rect class="c1" x="67.6" y="76.6" width="9.4" height="20.9"/>
  </g>
</svg>
