<svg id="icon-bump_chart" xmlns="http://www.w3.org/2000/svg" viewBox="0 0 130 130">
  <style>
    .bg {
      fill: hsl(280, 84%, 31%);
    }
    .c1 {
      fill: #FFFFFF;
    }
  </style>
  <circle class="bg" cx="65" cy="65" r="64"/>
  <g>
    <path class="c1" d="M94.7,68.2c2.4,0,4.3-1.9,4.3-4.3c0-2.4-1.9-4.3-4.3-4.3s-4.3,1.9-4.3,4.3c0,1.1,0.4,2.1,1.1,2.9l-6.8,10
      		l-6.8-10c0.7-0.8,1.1-1.8,1.1-2.9c0-2.4-1.9-4.3-4.3-4.3c-2.4,0-4.3,1.9-4.3,4.3c0,1.1,0.4,2.1,1.1,2.9l-6.8,10l-6.8-10
      		c0.7-0.8,1.1-1.8,1.1-2.9c0-2.4-1.9-4.3-4.3-4.3c-2,0-3.7,1.4-4.1,3.2H39.4c-0.5-1.9-2.2-3.2-4.1-3.2c-2.4,0-4.3,1.9-4.3,4.3
      		c0,2.4,1.9,4.3,4.3,4.3c2,0,3.7-1.4,4.1-3.3H51c0.5,1.9,2.2,3.3,4.1,3.3c0.5,0,1-0.1,1.5-0.3l7.2,10.7l-7.2,10.7
      		c-0.5-0.2-1-0.3-1.5-0.3c-2,0-3.7,1.4-4.1,3.2H39.4c-0.5-1.9-2.2-3.2-4.1-3.2c-2.4,0-4.3,1.9-4.3,4.3s1.9,4.3,4.3,4.3
      		c2,0,3.7-1.4,4.1-3.2H51c0.5,1.9,2.2,3.2,4.1,3.2c2.4,0,4.3-1.9,4.3-4.3c0-1.1-0.4-2.1-1.1-2.9l6.8-10l6.8,10
      		c-0.7,0.8-1.1,1.8-1.1,2.9c0,2.4,1.9,4.3,4.3,4.3c2.4,0,4.3-1.9,4.3-4.3c0-1.1-0.4-2.1-1.1-2.9l6.8-10l6.8,10
      		c-0.7,0.8-1.1,1.8-1.1,2.9c0,2.4,1.9,4.3,4.3,4.3s4.3-1.9,4.3-4.3s-1.9-4.3-4.3-4.3c-0.5,0-1,0.1-1.5,0.3l-7.2-10.7l7.2-10.7
      		C93.7,68.1,94.2,68.2,94.7,68.2z M83.6,78.7l-7.2,10.7c-0.5-0.2-1-0.3-1.5-0.3c-0.5,0-1,0.1-1.5,0.3l-7.2-10.7l7.2-10.7
      		c1,0.4,2,0.4,2.9,0L83.6,78.7z"/>
    <path class="c1" d="M35.3,40.9c2,0,3.7-1.4,4.1-3.2H51c0.5,1.9,2.2,3.2,4.1,3.2c2,0,3.7-1.4,4.1-3.2h11.6c0.5,1.9,2.2,3.2,4.1,3.2
    		c2,0,3.7-1.4,4.1-3.2h11.6c0.5,1.9,2.2,3.2,4.1,3.2c2.4,0,4.3-1.9,4.3-4.3s-1.9-4.3-4.3-4.3c-2,0-3.7,1.4-4.1,3.2H79
    		c-0.5-1.9-2.2-3.2-4.1-3.2c-2,0-3.7,1.4-4.1,3.2H59.2c-0.5-1.9-2.2-3.2-4.1-3.2c-2,0-3.7,1.4-4.1,3.2H39.4
    		c-0.5-1.9-2.2-3.2-4.1-3.2c-2.4,0-4.3,1.9-4.3,4.3S32.9,40.9,35.3,40.9z"/>
  </g>
</svg>
