<svg id="icon-word_cloud" xmlns="http://www.w3.org/2000/svg" viewBox="0 0 130 130">
  <style>
    .bg { 
      fill: hsl(280, 84%, 31%);
    }
    .c1 {
      fill: #FFFFFF;
    }
  </style>
  <circle class="bg" cx="65" cy="65" r="64"/>
  <g>
    <g>
      <path class="c1" d="M48.761,28.771c0.775,0.26,1.426,0.627,2.149,0.931c0.476-0.146,0.539-0.652,0.859-0.931 c0.845,0.325,1.237,1.04,2.365,1.118c0.172,0.646-0.238,0.788-0.429,1.12c2.693,1.581,5.545,3.026,8.598,4.291 c0.78,0.181,0.181-0.836,0.86-0.746c1.152,0.121,1.693,0.77,2.581,1.119c-0.768,1.761-1.947,3.164-3.441,4.293 c-4.852-0.516-7.295-3.121-10.963-4.667c-0.761-0.1-0.528,0.663-1.289,0.561c-0.669-0.352-1.194-0.827-2.15-0.932 c-0.06-0.427,0.052-0.703,0.431-0.746c-0.368-0.679-1.256-0.902-1.936-1.308C46.437,31.579,48.023,30.077,48.761,28.771z"/>
    </g>
    <g>
      <path class="c1" d="M39.087,29.331c0,5.1,0,10.201,0,15.301c-1.577,0-3.153,0-4.729,0c-0.003-4.317-0.003-11.174,0-15.491 C35.887,29.246,37.909,28.922,39.087,29.331z"/>
    </g>
    <g>
      <path class="c1" d="M78.643,35.673c0.072,0.769,1.096,1.094,0.215,1.68c0.731,1.479,1.873,2.603,2.578,4.106 c0.342-0.017,0.82,0.088,0.861-0.187c0.406,0.455,0.959,0.784,0.857,1.678c-1.223,0.309-1.813,1.162-3.653,0.933 c-1.349-1.502-2.438-3.232-3.44-5.037c-2.1-0.022-0.965-1.755-1.72-2.799c1.107-0.379,2.908-1.967,3.44-0.188 C77.975,35.716,78.268,35.661,78.643,35.673z"/>
    </g>
    <g>
      <path class="c1" d="M61.658,42.018c-1.062,1.085-1.498,3.653-3.224,3.547c0.312,2.098-1.123,4.383-4.085,4.104 c-1.418-0.133-4.22-1.581-4.73-2.424c-0.792-1.312,0.137-2.332,0-4.106c-0.909,0.889-1.551,2.013-2.149,3.171 c-5.581-0.705-5.185-7.17-1.505-9.518C50.629,33.82,57.853,41.121,61.658,42.018z M46.827,40.527 c0.458,1.092,1.831,1.395,3.009,1.865C49.815,41.009,48.044,40.259,46.827,40.527z M56.285,45.005 c-0.885-1.099-2.506-1.558-3.87-2.24C52.75,44.205,54.977,45.61,56.285,45.005z"/>
    </g>
    <g>
      <path class="c1" d="M67.68,41.272c1.717,2.054,3.192,4.32,4.514,6.717c-0.375,0.921-1.627,1.078-2.58,1.493 c-1.455-1.848-2.438-4.104-4.084-5.783c0.47,1.894,2.406,4.129,3.654,5.97c-0.771,0.515-1.482,1.078-2.58,1.307 c-2.258-1.834-3.171-4.836-5.16-6.907c0.801-0.797,1.846-1.38,3.224-1.678C65.214,41.622,65.957,41.023,67.68,41.272z"/>
    </g>
    <g>
      <path class="c1" d="M105.083,50.603c-0.41,0.295-0.756,0.417-1.506,0.746c-0.339,0.148-1.188,0.199-1.504,0.374 c-1.071,0.588-0.804,1.69-2.796,1.492c-2.241-0.223-3.938-4.153-1.289-5.41c-1.086,0.114-1.73,0.612-2.365,1.119 c-3.652-2.339,1.312-7.555,4.943-5.225C102.346,44.838,103.73,49.018,105.083,50.603z M98.633,47.245 c-0.059-0.945-0.354-1.685-1.29-1.867C97.096,46.06,97.645,47.077,98.633,47.245z M100.998,50.79 c0.217-0.69-0.596-1.925-1.506-2.239C99.479,49.744,100.014,50.463,100.998,50.79z"/>
    </g>
    <g>
      <path class="c1" d="M55.21,51.535c-0.757,1.335-1.488,2.691-2.579,3.732c-4.39-1.477-7.37-4.176-12.039-5.411 c2.869,2.923,7.789,4.062,11.394,6.345c-0.534,1.588-1.714,2.617-2.366,4.106c-5.937-2.81-11.798-5.685-17.412-8.773 c0.506-1.486,1.447-2.599,2.365-3.73c1.604,0.1,2.317,0.973,3.44,1.492c1.115-6.725,6.655-3.27,10.963-1.119 C51.391,49.381,53.755,50.408,55.21,51.535z"/>
    </g>
    <g>
      <path class="c1" d="M83.371,50.603c-1.096,0.977-2.639,1.566-4.085,2.239c-0.862-0.371-0.718-1.617-1.72-1.865 c-1.028,3.802,4.635,1.358,7.309,2.238c1.396,0.461,3.452,2.942,3.439,4.852c-0.032,4.762-10.291,7.138-11.822,1.308 c1.453-0.542,2.326-1.588,4.084-1.868c1.211,0.256,1.025,1.725,2.148,2.055c1.399-0.566-0.18-1.964-0.858-2.427 c-6.209,0.958-10.527-1.519-9.675-5.599C72.965,47.842,82.844,45.436,83.371,50.603z"/>
    </g>
    <g>
      <path class="c1" d="M66.604,70.57c-1.318,1.093-3.034,1.846-4.944,2.425c-1.019-1.825-2.255-3.658-3.438-5.413 c-1.156-1.711-2.022-3.702-3.87-4.85c1.013,3.819,4.749,7.054,6.45,11.009c-1.813,0.604-2.962,1.784-4.945,2.239 c-2.696-4.315-5.534-8.508-8.384-12.688c1.094-1.183,3.608-2.854,5.375-2.24c0.308-1.387,1.935-2.974,4.944-2.613 C61.677,61.66,63.77,66.438,66.604,70.57z"/>
    </g>
    <g>
      <path class="c1" d="M45.537,63.477c-2.008,0.434-3.118,1.651-4.945,2.242c-0.254-0.901-1.036-1.343-1.289-2.242 C41.146,62.063,45.296,59.213,45.537,63.477z"/>
    </g>
    <g>
      <path class="c1" d="M88.314,62.359c5.924-0.802,7.096,2.166,7.096,7.649c0,2.27,0.413,5.131-0.432,6.906 c-1.463,3.079-9.207,3.396-10.748,0c-0.916-2.02-0.881-9.99,0-12.131C84.884,63.198,86.367,62.623,88.314,62.359z M89.174,65.158 c0.049,0.354-0.24,0.412-0.214,0.746c0.396,3.328-0.812,8.049,0.646,10.453c1.133-1.072,0.645-3.515,0.645-5.602 c0-2.085,0.488-4.525-0.645-5.598C89.462,65.158,89.316,65.158,89.174,65.158z"/>
    </g>
    <g>
      <path class="c1" d="M96.914,62.544c1.646,0,3.295,0,4.943,0c0,1.059,0,2.115,0,3.175c1.586-0.479,4.543-0.71,5.588,0.559 c2.056,2.49-0.205,8.924,0.646,12.502c-1.195,0.306-3.753,0.306-4.945,0c-0.379-3.523,0.791-8.396-0.645-11.01 c-1.465,2.441-0.245,7.532-0.646,11.01c-1.191,0.306-3.75,0.306-4.942,0C96.914,73.37,96.914,67.958,96.914,62.544z"/>
    </g>
    <g>
      <path class="c1" d="M45.537,63.852c1.867,1.01,2.84,3.203,4.083,5.039c1.712,2.523,3.295,5.078,4.944,7.648 c-1.28,1.191-3.131,1.885-4.944,2.618c-2.858-4.302-5.663-8.648-8.598-12.88C42.27,65.246,44.054,64.682,45.537,63.852z"/>
    </g>
    <g>
      <path class="c1" d="M33.927,69.826c1.724-1.055,3.056-2.809,6.235-2.057c3.207,3.498,5.577,7.722,8.169,11.758 c-1.004,1.306-2.932,1.809-4.516,2.611c-2.767-3.259-4.527-7.39-7.523-10.451c-0.015,2.078,1.668,3.896,2.794,5.602 c1.191,1.799,2.41,3.578,3.655,5.225c-1.188,1.207-3.258,1.649-4.729,2.611c-3.831-5.07-7.2-10.547-10.75-15.859 c1.412-0.83,2.94-1.557,4.514-2.24C33.003,67.518,33.494,68.646,33.927,69.826z"/>
    </g>
    <g>
      <path class="c1" d="M76.061,70.943c3.153-0.391,7.566,2.283,6.449,6.717c-0.541,2.154-3.863,3.24-6.664,4.665 c-2.521,1.284-4.693,3.235-8.166,2.612c-3.467-0.617-6.202-5.802-3.226-8.582c0.943-0.887,3.256-1.722,5.374-2.801 C72.277,72.307,73.729,71.23,76.061,70.943z M67.248,80.648c4.45-1.181,7.912-3.211,11.178-5.414 c-0.045-0.209-0.238-0.289-0.43-0.377C74.461,76.832,70.266,78.227,67.248,80.648z"/>
    </g>
    <g>
      <path class="c1" d="M27.48,73.184c0.666,0.019,0.612-0.588,1.504-0.375c0.379,0.729,0.909,1.325,1.289,2.051 c0.207,0.68-0.965,0.158-0.859,0.748c1.392,2.834,3.438,5.103,4.944,7.838c0.788,0.125,0.825-0.401,1.505-0.372 c0.554,0.765,1.292,1.366,1.505,2.427c-2.122,0.581-4.516,3.259-6.88,1.68c-2.325-1.555-4.294-7.299-6.018-8.957 c-1.648,0.913-1.821-0.968-2.579-1.865c-0.188-0.601,0.708-0.256,0.645-0.75c-0.154-0.674-0.706-1.002-0.86-1.676 C22.966,72.557,26.891,69.857,27.48,73.184z"/>
    </g>
    <g>
      <path class="c1" d="M84.016,84.753c1.699,0.782,3.325,2.702,2.148,4.853c-3.873,2.233-7.917,4.321-12.253,6.158 c-1.228-0.99-1.966-2.398-2.58-3.923c3.737-1.728,7.655-3.306,10.75-5.595c-4.042,0.72-7.366,3.682-11.394,5.036 c-0.918-1.132-1.58-2.485-2.58-3.548c4.322-2.65,9.133-4.883,13.974-7.086c0.467,1.334,1.448,2.224,2.149,3.358 C84.407,84.604,84.413,84.393,84.016,84.753z"/>
    </g>
    <g>
      <path class="c1" d="M61.874,86.246c1.218,0,2.436,0,3.655,0c0.377,0.722-0.014,2.04,1.074,1.68 c-0.146,0.805,0.49,2.29-0.858,2.051c0,1.989,0,3.981,0,5.973c0.054,0.388,0.942,0.05,1.073,0.373 c-0.06,0.635,0.166,1.511-0.215,1.867c-6.209,1.346-4.92-3.816-4.944-7.838c-0.378-0.604-1.187-0.836-0.859-2.055 C61.542,87.947,61.692,87.084,61.874,86.246z"/>
    </g>
    <g>
      <path class="c1" d="M60.799,93.15c-1.434,0-2.868,0-4.3,0c-0.497,0.627-0.076,2.048-0.214,2.984 c1.263-0.025,0.219-2.051,0.86-2.613c1.217,0,2.437,0,3.654,0c1.768,5.186-6.191,5.857-8.385,3.174 c-0.436-1.674,0.006-4.112-0.429-5.787c-0.722,2.111-0.427,5.105-1.076,7.279c-1.361,0-2.723,0-4.083,0 c-0.742-0.479-0.152-2.108-0.646-2.802c-0.331,0.839-0.354,1.935-0.644,2.802c-1.362,0-2.723,0-4.084,0 c-0.87-3.228-1.13-6.983-1.72-10.453c0.793-0.297,2.86-0.297,3.653,0c0.104,0.97-0.23,2.316,0.216,2.988 c0.459-0.783,0.755-1.707,0.645-2.988c0.771-0.385,2.325-0.092,3.439-0.183c0.466,0.839-0.037,2.519,0.43,3.355 c0.375-1.041,0.309-2.466,0.86-3.355c1.075,0,2.15,0,3.224,0c0.582,0.749-0.727,1.591,0,2.425 C52.866,85.87,62.935,86.604,60.799,93.15z M56.714,91.096c-0.066-0.562,0.238-1.451-0.43-1.49 C56.251,89.854,55.604,91.057,56.714,91.096z"/>
    </g>
    <g>
      <path class="c1" d="M59.079,77.848c1.029,1.223,1.914,2.567,2.58,4.105c-0.502,0.308-0.52,1.043-1.505,0.933 c-0.635,0.165,0.5,0.278,0.216,0.747c-0.851,0.193-1.085,0.924-2.149,0.934c-0.106-0.778-0.728-1.109-1.075-1.681 c0.314,1.296-1.093,3.091-3.011,2.427c-0.089,0.693-0.881,1.653-2.578,1.492c-0.861-1.863-2.927-2.685-3.224-5.039 c0.535-0.279,1.053-0.576,1.72-0.744c0.606,0.22,1.146,0.496,1.504,0.933c0.123-1.399,2.108-2.704,3.654-1.679 c0.697-0.325-0.558-0.488-0.215-1.117C56.549,78.886,56.909,77.578,59.079,77.848z M53.275,84.938 c-0.445-0.924-1.008-1.631-1.506-2.052C51.593,83.482,52.434,84.622,53.275,84.938z"/>
    </g>
    <g>
      <path class="c1" d="M74.128,38.474c1.312,0.886,1.787,1.738,2.793,3.358c0.511,0.819,1.085,1.605,1.075,2.238 c-0.032,2.179-3.911,3.965-5.805,2.614c-1.162-0.828-3.338-4.407-3.225-5.599C69.141,39.281,71.146,38.271,74.128,38.474z M72.623,41.646c0.35-0.604-0.122-0.978-0.859-1.119C71.895,41.033,72.188,41.401,72.623,41.646z M73.48,43.324 c0.77,0.389,0.586,1.606,1.721,1.681c0.048-0.939-1.71-1.923-0.215-2.425C74.387,42.15,73.854,42.976,73.48,43.324z"/>
    </g>
    <g>
      <path class="c1" d="M92.4,46.124c0.927,1.727,4.736,5.312,5.373,7.651c0.795,2.923-4.527,5.659-6.879,3.172 c0.233-0.667,1.361-0.558,1.719-1.119c-0.397-0.57-1.021,0.215-1.719,0c-1.914-1.797-4.342-4.023-4.084-7.093 C88.74,47.924,90.577,47.031,92.4,46.124z M93.045,53.214c-0.396-1.148-1.359-3.419-3.01-4.104 C90.809,50.57,91.719,52.852,93.045,53.214z M93.475,55.455c0.674-0.094,0.84,0.407,1.289,0c0.09-0.452-0.393-0.405-0.215-0.934 C93.782,54.479,93.425,54.789,93.475,55.455z"/>
    </g>
    <g>
      <path class="c1" d="M67.032,68.891c0.612-0.586,1.819-0.658,2.364-1.309c-0.508-0.428-1.93-0.064-2.795-0.188 c-2.712-3.053-5.908-5.692-6.232-10.82c0.885-1.057,2.625-2.297,4.729-1.678c0.427-1.932,3.056-1.952,4.298-3.174 c0.35-0.053,0.371,0.174,0.646,0.187c0.858,1.25,2.222,3.731,3.869,6.157c1.577,2.32,4.205,4.636,4.3,7.091 c0.109,2.866-3.406,5.327-6.663,5.786C69.236,71.27,67.691,70.523,67.032,68.891z M68.107,60.866 c0.651,0.963,1.209,2.285,2.365,2.611c-0.216-2.434-2.832-4.375-3.871-6.716c-0.215,0-0.43,0-0.645,0 C66.127,58.23,67.199,59.524,68.107,60.866z M70.688,67.025c0.854-0.721,1.107,0.123,2.363,0 c0.039-0.844-0.211-1.436-0.859-1.683C72.035,65.814,70.77,66.648,70.688,67.025z"/>
    </g>
    <g>
      <path class="c1" d="M91.971,83.258c2.053-1.035,4.812,0.315,3.867,2.428c0.53-0.729,1.926-0.986,2.795-0.748 c2.691,0.744,0.454,4.5-0.859,5.414c-2.631,0.385-3.56-1.166-3.438-2.615c-0.783,1.168-2.798,0.578-3.653-0.184 c-0.226-0.429-0.137-1.126-0.432-1.494c-2.123,1.893-5.732-2.328-2.15-2.613C86.34,80.198,93.34,80.436,91.971,83.258z M91.109,84.938c-0.103-0.584,0.58-0.492,0.645-0.93c-0.275-0.097-1.286-0.474-1.29-0.189 C90.93,83.979,90.646,84.781,91.109,84.938z"/>
    </g>
  </g>
</svg>
