<svg id="icon-line_graph_2Ã" xmlns="http://www.w3.org/2000/svg" viewBox="0 0 130 130">
  <style>
    .bg {
      fill: hsl(280, 84%, 31%);
    }
    .c1 {
      fill: #FFFFFF;
    }
  </style>
  <g>
   <circle class="bg" cx="65" cy="65" r="64"/>
  </g>
  <g>
    <g>
      <path class="c1" d="M96.2,94.5H32.5V36.8c0-0.7,0.6-1.3,1.3-1.3c0.7,0,1.3,0.6,1.3,1.3v55h61.1c0.7,0,1.3,0.6,1.3,1.3
      			C97.5,93.9,96.9,94.5,96.2,94.5z"/>
    </g>
    <g>
      <path class="c1" d="M42.2,84.3c-0.2,0-0.4,0-0.5-0.1c-0.6-0.3-0.8-1-0.5-1.6L49.6,67c0.2-0.4,0.6-0.7,1.1-0.7
      			c0.4,0,0.9,0.2,1.1,0.6l6.9,10.5l5.9-16.3c0.2-0.4,0.6-0.6,1-0.6c0.4,0,0.8,0.1,1.1,0.5l6.6,9.8l8.6-24.6c0.2-0.4,0.6-0.7,1.1-0.7
      			c0.5,0,0.9,0.2,1.1,0.6l8.3,18.5c0.3,0.6,0.1,1.3-0.5,1.7c-0.6,0.3-1.3,0.1-1.7-0.5L83,49.4l-8.4,24.5c-0.2,0.4-0.5,0.7-1,0.7
      			c-0.4,0.1-0.9-0.1-1.1-0.5l-6.7-9.2l-6.1,15.6c-0.2,0.4-0.6,0.6-1.1,0.6c0,0,0,0,0,0c-0.4,0-0.8-0.2-1.1-0.6l-6.8-10.4l-7.5,13.5
      			C43,84.1,42.6,84.3,42.2,84.3z"/>
    </g>
  </g>
</svg>
