<svg id="icon-voronoi" xmlns="http://www.w3.org/2000/svg" viewBox="0 0 130 130">
  <style>
    .bg {
      fill: hsl(280, 84%, 31%);
    }
    .c1 {
      fill: #FFFFFF;
    }
  </style>
  <g>
   <circle class="bg" cx="65" cy="65" r="64"/>
  </g>
  <path class="c1" d="M98.5,83.8V62.2V48V32.3c0-0.1,0-0.1,0-0.2c0,0,0,0,0,0c0,0,0,0,0,0c0-0.1-0.1-0.2-0.1-0.3c0,0,0,0,0-0.1
  	c0-0.1-0.1-0.1-0.1-0.2c0,0,0,0-0.1-0.1c0,0,0,0-0.1,0c0,0-0.1,0-0.1-0.1c0,0,0,0-0.1,0c-0.1,0-0.2,0-0.3-0.1c0,0,0,0,0,0H70.8H32.5
  	c-0.1,0-0.1,0-0.2,0c0,0,0,0,0,0c0,0,0,0,0,0c-0.1,0-0.2,0.1-0.3,0.1c0,0,0,0-0.1,0c-0.1,0-0.1,0.1-0.2,0.1c0,0,0,0-0.1,0.1
  	c0,0,0,0,0,0.1c0,0,0,0.1-0.1,0.1c0,0,0,0,0,0.1c0,0.1,0,0.2-0.1,0.3c0,0,0,0,0,0v27.4v22v15.6c0,0.6,0.4,1,1,1h14.7
  	c0.1,0,0.1,0,0.2,0h20.2h13.9l16,0c0,0,0,0,0,0c0.3,0,0.5-0.1,0.7-0.3s0.3-0.4,0.3-0.7L98.5,83.8z M66.7,96.3H48.9l3.4-5.9l15.6-4.4
  	l-1.1,9.7L66.7,96.3z M76.9,37.3l5.2,3.2l4.6,12.4l-5.6,9.5l-6.6-4.3L62.1,50l3.8-6.9l5.2-9.4L76.9,37.3z M96.5,61.3l-13.2,1.3
  	l5.2-8.8l8-4.1V61.3z M46.9,63.8l-12.4-4.5l8-6.7l15.9-1L46.9,63.8z M46.3,65.7l4,22.1L33.5,81V61.1L46.3,65.7z M52.4,88.2l-4-21.8
  	l24.4,8.2l-4.5,9.1L52.4,88.2z M73.9,72.8L49,64.5l12-12.9l15.6,10.2l3.5,2.3l-3.9,5.5L73.9,72.8z M96.5,47.4l-8.2,4.2l-2.7-7.3
  	l-1.5-4l12.3-6.4V47.4z M83,38.7L75.4,34l-1.1-0.7h19.1L83,38.7z M40.8,51.3l-7.3,6.2V36.6L40.8,51.3z M75.8,73.6l1.9-2.8l4.3-6
  	l14.5-1.5v19L75.8,73.6z M60.2,49.4l-8,0.5l-9.5,0.6l-3.6-7.2l-5-10.1h34.9L60.2,49.4z M33.5,83.2L50.2,90l-3.6,6.3H33.5V83.2z
  	 M68.7,96.3L70,84.8l3.6-7.2l0.5-0.9l6,19.6H68.7z M82.2,96.3l-6.3-20.4l20.6,8.6l0,11.8L82.2,96.3z"/>
</svg>
