<svg id="icon-data_over_time" xmlns="http://www.w3.org/2000/svg" viewBox="0 0 170 170">
  <style>
    .bg {
      fill: hsl(312, 100%, 31%);
    }
    .c1 {
      fill: #FFFFFF;
    }
  </style>
  <circle class="bg" cx="85" cy="85" r="84.5"/>
  <g>
    <path class="c1" d="M143.514,87.688H23.609c-1.381,0-2.5-1.119-2.5-2.5c0-1.381,1.119-2.5,2.5-2.5h119.905 c1.381,0,2.5,1.119,2.5,2.5C146.014,86.568,144.895,87.688,143.514,87.688z"/>
    <g>
      <circle class="c1" cx="81.2" cy="85.2" r="11"/>
      <circle class="bg" cx="81.2" cy="85.2" r="6"/>
    </g>
    <path class="c1" d="M132.175,100.749c-0.637,0-1.272-0.241-1.761-0.725c-0.98-0.973-0.986-2.556-0.015-3.536L141.794,85 l-11.395-11.489c-0.972-0.98-0.966-2.563,0.015-3.535c0.981-0.972,2.562-0.966,3.536,0.015L148.835,85l-14.885,15.01 C133.461,100.502,132.818,100.749,132.175,100.749z"/>
  </g>
</svg>
