<svg id="icon-circular_tree_diagram" xmlns="http://www.w3.org/2000/svg" viewBox="0 0 130 130">
  <style>
    .bg {
      fill: hsl(280, 84%, 31%);
    }
    .c1 {
      opacity: 0.5;
    }
    .c2 {
      fill: #FFFFFF;
    }
  </style>
  <circle class="bg" cx="65" cy="65" r="64"/>
  <g>
    <g class="c1">
      <path class="c2" d="M65.2,105.6c-22.1,0-40-18-40-40s18-40,40-40s40,18,40,40S87.3,105.6,65.2,105.6z M65.2,26.8
      			c-21.4,0-38.8,17.4-38.8,38.8s17.4,38.8,38.8,38.8S104,87,104,65.6S86.6,26.8,65.2,26.8z"/>
    </g>
    <g class="c1">
      <path class="c2" d="M65.2,87.1c-11.8,0-21.5-9.6-21.5-21.5s9.6-21.5,21.5-21.5s21.5,9.6,21.5,21.5S77.1,87.1,65.2,87.1z
      			 M65.2,45.4C54.1,45.4,45,54.4,45,65.6c0,11.2,9.1,20.2,20.2,20.2c11.2,0,20.2-9.1,20.2-20.2C85.5,54.4,76.4,45.4,65.2,45.4z"/>
    </g>
    <path class="c2" d="M100.3,79.7c-1.7,0-3.1,1-3.7,2.5l-12.7-2.2c-0.1-2.1-1.9-3.8-4-3.8c-0.8,0-1.5,0.2-2.1,0.6l-9-9
    		c0.4-0.6,0.6-1.3,0.6-2.1c0-1.9-1.3-3.5-3.1-3.9v-13c1.8-0.4,3.1-2,3.1-3.9c0-1.4-0.7-2.6-1.7-3.3l4.2-10.8c0.2,0,0.4,0.1,0.6,0.1
    		c2.2,0,4.1-1.8,4.1-4.1c0-2.2-1.8-4.1-4.1-4.1c-2.2,0-4.1,1.8-4.1,4.1c0,1.4,0.7,2.6,1.8,3.3l-4.2,10.8c-0.2,0-0.4-0.1-0.6-0.1
    		c-0.3,0-0.5,0-0.8,0.1l-4.9-11c1-0.7,1.6-1.9,1.6-3.2c0-2.2-1.8-4.1-4.1-4.1s-4.1,1.8-4.1,4.1c0,2.2,1.8,4.1,4.1,4.1
    		c0.3,0,0.5,0,0.8-0.1l4.9,11c-1,0.7-1.6,1.9-1.6,3.2c0,1.9,1.3,3.5,3.1,3.9v13c-1.8,0.4-3.1,2-3.1,3.9c0,0.8,0.2,1.5,0.6,2.1
    		L53,76.5c-0.6-0.4-1.3-0.6-2.1-0.6c-1.9,0-3.6,1.4-4,3.2l-14.3,0.3c-0.1-0.3-0.2-0.7-0.4-1c-1.1-1.9-3.6-2.6-5.5-1.5
    		c-1.9,1.1-2.6,3.6-1.5,5.5c1.1,1.9,3.6,2.6,5.5,1.5c1-0.6,1.7-1.6,1.9-2.7L47,80.9c0,0.1,0.1,0.2,0.1,0.4l-9.7,6.4
    		c-1.3-1.2-3.2-1.5-4.8-0.6c-1.9,1.1-2.6,3.6-1.5,5.5c1.1,1.9,3.6,2.6,5.5,1.5c1.7-1,2.4-3.1,1.8-4.9l9.7-6.4
    		c0.1,0.1,0.3,0.2,0.4,0.3l-4.5,11c-0.2,0-0.4-0.1-0.6-0.1c-2.2,0-4.1,1.8-4.1,4.1c0,2.2,1.8,4.1,4.1,4.1c2.2,0,4.1-1.8,4.1-4.1
    		c0-1.4-0.7-2.6-1.7-3.3l4.5-11c0.1,0,0.1,0,0.2,0l1.9,15.7c-1.6,0.6-2.7,2-2.7,3.8c0,2.2,1.8,4.1,4.1,4.1c2.2,0,4.1-1.8,4.1-4.1
    		c0-2.1-1.6-3.8-3.6-4l-1.9-15.7c1.6-0.6,2.7-2,2.7-3.8c0-0.8-0.2-1.5-0.6-2.1l8.8-8.8c0.6,0.4,1.3,0.6,2.1,0.6s1.5-0.2,2.1-0.6l9,9
    		c-0.4,0.6-0.6,1.3-0.6,2.1c0,2.1,1.7,3.9,3.8,4L81.6,97c-1.5,0.6-2.5,2.1-2.5,3.7c0,2.2,1.8,4.1,4.1,4.1c2.2,0,4.1-1.8,4.1-4.1
    		c0-2.1-1.7-3.9-3.8-4l-2.1-12.9c0.2-0.1,0.4-0.2,0.6-0.3l7.8,7.8c-0.4,0.6-0.6,1.3-0.6,2.1c0,2.2,1.8,4.1,4.1,4.1
    		c2.2,0,4.1-1.8,4.1-4.1s-1.8-4.1-4.1-4.1c-0.8,0-1.5,0.2-2.1,0.6l-7.8-7.8c0.1-0.2,0.2-0.3,0.3-0.5L96.2,84c0.1,2.1,1.9,3.8,4,3.8
    		c2.2,0,4.1-1.8,4.1-4.1S102.5,79.7,100.3,79.7z"/>
  </g>
</svg>
