<svg id="icon-hive_plot" xmlns="http://www.w3.org/2000/svg" viewBox="0 0 130 130">
  <style>
    .bg {
      fill: hsl(280, 84%, 31%);
    }
    .c1 {
      fill: #FFFFFF;
    }
  </style>
  <g>
    <ellipse class="bg" transform="matrix(0.9999 -1.234664e-02 1.234664e-02 0.9999 -0.7976 0.8075)" cx="65" cy="65" rx="64" ry="64"/>
  </g>
  <path class="c1" d="M104.1,38.8c-0.6-1-1.9-1.4-2.9-0.8l-7.7,4.2c-4.3-2.5-14.7-7.4-23.9-3.9c-2.5,0.9-4.6,2.4-6.5,4.4
  	c-6.7-1.1-13,2.8-16,5.1l-18.1-9.9c-1-0.6-2.3-0.2-2.9,0.8c-0.6,1-0.2,2.3,0.8,2.9l12.4,6.8c-3.2,13.8-2,25.5,3.6,34.5
  	c6.1,9.9,16,14.1,20.2,15.5v5.9c0,1.2,1,2.1,2.1,2.1s2.1-1,2.1-2.1V91c3.8-0.6,12-2.8,18.3-10.1c6.8-7.9,9.5-19.3,8.2-34.1l9.5-5.2
  	C104.2,41.1,104.6,39.8,104.1,38.8z M69.9,39.3c8.3-3.1,17.9,1.1,22.4,3.5l-17.2,9.4c-3-5-6.7-8.1-10.9-9.2
  	C65.9,41.3,67.8,40.1,69.9,39.3z M65.1,63.7c-1.2,0-2.1,1-2.1,2.1v13.4c-3.6-1.3-6.4-3.5-8.2-6.5c-3.5-5.9-2.7-13.5-2.1-16.9
  	l6.9,3.8c0.3,0.2,0.7,0.3,1,0.3c0.8,0,1.5-0.4,1.9-1.1c0.6-1,0.2-2.3-0.8-2.9l-3.7-2c1.3-4.2,3.1-7.5,5.4-10
  	c4.2,0.9,7.8,3.8,10.8,8.8l-5.8,3.2c-1,0.6-1.4,1.9-0.8,2.9c0.4,0.7,1.1,1.1,1.9,1.1c0.3,0,0.7-0.1,1-0.3l13.5-7.4
  	C81.2,70,71.6,73.3,67.3,73.9v-8.1C67.3,64.7,66.3,63.7,65.1,63.7z M62.1,43.7c-2.1,2.5-3.8,5.7-5.1,9.7l-9.1-5
  	C50.9,46.2,56.4,43.1,62.1,43.7z M43.6,82.4c-5.4-8.8-6.6-20-3.5-33.5l11.6,6.4c-0.6,3.3-1.7,11.5,2.1,17.9c2,3.4,5.1,5.7,9.1,7.1
  	v16.9C58.7,95.9,49.5,91.9,43.6,82.4z M84.8,80.2c-6,7-13.8,9.1-17.5,9.7V75c1.7-0.2,4.2-0.8,6.9-2.5c4.1-2.6,9.3-8.3,11-20.8
  	l7.6-4.2C94,61.6,91.3,72.7,84.8,80.2z"/>
</svg>
