<svg id="icon-donut_chart" xmlns="http://www.w3.org/2000/svg" viewBox="0 0 130 130">
  <style>
    .bg {
      fill: hsl(280, 84%, 31%);
    }
    .c1 {
      fill: #FFFFFF;
    }
  </style>
  <circle class="bg" cx="65" cy="65" r="64"/>
  <g>
    <path class="c1" d="M92.631,35.828c-6.876-6.381-15.999-10.366-26.057-10.65v20.391c4.433,0.262,8.465,1.975,11.627,4.69
      		L92.631,35.828z"/>
    <path class="c1" d="M94.752,37.949l-14.43,14.431c2.944,3.431,4.736,7.881,4.744,12.76c-0.008,5.065-1.944,9.663-5.093,13.142
      		l14.422,14.422c6.83-7.173,11.031-16.873,11.036-27.564C105.427,54.634,101.372,45.083,94.752,37.949z"/>
    <path class="c1" d="M77.81,80.359c-3.376,2.747-7.678,4.401-12.372,4.41c-7.322-0.014-13.689-4.028-17.063-9.969L30.637,84.828
      		c6.87,12.117,19.873,20.296,34.802,20.301c10.321-0.003,19.723-3.911,26.815-10.326L77.81,80.359z"/>
    <path class="c1" d="M47.102,72.074c-0.819-2.158-1.29-4.489-1.294-6.935c0.019-10.211,7.804-18.58,17.766-19.534v-20.41
    		c-21.224,0.981-38.118,18.478-38.127,39.943c0.002,6.091,1.371,11.86,3.805,17.025L47.102,72.074z"/>
  </g>
</svg>
