<svg id="icon-dot_graph" xmlns="http://www.w3.org/2000/svg" viewBox="0 0 130 130">
  <style>
    .bg {
      fill: hsl(280, 84%, 31%);
    }
    .c1 {
      fill: #FFFFFF;
    }
  </style>
  <circle class="bg" cx="65" cy="65" r="64"/>
  <g>
    <path class="c1" d="M52.8,73.1c1.9,0,3.4-1.5,3.4-3.4c0-1.9-1.5-3.4-3.4-3.4c-1.9,0-3.4,1.5-3.4,3.4
      		C49.4,71.6,50.9,73.1,52.8,73.1z"/>
    <path class="c1" d="M77.3,54.2c1.9,0,3.4-1.5,3.4-3.4c0-1.9-1.5-3.4-3.4-3.4c-1.9,0-3.4,1.5-3.4,3.4C74,52.6,75.5,54.2,77.3,54.2z
      		"/>
    <path class="c1" d="M96.2,92.3H78.6v-4.2c0-0.7-0.6-1.3-1.3-1.3c-0.7,0-1.3,0.6-1.3,1.3v4.2h-22v-4.2c0-0.7-0.6-1.3-1.3-1.3
    		c-0.7,0-1.3,0.6-1.3,1.3v4.2H35.1V36.4c0-0.7-0.6-1.3-1.3-1.3c-0.7,0-1.3,0.6-1.3,1.3v58.4h63.7c0.7,0,1.3-0.6,1.3-1.3
    		C97.5,92.9,96.9,92.3,96.2,92.3z"/>
  </g>
</svg>
