<svg id="icon-relationships" xmlns="http://www.w3.org/2000/svg" viewBox="0 0 170 170">
  <style>
    .bg {
      fill: hsl(312, 100%, 31%);
    }
    .c1 {
      fill: none;
      stroke: #FFFFFF;
      stroke-width: 6px;    }
    .c2 {
      fill: #FFFFFF;
    }
  </style>
  <circle class="bg" cx="85" cy="85" r="84.5"/>
  <g>
    <circle class="c1 c2" cx="52" cy="85" r="23"/>
    <circle class="c1" cx="118" cy="85" r="23"/>
    <g>
      <path class="c2" d="M54.202,52.427c-0.365,0-0.73-0.132-1.02-0.4c-0.607-0.563-0.643-1.512-0.08-2.12
      			c0.421-0.453,10.496-11.079,28.641-10.908c18.065,0.21,27.214,9.028,27.595,9.403c0.59,0.582,0.597,1.531,0.016,2.122
      			c-0.583,0.589-1.532,0.596-2.121,0.015c-0.083-0.081-8.741-8.345-25.525-8.54c-0.161-0.002-0.323-0.003-0.483-0.003
      			c-16.506,0-25.829,9.85-25.922,9.951C55.007,52.265,54.604,52.427,54.202,52.427z"/>

      <path class="c2" d="M98.763,52.694c-0.815,0-1.483-0.653-1.499-1.472c-0.016-0.829,0.644-1.513,1.472-1.528l9.373-0.176
      			l-0.882-8.556c-0.085-0.824,0.515-1.561,1.339-1.646c0.806-0.089,1.56,0.514,1.646,1.338l1.216,11.802l-12.635,0.236
      			C98.782,52.694,98.772,52.694,98.763,52.694z"/>
    </g>
    <g>
      <path class="c2" d="M86.864,131.005c-0.175,0-0.348-0.001-0.524-0.003c-18.063-0.21-27.215-9.029-27.596-9.404
      			c-0.59-0.582-0.597-1.531-0.015-2.121c0.582-0.59,1.531-0.598,2.122-0.016c0.083,0.081,8.742,8.347,25.525,8.541
      			c16.897,0.236,28.393-9.944,28.507-10.047c0.617-0.554,1.564-0.501,2.118,0.116c0.553,0.616,0.501,1.564-0.116,2.118
      			C116.387,120.635,104.611,131.005,86.864,131.005z"/>
      <path class="c2" d="M59.361,130.691c-0.759,0-1.411-0.574-1.49-1.347l-1.216-11.803l12.635-0.235
      			c0.833-0.002,1.512,0.644,1.527,1.472c0.016,0.829-0.643,1.513-1.472,1.528l-9.373,0.175l0.882,8.557
      			c0.085,0.823-0.514,1.561-1.338,1.646C59.464,130.688,59.412,130.691,59.361,130.691z"/>
    </g>
  </g>


</svg>
