<svg id="icon-timeline" xmlns="http://www.w3.org/2000/svg" viewBox="0 0 130 130">
  <style>
    .bg {
      fill: hsl(280, 84%, 31%);
    }
    .c1 {
      fill: #FFFFFF;
    }
  </style>
  <circle class="bg" cx="65" cy="65" r="64"/>
  <g>
    <rect class="c1" x="19.087" y="63.639" width="88.487" height="3"/>
    <g>
      <circle class="bg" cx="42.462" cy="65.139" r="5.565"/>
      <path class="c1" d="M42.462,72.204c-3.896,0-7.065-3.169-7.065-7.065c0-3.896,3.169-7.065,7.065-7.065 c7.065,3.169,7.065,7.065C49.527,69.035,46.357,72.204,42.462,72.204z M42.462,61.074c-2.241,0-4.065,1.824-4.065,4.065 c0,2.242,1.824,4.065,4.065,4.065s4.065-1.823,4.065-4.065C46.527,62.898,44.703,61.074,42.462,61.074z"/>
    </g>
    <g>
      <circle class="bg" cx="74.738" cy="65.139" r="5.565"/>
      <path class="c1" d="M74.738,72.204c-3.896,0-7.064-3.169-7.064-7.065c0-3.896,3.169-7.065,7.064-7.065 c3.896,0,7.066,3.169,7.066,7.065C81.805,69.035,78.635,72.204,74.738,72.204z M74.738,61.074c-2.241,0-4.064,1.824-4.064,4.065 c0,2.242,1.823,4.065,4.064,4.065c2.242,0,4.066-1.823,4.066-4.065C78.805,62.898,76.98,61.074,74.738,61.074z"/>
    </g>
    <polygon class="c1" points="100.271,75.834 98.141,73.721 106.792,65 98.142,56.279 100.271,54.167 111.017,65 	"/>
  </g>
</svg>
