<svg id="icon-sankey_diagram" xmlns="http://www.w3.org/2000/svg" viewBox="0 0 130 130">
  <style>
    .bg {
      fill: hsl(280, 84%, 31%);
    }
    .c1 {
      fill: #FFFFFF;
    }
  </style>
  <circle class="bg" cx="65" cy="65" r="64"/>
  <g>
    <path class="c1" d="M93.782,51.739c-0.732-0.289-0.125-2.827-0.319-3.611c-9.793,0.02-20.098-0.091-29.172,0.152
          c17.73,4.932,28.871,15.946,29.172,36.965c1.877,0.448,4.885-0.146,6.76,0.304c-0.076,1.301-1.453,2.025-2.309,2.74
          c-5.271,4.427-10.729,8.873-16.316,13.54c-0.832,0.692-2.322,1.944-2.968,1.978c-1.267,0.062-5.063-3.377-5.933-4.105
          c-4.662-3.909-10.183-7.516-14.842-11.411c-0.819-0.685-2.259-1.323-2.308-2.584c1.437-0.704,5.44-0.11,7.424-0.308
          c0.111-2.67-0.593-5.14-1.648-6.847c-4.735-7.651-21.538-4.397-33.127-5.021c-0.275-11.154-0.274-23.375,0-34.531
          c21.372-0.355,43.457-0.053,65.103-0.154c0.381-0.409,0.059-2.628,0.164-3.29c-0.006-0.261,0.123-0.394,0.331-0.458
          c1.052,0.874,2.821,2.71,4.052,4.065c0.567,0.628,1.803,1.77,2.51,2.432c0.475,0.44,1.604,1.471,1.65,1.825
          c0.137,1.099-3.076,4.027-3.773,4.741c-0.711,0.727-1.525,1.433-2.142,2.057C95.523,50.791,94.848,51.766,93.782,51.739z"/>
  </g>
</svg>
