<svg id="icon-horizon_plot" xmlns="http://www.w3.org/2000/svg" viewBox="0 0 130 130">
  <style>
    .bg {
      fill: hsl(280, 84%, 31%);
    }
    .c1 {
      fill: #F2F2F2;
    }
  </style>
  <circle class="bg" cx="65" cy="65" r="64"/>
  <g>
    <path class="c1" d="M105,51.7l0-15.1l-3.7,9.9l-2.2-4.1l-2.2,3.4l-3.3-4.5l-4.3,6.5l-2.8-6.5l-2.5,3.6l-3.2-5.3l-2,1.3l-4.3,4.4
      		l-4.3-7.8l-3.1,4.7l-4.4-6.8h-4.8l-2.8,1.9l-2.4-1.9h-6.4l-2.8,5.5l-2.2-3.5l-1.8,6L37,39.7l-2.7-2.2l-2.7,4.6l-1.7-2.9l-2.6,4.2
      		L25,38.7v19.8h0c0,1.7,0,3.6,0,3.6l80-0.1L105,51.7L105,51.7z M25.5,40.8l1.4,2.8l0.4,0.8l0.5-0.8l2.1-3.5l1.3,2.2l0.4,0.7l0.4-0.7
      		l2.4-4.1l2.2,1.8l2.4,3.6l0.6,0.9l0.3-1l1.5-4.9l1.6,2.6l0.5,0.7l0.4-0.8l2.7-5.2h5.9l2.3,1.8l0.3,0.2l0.3-0.2l2.7-1.8h4.4l4.3,6.6
      		l0.4,0.6l0.4-0.6l2.7-4l4,7.1l0.3,0.6l0.5-0.5l4.3-4.4l1.5-1l2.9,4.9l0.4,0.7l0.4-0.6l1.9-2.8l2.5,5.7l0.4,0.9l0.5-0.8l3.9-5.9
      		l2.9,3.9l0.4,0.6l0.4-0.6l1.7-2.7l1.8,3.4l0.5,1l0.4-1l2.7-7.3l0,13.2l-1.5,2.9l-2.1-4.6l-2.3,5.3l-4.7-11.6l-4.3,10.4l-2.2-5.4
      		l-2.1,6.9l-4.6-11.9L75,53.2l-4.5-6.4l-3.5,4.7l-1.7-6.8l-1.7,6.1l-1.6-3.4l-1.8,5.1L57.2,48l-3.5,7.2l-7.9-15.1L39.5,53l-5.1-7.8
      		l-3,5.3l-1.6-3.4l-1.5,5.8l-0.9-1.8l-2,3.7V40.8z"/>
    <path class="c1" d="M98.6,69.7l-3.1,3.8l-2.1-5.4h-4.2l-2,3.1L85.7,69l-2.1,3.8l-3-4.1l-2.9,5.4l-4-4.7l-3.1,4.8l-2.6-6h-5.1
    		l-4.4,8.4L54.3,71l-4.1,6.4l-2.4-4.6l-2.4,4.9l-4.5-7.6l-2.5,4.8L35,68.7l-1.1,2.2l-2.3-2.8h-3.2L25,73.4v8.8v5.2l0,0.6l0,6.6h80
    		v-0.3V83.1V70.7l-3.4,5.5L98.6,69.7z M104.5,72.5v12.6l-0.4,1.8l-3.4-6.3l-3,6.7l-2.7-7.9l-1.8,3.5L89,72.9L84.3,79l-4-7.2
    		l-2.4,7.7l-4.7-5.6l-5.2,10.8l-2.6-4.4l-3.5,8.9l-1.7-2.2l-2.7,4.1L51,79.5l-5.2,10l-3.6-6.2L38.5,92l-6.5-9l-1.9,2.9l-4.6-4.1
    		v-8.2l3.2-4.9h2.7l2.2,2.6l0.5,0.6l0.3-0.7l0.7-1.3l3,5.4l0.5,0.8l0.4-0.8l2-4L45,78l0.5,0.8l0.4-0.8l1.9-4l2,3.7l0.4,0.8l0.5-0.7
    		l3.7-5.8l3.7,5l0.5,0.6l0.4-0.7l4.3-8.2h4.5l2.5,5.7l0.4,0.9l0.5-0.8l2.7-4.2l3.6,4.2l0.5,0.6l0.3-0.6l2.5-4.7l2.5,3.5l0.5,0.6
    		L84,73l1.7-3.1l1.2,1.6l0.4,0.6l0.4-0.6l1.8-2.9h3.6l2,5.1l0.3,0.8l0.5-0.7l2.6-3.2l2.7,5.8l0.4,0.8l0.5-0.8L104.5,72.5z"/>
  </g>
</svg>
