<svg id="icon-pictogram_2" xmlns="http://www.w3.org/2000/svg" viewBox="0 0 130 130">
  <style>
    .bg {
      fill: hsl(280, 84%, 31%);
    }
    .c1 {
      fill: #FFFFFF;
    }
  </style>
  <circle class="bg" cx="65" cy="65" r="64"/>
  <g>
    <polygon class="c1" points="36.8,32.9 39.9,37.8 45.6,39.2 41.8,43.7 42.2,49.5 36.8,47.4 31.4,49.5 31.8,43.7 28.1,39.2
      		33.7,37.8 	"/>
    <polygon class="c1" points="57.8,32.9 60.9,37.8 66.6,39.2 62.9,43.7 63.3,49.5 57.8,47.4 52.4,49.5 52.8,43.7 49.1,39.2
      		54.7,37.8 	"/>
    <rect class="c1" x="28.9" y="59.1" width="14.1" height="14.1"/>
    <rect class="c1" x="49.1" y="59.1" width="14.1" height="14.1"/>
    <rect class="c1" x="69.5" y="59.1" width="14.1" height="14.1"/>
    <rect class="c1" x="89.8" y="59.1" width="14.1" height="14.1"/>
    <polygon class="c1" points="36,80.8 29.1,95.1 42.9,95.1"/>
    <polygon class="c1" points="56.2,80.8 49.3,95.1 63.1,95.1"/>
    <polygon class="c1" points="76.5,80.8 69.6,95.1 83.4,95.1"/>
  </g>
</svg>
