<svg id="icon-arc_diagram" xmlns="http://www.w3.org/2000/svg" viewBox="0 0 130 130">
  <style>
    .bg {
      fill: hsl(280, 84%, 31%);
    }
    .c1 {
      fill: #FFFFFF;
    }
  </style>
  <circle class="bg" cx="65" cy="65" r="64"/>
  <g>
    <path class="c1" d="M19.904,79.863c0.271-18.081,14.962-32.632,33.1-32.665c18.139,0.033,32.829,14.584,33.102,32.665h3.34 C89.202,59.938,72.986,43.86,53.004,43.858C33.02,43.86,16.805,59.938,16.563,79.863H19.904z"/>
    <path class="c1" d="M63.321,79.863c0.263-12.854,10.716-23.18,23.628-23.204c12.912,0.024,23.365,10.35,23.628,23.204h3.353 C113.688,65.162,101.705,53.32,86.95,53.32c-14.757,0-26.738,11.842-26.981,26.543H63.321z"/>
    <path class="c1" d="M19.414,79.863c0.792-7.719,7.298-13.729,15.224-13.741c7.923,0.013,14.427,6.022,15.219,13.741h3.341 c-0.795-9.565-8.794-17.081-18.561-17.083c-9.772,0.002-17.771,7.518-18.567,17.083H19.414z"/>
    <path class="c1" d="M52.863,79.863c0.747-4.324,4.499-7.612,9.037-7.62c4.538,0.008,8.292,3.296,9.036,7.62h3.381 c-0.771-6.178-6.028-10.959-12.417-10.961c-6.387,0.002-11.642,4.783-12.414,10.961H52.863z"/>
    <path class="c1" d="M21.737,79.863c0.713-3.088,3.468-5.389,6.772-5.395c3.304,0.006,6.058,2.307,6.771,5.395h3.395 c-0.757-4.943-5.012-8.732-10.166-8.735c-5.153,0.003-9.41,3.792-10.164,8.735H21.737z"/>
    <path class="c1" d="M88.357,79.863c0.238-3.631,3.244-6.5,6.934-6.508c3.691,0.008,6.695,2.877,6.934,6.508h3.342 c-0.239-5.478-4.738-9.846-10.274-9.848c-5.535,0.002-10.035,4.37-10.272,9.848H88.357z"/>
  </g>
</svg>
