<svg id="icon-slopegraph" xmlns="http://www.w3.org/2000/svg" viewBox="0 0 130 130">
  <style>
    .bg {
      fill: hsl(280, 84%, 31%);
    }
    .c1 {
      fill: #FFFFFF;
    }
  </style>
  <circle class="bg" cx="65" cy="65" r="64"/>
  <path class="c1" d="M94.9,71.4c0-2.8-2.1-5-4.8-5.3V54.3c2.7-0.3,4.8-2.5,4.8-5.3s-2.1-5-4.8-5.3V27.4H89v16.4
  	c-1.6,0.2-3.1,1.1-3.9,2.4L45.6,35c-0.1-2.7-2.2-4.9-4.8-5.1v-2.5h-1.1v2.5c-2.7,0.3-4.8,2.5-4.8,5.3c0,2.8,2.1,5,4.8,5.3v19.1
  	c-2.7,0.3-4.8,2.5-4.8,5.3c0,2.8,2.1,5,4.8,5.3v17.3c-2.7,0.3-4.8,2.5-4.8,5.3s2.1,5,4.8,5.3v4.3h1.1V98c2.7-0.3,4.8-2.5,4.8-5.3
  	c0-0.2,0-0.4-0.1-0.5l24.6-10.6l14.2,7.1c0,0.3-0.1,0.6-0.1,0.8c0,2.8,2.1,5,4.8,5.3v7.4h1.1v-7.4c2.7-0.3,4.8-2.5,4.8-5.3
  	c0-2.8-2.1-5-4.8-5.3v-7.5C92.8,76.4,94.9,74.1,94.9,71.4z M40.8,59.5V40.5c1.6-0.2,3.1-1.1,3.9-2.4l39.5,11.1
  	c0.1,2.7,2.2,4.9,4.8,5.1v11.8c-2.7,0.3-4.8,2.5-4.8,5.3c0,0.2,0,0.4,0.1,0.5L70.2,78L45.5,65.7c0-0.3,0.1-0.6,0.1-0.8
  	C45.6,62.1,43.5,59.8,40.8,59.5z M44.3,89.3c-0.9-1-2.1-1.7-3.5-1.8V70.1c1.3-0.1,2.4-0.7,3.3-1.6l22.3,11.1L44.3,89.3z M74,79.9
  	l11.6-5c0.9,1,2.1,1.7,3.5,1.8v7.5c-1.3,0.1-2.4,0.7-3.3,1.6L74,79.9z"/>
</svg>
