<svg id="icon-tree_diagram" xmlns="http://www.w3.org/2000/svg" viewBox="0 0 130 130">
  <style>
    .bg {
      fill: hsl(280, 84%, 31%);
    }
    .c1 {
      fill: #FFFFFF;
    }
  </style>
  <circle class="bg" cx="65" cy="65" r="64"/>
  <g>
    <rect class="c1" x="56.854" y="22.048" width="16.625" height="7.714"/>
    <rect class="c1" x="56.854" y="84.215" width="16.625" height="7.715"/>
    <rect class="c1" x="20.947" y="84.215" width="16.624" height="7.715"/>
    <rect class="c1" x="92.43" y="84.215" width="16.625" height="7.715"/>
    <rect class="c1" x="39.898" y="51.093" width="16.623" height="7.714"/>
    <rect class="c1" x="74.145" y="51.093" width="16.625" height="7.714"/>
    <g>
      <rect class="c1" x="64.667" y="27.264" width="1" height="14.974"/>
      <polygon class="c1" points="83.121,53.81 82.121,53.81 82.121,42.738 48.876,42.738 48.876,53.584 47.876,53.584 47.876,41.738 83.121,41.738"/>
    </g>
    <g>
      <rect class="c1" x="47.96" y="58.404" width="1" height="14.974"/>
      <polygon class="c1" points="65.417,84.95 64.417,84.95 64.417,73.878 29.301,73.878 29.301,84.725 28.301,84.725 28.301,72.878 65.417,72.878"/>
    </g>
    <g>
      <polygon class="c1" points="101.325,86.539 100.325,86.539 100.325,73.598 81.996,73.598 81.996,58.462 82.996,58.462 82.996,72.598 101.325,72.598"/>
    </g>
  </g>
</svg>
