<svg id="icon-ranged_area_graph" xmlns="http://www.w3.org/2000/svg" viewBox="0 0 130 130">
  <style>
    .bg {
      fill: hsl(280, 84%, 31%);
    }
    .c1 {
      fill: #FFFFFF;
    }
  </style>
  <circle class="bg" cx="65" cy="65" r="64"/>
  <g>
    <g>
      <path class="c1" d="M97.5,98.5h-65c-0.6,0-1-0.4-1-1v-65c0-0.6,0.4-1,1-1s1,0.4,1,1v64h64c0.6,0,1,0.4,1,1S98.1,98.5,97.5,98.5z"/>
    </g>
    <g>
      <polygon class="c1" points="97.5,72 88.1,67.4 75.2,79.4 65,75.9 56.1,85.3 47.4,81.7 36.3,86.9 36.3,75.9 47.4,64.4 56.1,70.2
      			65,51 75.7,58.5 88.1,40.1 97.5,44.7 		"/>
    </g>
  </g>
</svg>
