<svg id="icon-circular_gauge" xmlns="http://www.w3.org/2000/svg" viewBox="0 0 130 130">
  <style>
    .bg {
      fill: hsl(280, 84%, 31%);
    }
    .c1 {
      fill: #FFFFFF;
    }
  </style>
  <circle class="bg" cx="65" cy="65" r="64"/>
  <g>
    <g>
      <path class="c1" d="M71.9,63.6c3.2,1.2,6,3.3,8.1,6.1l17.2-12.1C92.5,50.7,86,45.5,78.4,42.7L71.9,63.6z"/>
      <path class="c1" d="M30.6,60.8C27.1,67.2,25,74.6,25,82.5l20.9,0c0-3.7,1-7.1,2.6-10.1L30.6,60.8z"/>
      <path class="c1" d="M49.8,70.4c1.9-2.7,4.5-4.9,7.5-6.3l-7.6-20.6c-7.3,3.2-13.5,8.5-17.8,15.3L49.8,70.4z"/>
      <path class="c1" d="M98.6,59.5L81.4,71.6c1.9,3.1,3.1,6.9,3.1,10.9l20.5,0C105,74,102.6,66.1,98.6,59.5z"/>
    </g>
    <path class="c1" d="M68.3,81.7l-3.4-34.5l-3.3,34.5c0,1.9,1.5,3.5,3.3,3.5C66.8,85.2,68.3,83.6,68.3,81.7L68.3,81.7z"/>
    <path class="c1" d="M61.1,62.7L62.6,47c0.1-1.3,1.1-2.2,2.3-2.2c0,0,0,0,0,0c1.2,0,2.2,1,2.3,2.2l1.5,15.7
    		c0.3,0.1,0.6,0.1,0.9,0.2l6.5-20.9c-3.6-1.1-7.3-1.7-11.2-1.7c-4.6,0-9,0.8-13.1,2.3l7.6,20.6C60,63,60.6,62.9,61.1,62.7z"/>
  </g>
</svg>
