<svg id="icon-time_table" xmlns="http://www.w3.org/2000/svg" viewBox="0 0 130 130">
  <style>
    .bg {
      fill: hsl(280, 84%, 31%);
    }
    .c1 {
      fill: #FFFFFF;
    }
    .c2 {
      opacity: 0.6;
    }
  </style>
    <circle class="bg" cx="65" cy="65" r="64"/>
    <g>
      <rect class="c1" x="22.931" y="34.888" width="26.875" height="10.75"/>
      <rect class="c1" x="51.606" y="34.888" width="26.876" height="10.75"/>
      <rect class="c1" x="80.195" y="34.888" width="26.875" height="10.75"/>
      <rect class="c1 c2" x="51.606" y="47.295" width="26.876" height="10.75"/>
      <rect class="c1 c2" x="80.195" y="47.295" width="26.875" height="10.75"/>
      <rect class="c1" x="22.931" y="47.295" width="26.875" height="10.75"/>
      <rect class="c1 c2" x="51.606" y="60.027" width="26.876" height="10.75"/>
      <rect class="c1 c2" x="80.195" y="60.027" width="26.875" height="10.75"/>
      <rect class="c1" x="22.931" y="60.027" width="26.875" height="10.75"/>
      <rect class="c1 c2" x="51.606" y="72.614" width="26.876" height="10.75"/>
      <rect class="c1 c2" x="80.195" y="72.614" width="26.875" height="10.75"/>
      <rect class="c1" x="22.931" y="72.614" width="26.875" height="10.75"/>
      <rect class="c1 c2" x="51.606" y="85.488" width="26.876" height="10.75"/>
      <rect class="c1 c2" x="80.195" y="85.488" width="26.875" height="10.75"/>
      <rect class="c1" x="22.931" y="85.488" width="26.875" height="10.75"/>
      <g>
        <path class="bg" d="M25.604,52.792c0-0.719,0.108-1.337,0.325-1.855c0.216-0.519,0.504-0.904,0.864-1.158
          				c0.278-0.201,0.566-0.303,0.864-0.303c0.483,0,0.916,0.246,1.3,0.739c0.479,0.609,0.72,1.437,0.72,2.479
          				c0,0.73-0.105,1.352-0.316,1.862s-0.479,0.882-0.806,1.112s-0.642,0.346-0.945,0.346c-0.601,0-1.101-0.354-1.5-1.063
          				C25.773,54.354,25.604,53.634,25.604,52.792z M26.515,52.908c0,0.866,0.107,1.574,0.32,2.122c0.177,0.461,0.439,0.692,0.79,0.692
          				c0.167,0,0.34-0.075,0.52-0.226s0.316-0.401,0.409-0.755c0.143-0.532,0.214-1.283,0.214-2.252c0-0.719-0.074-1.317-0.223-1.798
          				c-0.111-0.355-0.255-0.608-0.432-0.757c-0.127-0.102-0.28-0.153-0.46-0.153c-0.21,0-0.398,0.095-0.562,0.283
          				c-0.223,0.258-0.375,0.661-0.455,1.213C26.555,51.829,26.515,52.372,26.515,52.908z"/>
        <path class="bg" d="M30.518,56.033v-0.172c0.402-0.006,0.777-0.1,1.124-0.281c0.347-0.181,0.682-0.497,1.005-0.949
          				c0.323-0.452,0.549-0.949,0.676-1.49c-0.486,0.312-0.926,0.469-1.319,0.469c-0.443,0-0.822-0.171-1.138-0.514
          				c-0.315-0.342-0.474-0.796-0.474-1.362c0-0.552,0.158-1.042,0.474-1.473c0.381-0.523,0.878-0.785,1.491-0.785
          				c0.517,0,0.96,0.214,1.329,0.642c0.452,0.529,0.678,1.183,0.678,1.96c0,0.699-0.172,1.352-0.516,1.957
          				c-0.343,0.605-0.822,1.107-1.435,1.507c-0.499,0.328-1.042,0.492-1.63,0.492H30.518z M33.397,52.797
          				c0.056-0.402,0.083-0.725,0.083-0.967c0-0.3-0.051-0.624-0.153-0.973c-0.102-0.348-0.247-0.615-0.434-0.801
          				s-0.4-0.278-0.639-0.278c-0.275,0-0.517,0.123-0.724,0.371c-0.208,0.248-0.312,0.616-0.312,1.105
          				c0,0.653,0.138,1.164,0.414,1.532c0.201,0.267,0.449,0.399,0.743,0.399c0.142,0,0.311-0.034,0.506-0.103
          				C33.077,53.017,33.249,52.92,33.397,52.797z"/>
        <path class="bg" d="M36.104,54.998c0.146,0,0.269,0.051,0.369,0.153c0.101,0.102,0.151,0.225,0.151,0.366
          				c0,0.143-0.051,0.265-0.153,0.365s-0.225,0.15-0.367,0.15c-0.143,0-0.264-0.05-0.365-0.15s-0.151-0.223-0.151-0.365
          				c0-0.142,0.05-0.265,0.151-0.366C35.84,55.049,35.962,54.998,36.104,54.998z M36.114,51.52c0.142,0,0.264,0.05,0.364,0.15
          				bg.151,0.223,0.151,0.365s-0.05,0.264-0.151,0.364s-0.222,0.151-0.364,0.151c-0.143,0-0.264-0.051-0.365-0.151
          				s-0.151-0.222-0.151-0.364s0.05-0.265,0.151-0.365S35.971,51.52,36.114,51.52z"/>
        <path class="bg" d="M37.758,52.792c0-0.719,0.108-1.337,0.325-1.855c0.216-0.519,0.504-0.904,0.864-1.158
          				c0.278-0.201,0.566-0.303,0.864-0.303c0.483,0,0.916,0.246,1.3,0.739c0.479,0.609,0.72,1.437,0.72,2.479
          				c0,0.73-0.105,1.352-0.316,1.862s-0.479,0.882-0.806,1.112s-0.642,0.346-0.945,0.346c-0.601,0-1.101-0.354-1.5-1.063
          				C37.926,54.354,37.758,53.634,37.758,52.792z M38.668,52.908c0,0.866,0.107,1.574,0.32,2.122c0.177,0.461,0.439,0.692,0.79,0.692
          				c0.167,0,0.34-0.075,0.52-0.226s0.316-0.401,0.409-0.755c0.143-0.532,0.214-1.283,0.214-2.252c0-0.719-0.074-1.317-0.223-1.798
          				c-0.111-0.355-0.255-0.608-0.432-0.757c-0.127-0.102-0.28-0.153-0.46-0.153c-0.21,0-0.398,0.095-0.562,0.283
          				c-0.223,0.258-0.375,0.661-0.455,1.213C38.708,51.829,38.668,52.372,38.668,52.908z"/>
        <path class="bg" d="M42.513,52.792c0-0.719,0.108-1.337,0.325-1.855c0.216-0.519,0.504-0.904,0.864-1.158
        				c0.278-0.201,0.566-0.303,0.864-0.303c0.483,0,0.916,0.246,1.3,0.739c0.479,0.609,0.72,1.437,0.72,2.479
        				c0,0.73-0.105,1.352-0.316,1.862s-0.479,0.882-0.806,1.112s-0.642,0.346-0.945,0.346c-0.601,0-1.101-0.354-1.5-1.063
        				C42.682,54.354,42.513,53.634,42.513,52.792z M43.423,52.908c0,0.866,0.107,1.574,0.32,2.122c0.177,0.461,0.439,0.692,0.79,0.692
        				c0.167,0,0.34-0.075,0.52-0.226s0.316-0.401,0.409-0.755c0.143-0.532,0.214-1.283,0.214-2.252c0-0.719-0.074-1.317-0.223-1.798
        				c-0.111-0.355-0.255-0.608-0.432-0.757c-0.127-0.102-0.28-0.153-0.46-0.153c-0.21,0-0.398,0.095-0.562,0.283
        				c-0.223,0.258-0.375,0.661-0.455,1.213C43.463,51.829,43.423,52.372,43.423,52.908z"/>
      </g>
      <g>
        <path class="bg" d="M63.871,53.054h-2.707v-0.962h2.707V53.054z"/>
        <path class="bg" d="M69.416,53.054h-2.707v-0.962h2.707V53.054z"/>
      </g>
      <g>
        <path class="bg" d="M63.871,65.833h-2.707v-0.962h2.707V65.833z"/>
        <path class="bg" d="M69.416,65.833h-2.707v-0.962h2.707V65.833z"/>
      </g>
      <g>
        <path class="bg" d="M63.871,78.994h-2.707v-0.962h2.707V78.994z"/>
        <path class="bg" d="M69.416,78.994h-2.707v-0.962h2.707V78.994z"/>
      </g>
      <g>
        <path class="bg" d="M63.871,91.581h-2.707v-0.962h2.707V91.581z"/>
        <path class="bg" d="M69.416,91.581h-2.707v-0.962h2.707V91.581z"/>
      </g>
      <g>
        <path class="bg" d="M91.716,53.054h-2.707v-0.962h2.707V53.054z"/>
        <path class="bg" d="M97.261,53.054h-2.707v-0.962h2.707V53.054z"/>
      </g>
      <g>
        <path class="bg" d="M91.716,65.833h-2.707v-0.962h2.707V65.833z"/>
        <path class="bg" d="M97.261,65.833h-2.707v-0.962h2.707V65.833z"/>
      </g>
      <g>
        <path class="bg" d="M91.716,78.994h-2.707v-0.962h2.707V78.994z"/>
        <path class="bg" d="M97.261,78.994h-2.707v-0.962h2.707V78.994z"/>
      </g>
      <g>
        <path class="bg" d="M91.716,91.581h-2.707v-0.962h2.707V91.581z"/>
        <path class="bg" d="M97.261,91.581h-2.707v-0.962h2.707V91.581z"/>
      </g>
      <g>
        <path class="bg" d="M25.604,65.38c0-0.719,0.108-1.337,0.325-1.855c0.216-0.519,0.504-0.904,0.864-1.158
          				c0.278-0.201,0.566-0.303,0.864-0.303c0.483,0,0.916,0.246,1.3,0.739c0.479,0.609,0.72,1.437,0.72,2.479
          				c0,0.73-0.105,1.352-0.316,1.862s-0.479,0.882-0.806,1.112s-0.642,0.346-0.945,0.346c-0.601,0-1.101-0.354-1.5-1.063
          				C25.773,66.941,25.604,66.222,25.604,65.38z M26.515,65.496c0,0.866,0.107,1.574,0.32,2.122c0.177,0.461,0.439,0.692,0.79,0.692
          				c0.167,0,0.34-0.075,0.52-0.226s0.316-0.401,0.409-0.755c0.143-0.532,0.214-1.283,0.214-2.252c0-0.719-0.074-1.317-0.223-1.798
          				c-0.111-0.355-0.255-0.608-0.432-0.757c-0.127-0.102-0.28-0.153-0.46-0.153c-0.21,0-0.398,0.095-0.562,0.283
          				c-0.223,0.258-0.375,0.661-0.455,1.213C26.555,64.417,26.515,64.96,26.515,65.496z"/>
        <path class="bg" d="M30.518,68.621v-0.172c0.402-0.006,0.777-0.1,1.124-0.281c0.347-0.181,0.682-0.497,1.005-0.949
          				c0.323-0.452,0.549-0.949,0.676-1.49c-0.486,0.312-0.926,0.469-1.319,0.469c-0.443,0-0.822-0.171-1.138-0.514
          				c-0.315-0.342-0.474-0.796-0.474-1.362c0-0.552,0.158-1.042,0.474-1.473c0.381-0.523,0.878-0.785,1.491-0.785
          				c0.517,0,0.96,0.214,1.329,0.642c0.452,0.529,0.678,1.183,0.678,1.96c0,0.699-0.172,1.352-0.516,1.957
          				c-0.343,0.605-0.822,1.107-1.435,1.507c-0.499,0.328-1.042,0.492-1.63,0.492H30.518z M33.397,65.385
          				c0.056-0.402,0.083-0.725,0.083-0.967c0-0.3-0.051-0.624-0.153-0.973c-0.102-0.348-0.247-0.615-0.434-0.801
          				s-0.4-0.278-0.639-0.278c-0.275,0-0.517,0.123-0.724,0.371c-0.208,0.248-0.312,0.616-0.312,1.105
          				c0,0.653,0.138,1.164,0.414,1.532c0.201,0.267,0.449,0.399,0.743,0.399c0.142,0,0.311-0.034,0.506-0.103
          				C33.077,65.604,33.249,65.508,33.397,65.385z"/>
        <path class="bg" d="M36.104,67.586c0.146,0,0.269,0.051,0.369,0.153c0.101,0.102,0.151,0.225,0.151,0.366
          				c0,0.143-0.051,0.265-0.153,0.365s-0.225,0.15-0.367,0.15c-0.143,0-0.264-0.05-0.365-0.15s-0.151-0.223-0.151-0.365
          				c0-0.142,0.05-0.265,0.151-0.366C35.84,67.637,35.962,67.586,36.104,67.586z M36.114,64.107c0.142,0,0.264,0.05,0.364,0.15
          				bg.151,0.223,0.151,0.365s-0.05,0.264-0.151,0.364s-0.222,0.151-0.364,0.151c-0.143,0-0.264-0.051-0.365-0.151
          				s-0.151-0.222-0.151-0.364s0.05-0.265,0.151-0.365S35.971,64.107,36.114,64.107z"/>
        <path class="bg" d="M37.897,63.393c0.18-0.425,0.406-0.752,0.68-0.982c0.274-0.23,0.616-0.347,1.024-0.347
          				c0.504,0,0.892,0.165,1.161,0.493c0.205,0.244,0.307,0.506,0.307,0.784c0,0.458-0.288,0.932-0.864,1.421
          				c0.387,0.152,0.68,0.369,0.878,0.65c0.198,0.282,0.297,0.613,0.297,0.994c0,0.545-0.173,1.017-0.52,1.416
          				c-0.452,0.521-1.107,0.78-1.964,0.78c-0.424,0-0.713-0.053-0.866-0.158c-0.153-0.104-0.23-0.218-0.23-0.339
          				c0-0.09,0.037-0.168,0.109-0.236s0.16-0.103,0.262-0.103c0.078,0,0.156,0.013,0.237,0.037c0.053,0.016,0.172,0.072,0.358,0.17
          				c0.186,0.098,0.314,0.155,0.385,0.174c0.115,0.034,0.237,0.051,0.367,0.051c0.316,0,0.591-0.122,0.825-0.366
          				c0.233-0.245,0.351-0.534,0.351-0.869c0-0.244-0.054-0.482-0.163-0.715c-0.081-0.173-0.169-0.305-0.265-0.395
          				c-0.133-0.124-0.316-0.236-0.548-0.337c-0.232-0.101-0.469-0.15-0.71-0.15h-0.148v-0.14c0.245-0.031,0.49-0.119,0.736-0.265
          				bg.425-0.32,0.537-0.525c0.111-0.204,0.167-0.429,0.167-0.673c0-0.319-0.1-0.576-0.299-0.773c-0.2-0.196-0.448-0.295-0.746-0.295
          				c-0.48,0-0.881,0.257-1.203,0.771L37.897,63.393z"/>
        <path class="bg" d="M42.513,65.38c0-0.719,0.108-1.337,0.325-1.855c0.216-0.519,0.504-0.904,0.864-1.158
        				c0.278-0.201,0.566-0.303,0.864-0.303c0.483,0,0.916,0.246,1.3,0.739c0.479,0.609,0.72,1.437,0.72,2.479
        				c0,0.73-0.105,1.352-0.316,1.862s-0.479,0.882-0.806,1.112s-0.642,0.346-0.945,0.346c-0.601,0-1.101-0.354-1.5-1.063
        				C42.682,66.941,42.513,66.222,42.513,65.38z M43.423,65.496c0,0.866,0.107,1.574,0.32,2.122c0.177,0.461,0.439,0.692,0.79,0.692
        				c0.167,0,0.34-0.075,0.52-0.226s0.316-0.401,0.409-0.755c0.143-0.532,0.214-1.283,0.214-2.252c0-0.719-0.074-1.317-0.223-1.798
        				c-0.111-0.355-0.255-0.608-0.432-0.757c-0.127-0.102-0.28-0.153-0.46-0.153c-0.21,0-0.398,0.095-0.562,0.283
        				c-0.223,0.258-0.375,0.661-0.455,1.213C43.463,64.417,43.423,64.96,43.423,65.496z"/>
      </g>
      <g>
        <path class="bg" d="M26.375,75.398l1.532-0.748h0.153v5.317c0,0.354,0.015,0.573,0.044,0.66
          				c0.03,0.087,0.091,0.153,0.184,0.199c0.093,0.047,0.282,0.073,0.566,0.079v0.172h-2.368v-0.172
          				c0.297-0.006,0.489-0.031,0.576-0.076c0.087-0.045,0.147-0.105,0.181-0.182s0.051-0.303,0.051-0.681v-3.399
          				c0-0.458-0.016-0.752-0.046-0.882c-0.022-0.1-0.062-0.172-0.119-0.219c-0.057-0.046-0.126-0.069-0.207-0.069
          				c-0.115,0-0.274,0.048-0.479,0.145L26.375,75.398z"/>
        <path class="bg" d="M30.36,77.967c0-0.719,0.108-1.337,0.325-1.855c0.216-0.519,0.504-0.904,0.864-1.158
          				c0.278-0.201,0.566-0.303,0.864-0.303c0.483,0,0.916,0.246,1.3,0.739c0.479,0.609,0.72,1.437,0.72,2.479
          				c0,0.73-0.105,1.352-0.316,1.862s-0.479,0.882-0.806,1.112s-0.642,0.346-0.945,0.346c-0.601,0-1.101-0.354-1.5-1.063
          				C30.528,79.528,30.36,78.809,30.36,77.967z M31.27,78.083c0,0.866,0.107,1.574,0.32,2.122c0.177,0.461,0.439,0.692,0.79,0.692
          				c0.167,0,0.34-0.075,0.52-0.226s0.316-0.401,0.409-0.755c0.143-0.532,0.214-1.283,0.214-2.252c0-0.719-0.074-1.317-0.223-1.798
          				c-0.111-0.355-0.255-0.608-0.432-0.757c-0.127-0.102-0.28-0.153-0.46-0.153c-0.21,0-0.398,0.095-0.562,0.283
          				c-0.223,0.258-0.375,0.661-0.455,1.213C31.31,77.004,31.27,77.547,31.27,78.083z"/>
        <path class="bg" d="M36.104,80.173c0.146,0,0.269,0.051,0.369,0.153c0.101,0.102,0.151,0.225,0.151,0.366
          				c0,0.143-0.051,0.265-0.153,0.365s-0.225,0.15-0.367,0.15c-0.143,0-0.264-0.05-0.365-0.15s-0.151-0.223-0.151-0.365
          				c0-0.142,0.05-0.265,0.151-0.366C35.84,80.224,35.962,80.173,36.104,80.173z M36.114,76.694c0.142,0,0.264,0.05,0.364,0.15
          				bg.151,0.223,0.151,0.365s-0.05,0.264-0.151,0.364s-0.222,0.151-0.364,0.151c-0.143,0-0.264-0.051-0.365-0.151
          				s-0.151-0.222-0.151-0.364s0.05-0.265,0.151-0.365S35.971,76.694,36.114,76.694z"/>
        <path class="bg" d="M37.758,77.967c0-0.719,0.108-1.337,0.325-1.855c0.216-0.519,0.504-0.904,0.864-1.158
          				c0.278-0.201,0.566-0.303,0.864-0.303c0.483,0,0.916,0.246,1.3,0.739c0.479,0.609,0.72,1.437,0.72,2.479
          				c0,0.73-0.105,1.352-0.316,1.862s-0.479,0.882-0.806,1.112s-0.642,0.346-0.945,0.346c-0.601,0-1.101-0.354-1.5-1.063
          				C37.926,79.528,37.758,78.809,37.758,77.967z M38.668,78.083c0,0.866,0.107,1.574,0.32,2.122c0.177,0.461,0.439,0.692,0.79,0.692
          				c0.167,0,0.34-0.075,0.52-0.226s0.316-0.401,0.409-0.755c0.143-0.532,0.214-1.283,0.214-2.252c0-0.719-0.074-1.317-0.223-1.798
          				c-0.111-0.355-0.255-0.608-0.432-0.757c-0.127-0.102-0.28-0.153-0.46-0.153c-0.21,0-0.398,0.095-0.562,0.283
          				c-0.223,0.258-0.375,0.661-0.455,1.213C38.708,77.004,38.668,77.547,38.668,78.083z"/>
        <path class="bg" d="M42.513,77.967c0-0.719,0.108-1.337,0.325-1.855c0.216-0.519,0.504-0.904,0.864-1.158
        				c0.278-0.201,0.566-0.303,0.864-0.303c0.483,0,0.916,0.246,1.3,0.739c0.479,0.609,0.72,1.437,0.72,2.479
        				c0,0.73-0.105,1.352-0.316,1.862s-0.479,0.882-0.806,1.112s-0.642,0.346-0.945,0.346c-0.601,0-1.101-0.354-1.5-1.063
        				C42.682,79.528,42.513,78.809,42.513,77.967z M43.423,78.083c0,0.866,0.107,1.574,0.32,2.122c0.177,0.461,0.439,0.692,0.79,0.692
        				c0.167,0,0.34-0.075,0.52-0.226s0.316-0.401,0.409-0.755c0.143-0.532,0.214-1.283,0.214-2.252c0-0.719-0.074-1.317-0.223-1.798
        				c-0.111-0.355-0.255-0.608-0.432-0.757c-0.127-0.102-0.28-0.153-0.46-0.153c-0.21,0-0.398,0.095-0.562,0.283
        				c-0.223,0.258-0.375,0.661-0.455,1.213C43.463,77.004,43.423,77.547,43.423,78.083z"/>
      </g>
      <g>
        <path class="bg" d="M26.375,88.132l1.532-0.748h0.153v5.317c0,0.354,0.015,0.573,0.044,0.66
          				c0.03,0.087,0.091,0.153,0.184,0.199c0.093,0.047,0.282,0.073,0.566,0.079v0.172h-2.368V93.64
          				c0.297-0.006,0.489-0.031,0.576-0.076c0.087-0.045,0.147-0.105,0.181-0.182s0.051-0.303,0.051-0.681v-3.399
          				c0-0.458-0.016-0.752-0.046-0.882c-0.022-0.1-0.062-0.172-0.119-0.219c-0.057-0.046-0.126-0.069-0.207-0.069
          				c-0.115,0-0.274,0.048-0.479,0.145L26.375,88.132z"/>
        <path class="bg" d="M30.36,90.7c0-0.719,0.108-1.337,0.325-1.855c0.216-0.519,0.504-0.904,0.864-1.158
          				c0.278-0.201,0.566-0.303,0.864-0.303c0.483,0,0.916,0.246,1.3,0.739c0.479,0.609,0.72,1.437,0.72,2.479
          				c0,0.73-0.105,1.352-0.316,1.862s-0.479,0.882-0.806,1.112s-0.642,0.346-0.945,0.346c-0.601,0-1.101-0.354-1.5-1.063
          				C30.528,92.262,30.36,91.542,30.36,90.7z M31.27,90.816c0,0.866,0.107,1.574,0.32,2.122c0.177,0.461,0.439,0.692,0.79,0.692
          				c0.167,0,0.34-0.075,0.52-0.226s0.316-0.401,0.409-0.755c0.143-0.532,0.214-1.283,0.214-2.252c0-0.719-0.074-1.317-0.223-1.798
          				c-0.111-0.355-0.255-0.608-0.432-0.757c-0.127-0.102-0.28-0.153-0.46-0.153c-0.21,0-0.398,0.095-0.562,0.283
          				c-0.223,0.258-0.375,0.661-0.455,1.213C31.31,89.737,31.27,90.28,31.27,90.816z"/>
        <path class="bg" d="M36.104,92.906c0.146,0,0.269,0.051,0.369,0.153c0.101,0.102,0.151,0.225,0.151,0.366
          				c0,0.143-0.051,0.265-0.153,0.365s-0.225,0.15-0.367,0.15c-0.143,0-0.264-0.05-0.365-0.15s-0.151-0.223-0.151-0.365
          				c0-0.142,0.05-0.265,0.151-0.366C35.84,92.957,35.962,92.906,36.104,92.906z M36.114,89.428c0.142,0,0.264,0.05,0.364,0.15
          				bg.151,0.223,0.151,0.365s-0.05,0.264-0.151,0.364s-0.222,0.151-0.364,0.151c-0.143,0-0.264-0.051-0.365-0.151
          				s-0.151-0.222-0.151-0.364s0.05-0.265,0.151-0.365S35.971,89.428,36.114,89.428z"/>
        <path class="bg" d="M37.897,88.713c0.18-0.425,0.406-0.752,0.68-0.982c0.274-0.23,0.616-0.347,1.024-0.347
          				c0.504,0,0.892,0.165,1.161,0.493c0.205,0.244,0.307,0.506,0.307,0.784c0,0.458-0.288,0.932-0.864,1.421
          				c0.387,0.152,0.68,0.369,0.878,0.65c0.198,0.282,0.297,0.613,0.297,0.994c0,0.545-0.173,1.017-0.52,1.416
          				c-0.452,0.521-1.107,0.78-1.964,0.78c-0.424,0-0.713-0.053-0.866-0.158c-0.153-0.104-0.23-0.218-0.23-0.339
          				c0-0.09,0.037-0.168,0.109-0.236s0.16-0.103,0.262-0.103c0.078,0,0.156,0.013,0.237,0.037c0.053,0.016,0.172,0.072,0.358,0.17
          				c0.186,0.098,0.314,0.155,0.385,0.174c0.115,0.034,0.237,0.051,0.367,0.051c0.316,0,0.591-0.122,0.825-0.366
          				c0.233-0.245,0.351-0.534,0.351-0.869c0-0.244-0.054-0.482-0.163-0.715c-0.081-0.173-0.169-0.305-0.265-0.395
          				c-0.133-0.124-0.316-0.236-0.548-0.337c-0.232-0.101-0.469-0.15-0.71-0.15h-0.148v-0.14c0.245-0.031,0.49-0.119,0.736-0.265
          				bg.425-0.32,0.537-0.525c0.111-0.204,0.167-0.429,0.167-0.673c0-0.319-0.1-0.576-0.299-0.773c-0.2-0.196-0.448-0.295-0.746-0.295
          				c-0.48,0-0.881,0.257-1.203,0.771L37.897,88.713z"/>
        <path class="bg" d="M42.513,90.7c0-0.719,0.108-1.337,0.325-1.855c0.216-0.519,0.504-0.904,0.864-1.158
        				c0.278-0.201,0.566-0.303,0.864-0.303c0.483,0,0.916,0.246,1.3,0.739c0.479,0.609,0.72,1.437,0.72,2.479
        				c0,0.73-0.105,1.352-0.316,1.862s-0.479,0.882-0.806,1.112s-0.642,0.346-0.945,0.346c-0.601,0-1.101-0.354-1.5-1.063
        				C42.682,92.262,42.513,91.542,42.513,90.7z M43.423,90.816c0,0.866,0.107,1.574,0.32,2.122c0.177,0.461,0.439,0.692,0.79,0.692
        				c0.167,0,0.34-0.075,0.52-0.226s0.316-0.401,0.409-0.755c0.143-0.532,0.214-1.283,0.214-2.252c0-0.719-0.074-1.317-0.223-1.798
        				c-0.111-0.355-0.255-0.608-0.432-0.757c-0.127-0.102-0.28-0.153-0.46-0.153c-0.21,0-0.398,0.095-0.562,0.283
        				c-0.223,0.258-0.375,0.661-0.455,1.213C43.463,89.737,43.423,90.28,43.423,90.816z"/>
      </g>
      <g>
        <path class="bg" d="M59.765,43.172l-2.434-5.299v4.207c0,0.388,0.042,0.629,0.125,0.725C57.571,42.935,57.752,43,58,43h0.223
          				v0.172h-2.192V43h0.223c0.266,0,0.455-0.08,0.566-0.241c0.068-0.1,0.102-0.325,0.102-0.679v-4.114
          				c0-0.278-0.031-0.479-0.093-0.604c-0.043-0.09-0.123-0.165-0.239-0.226c-0.116-0.061-0.302-0.09-0.56-0.09v-0.172h1.784
          				l2.285,4.927l2.248-4.927h1.783v0.172h-0.218c-0.269,0-0.459,0.08-0.571,0.241c-0.068,0.099-0.103,0.325-0.103,0.678v4.114
          				c0,0.388,0.043,0.629,0.13,0.725C63.483,42.935,63.664,43,63.912,43h0.218v0.172h-2.675V43h0.223c0.269,0,0.458-0.08,0.566-0.241
          				c0.068-0.1,0.102-0.325,0.102-0.679v-4.207l-2.429,5.299H59.765z"/>
        <path class="bg" d="M66.707,38.793c0.645,0,1.161,0.244,1.551,0.733c0.332,0.418,0.498,0.897,0.498,1.439
          				c0,0.381-0.092,0.767-0.274,1.156c-0.183,0.391-0.435,0.685-0.755,0.883s-0.678,0.297-1.07,0.297
          				c-0.641,0-1.15-0.255-1.528-0.766c-0.319-0.431-0.479-0.914-0.479-1.449c0-0.391,0.097-0.778,0.291-1.163
          				c0.193-0.386,0.448-0.671,0.764-0.854C66.02,38.885,66.354,38.793,66.707,38.793z M66.563,39.095
          				c-0.164,0-0.329,0.049-0.495,0.146c-0.165,0.097-0.299,0.269-0.401,0.513s-0.153,0.559-0.153,0.942
          				c0,0.619,0.123,1.153,0.369,1.603s0.57,0.674,0.973,0.674c0.301,0,0.549-0.124,0.744-0.372c0.194-0.248,0.292-0.673,0.292-1.277
          				c0-0.755-0.163-1.35-0.487-1.783C67.184,39.243,66.904,39.095,66.563,39.095z"/>
        <path class="bg" d="M70.622,39.693c0.499-0.601,0.974-0.9,1.426-0.9c0.231,0,0.432,0.058,0.599,0.174
        				c0.168,0.116,0.301,0.308,0.4,0.573c0.067,0.186,0.102,0.471,0.102,0.854v1.816c0,0.269,0.021,0.452,0.064,0.548
        				c0.035,0.077,0.09,0.138,0.166,0.181c0.075,0.044,0.215,0.065,0.42,0.065v0.167h-2.104v-0.167h0.088
        				c0.198,0,0.336-0.03,0.416-0.091c0.078-0.061,0.133-0.149,0.164-0.267c0.013-0.047,0.02-0.192,0.02-0.437v-1.742
        				c0-0.387-0.051-0.668-0.151-0.843s-0.271-0.262-0.509-0.262c-0.368,0-0.735,0.201-1.101,0.604v2.243
        				c0,0.287,0.017,0.466,0.052,0.533c0.043,0.09,0.102,0.156,0.178,0.198c0.076,0.041,0.23,0.062,0.463,0.062v0.167h-2.104v-0.167
        				h0.092c0.217,0,0.363-0.055,0.439-0.165s0.113-0.319,0.113-0.629v-1.579c0-0.511-0.012-0.822-0.035-0.934
        				c-0.022-0.111-0.059-0.188-0.105-0.228c-0.049-0.04-0.113-0.061-0.193-0.061c-0.087,0-0.19,0.023-0.311,0.069l-0.07-0.167
        				l1.281-0.52h0.2V39.693z"/>
      </g>
      <g>
        <path class="bg" d="M89.02,37.019l0.07,1.477h-0.177c-0.034-0.26-0.081-0.446-0.14-0.558
          				c-0.096-0.18-0.224-0.312-0.383-0.396c-0.16-0.086-0.369-0.128-0.629-0.128h-0.888v4.811c0,0.388,0.042,0.629,0.126,0.725
          				c0.117,0.13,0.299,0.195,0.543,0.195h0.219v0.172h-2.671v-0.172h0.224c0.266,0,0.455-0.08,0.566-0.241
          				c0.067-0.1,0.102-0.325,0.102-0.679v-4.811h-0.757c-0.294,0-0.503,0.021-0.627,0.064c-0.161,0.06-0.299,0.172-0.413,0.34
          				c-0.115,0.167-0.184,0.393-0.205,0.678h-0.176l0.074-1.477H89.02z"/>
        <path class="bg" d="M93.018,39.062v2.577c0,0.492,0.012,0.794,0.035,0.903c0.023,0.11,0.061,0.187,0.111,0.23
          				c0.051,0.043,0.111,0.064,0.18,0.064c0.096,0,0.203-0.026,0.324-0.079l0.065,0.163l-1.272,0.524h-0.209v-0.9
          				c-0.365,0.396-0.645,0.646-0.836,0.747c-0.192,0.103-0.395,0.153-0.608,0.153c-0.239,0-0.445-0.068-0.62-0.206
          				s-0.297-0.315-0.365-0.532c-0.067-0.217-0.102-0.523-0.102-0.92v-1.899c0-0.201-0.021-0.34-0.064-0.418
          				c-0.044-0.077-0.107-0.137-0.193-0.179c-0.085-0.041-0.238-0.061-0.462-0.058v-0.172h1.491v2.847c0,0.396,0.068,0.656,0.206,0.78
          				bg.304,0.186,0.499,0.186c0.133,0,0.284-0.042,0.453-0.125c0.169-0.084,0.369-0.243,0.602-0.479v-2.41
          				c0-0.241-0.045-0.405-0.133-0.49s-0.271-0.131-0.55-0.137v-0.172H93.018z"/>
        <path class="bg" d="M94.76,40.664c-0.004,0.631,0.15,1.127,0.459,1.485c0.311,0.359,0.674,0.539,1.092,0.539
          				c0.279,0,0.521-0.076,0.727-0.229c0.206-0.153,0.379-0.416,0.518-0.787l0.145,0.093c-0.064,0.424-0.254,0.811-0.566,1.158
          				c-0.312,0.349-0.705,0.522-1.176,0.522c-0.51,0-0.947-0.199-1.312-0.597S94.1,41.916,94.1,41.244
          				c0-0.728,0.188-1.295,0.561-1.702s0.841-0.61,1.404-0.61c0.477,0,0.868,0.157,1.175,0.472c0.307,0.313,0.46,0.734,0.46,1.261
          				H94.76z M94.76,40.395h1.969c-0.016-0.272-0.048-0.465-0.098-0.576c-0.077-0.173-0.192-0.31-0.346-0.408
          				c-0.153-0.1-0.313-0.149-0.48-0.149c-0.258,0-0.487,0.101-0.689,0.3C94.912,39.761,94.793,40.038,94.76,40.395z"/>
        <path class="bg" d="M101.016,38.937v1.448h-0.154c-0.117-0.455-0.268-0.765-0.452-0.929s-0.419-0.246-0.704-0.246
        				c-0.217,0-0.391,0.058-0.524,0.172c-0.133,0.114-0.2,0.241-0.2,0.381c0,0.174,0.051,0.322,0.149,0.446
        				c0.096,0.127,0.291,0.262,0.585,0.403l0.678,0.33c0.629,0.307,0.943,0.711,0.943,1.212c0,0.387-0.146,0.699-0.439,0.936
        				c-0.293,0.237-0.619,0.355-0.982,0.355c-0.26,0-0.557-0.046-0.891-0.14c-0.103-0.03-0.186-0.046-0.252-0.046
        				c-0.07,0-0.127,0.04-0.166,0.121h-0.154v-1.519h0.154c0.086,0.433,0.252,0.76,0.496,0.979s0.52,0.33,0.822,0.33
        				c0.214,0,0.388-0.063,0.522-0.188s0.202-0.276,0.202-0.453c0-0.213-0.075-0.393-0.225-0.538c-0.15-0.146-0.451-0.33-0.899-0.553
        				s-0.743-0.425-0.882-0.604c-0.14-0.177-0.209-0.399-0.209-0.669c0-0.35,0.119-0.643,0.359-0.878s0.551-0.353,0.932-0.353
        				c0.167,0,0.369,0.035,0.607,0.106c0.158,0.047,0.264,0.069,0.316,0.069c0.049,0,0.088-0.011,0.116-0.032s0.06-0.069,0.097-0.144
        				H101.016z"/>
      </g>
    </g>
</svg>
