<svg id="analysing_text" xmlns="http://www.w3.org/2000/svg" viewBox="0 0 170 170">
  <style>
    .s0 {
      fill: hsl(312, 100%, 31%);
    }
    .s1 {
      fill: hsl(0, 0%, 100%);
    }
  </style>
  <path class="s0" d="M169.5,85c0,46.67-37.839,84.5-84.5,84.5S0.5,131.67,0.5,85S38.339,0.5,85,0.5S169.5,38.33,169.5,85z"/>
  <g>
    <path class="s1" d="M142,59.542c-0.988,0.096-1.977,0.311-2.963,0.645c-0.988,0.334-1.96,0.755-2.914,1.267 c-1.466,0.828-2.51,1.736-3.131,2.722c-0.621,0.988-1.188,2.183-1.695,3.584c-1.752,4.841-4.451,12.597-8.099,23.268 c-3.648,10.672-7.446,21.757-11.396,33.255h-9.652L84.297,73.917l-16.125,50.365h-9.643c-5.319-15.48-9.396-27.401-12.23-35.763 c-2.836-8.362-5.225-15.376-7.167-21.046c-0.606-1.719-1.29-2.97-2.055-3.75c-0.764-0.78-1.752-1.569-2.962-2.365 c-0.86-0.574-1.777-0.997-2.747-1.267c-0.972-0.271-2.094-0.484-3.368-0.645v-3.727h36.168v3.631 c-2.13,0.256-3.72,0.502-4.767,0.74c-1.05,0.239-1.877,0.486-2.48,0.741c-0.572,0.257-0.922,0.526-1.049,0.812 c-0.128,0.287-0.191,0.541-0.191,0.764c0,0.447,0.055,0.876,0.167,1.291c0.111,0.415,0.23,0.893,0.358,1.434 c0.764,2.481,2.308,7.191,4.634,14.127c2.325,6.935,5.193,15.542,8.601,25.818l14.431-44.248h12.183l16.827,45.817 c2.642-8.185,4.752-14.873,6.329-20.064c1.576-5.191,2.905-9.633,3.987-13.329c0.637-2.26,1.146-4.157,1.528-5.685 c0.383-1.53,0.573-2.852,0.573-3.966c0-0.669-0.312-1.243-0.931-1.722c-0.621-0.477-1.455-0.891-2.503-1.242 c-0.89-0.286-2.042-0.517-3.455-0.693c-1.414-0.174-2.646-0.31-3.693-0.405v-3.823H142V59.542z"/>
  </g>
  <g>
    <path class="s1" d="M83.629,112.273L69.534,98.178c1.666-2.634,2.629-5.753,2.631-9.102 c-0.002-9.417-7.633-17.048-17.052-17.051c-9.419,0.003-17.051,7.634-17.051,17.051c0,9.419,7.632,17.05,17.051,17.054 c3.491,0,6.737-1.053,9.439-2.853l14.036,14.035c0.697,0.696,1.608,1.045,2.521,1.045c0.911,0,1.825-0.349,2.52-1.045 C85.021,115.922,85.021,113.665,83.629,112.273z M47.009,97.18c-2.077-2.082-3.353-4.93-3.356-8.104 c0.003-3.174,1.279-6.021,3.356-8.104c2.082-2.076,4.931-3.354,8.104-3.355c3.173,0.001,6.021,1.279,8.104,3.355 c2.078,2.084,3.355,4.932,3.356,8.104c-0.001,3.174-1.278,6.021-3.356,8.104c-2.083,2.078-4.931,3.355-8.104,3.358 C51.94,100.535,49.091,99.258,47.009,97.18z"/>
    <path class="s0" d="M81.109,119.357c-1.218,0-2.364-0.475-3.228-1.337l-13.471-13.47c-2.805,1.689-6.002,2.579-9.298,2.579 c-9.954-0.004-18.051-8.103-18.051-18.054c0-9.95,8.098-18.048,18.05-18.051c9.953,0.003,18.051,8.101,18.053,18.051 c-0.002,3.156-0.819,6.232-2.371,8.947l13.542,13.543c0.862,0.861,1.337,2.008,1.337,3.227c0,1.22-0.475,2.365-1.337,3.227 C83.476,118.882,82.329,119.357,81.109,119.357z M64.679,101.991l14.616,14.614c0.972,0.97,2.66,0.97,3.626,0.001 c0.485-0.485,0.752-1.129,0.752-1.813s-0.267-1.328-0.751-1.812L68.261,98.319l0.428-0.676c1.618-2.559,2.474-5.521,2.476-8.568 c-0.002-8.847-7.203-16.047-16.053-16.05c-8.85,0.003-16.05,7.203-16.05,16.051c0,8.849,7.201,16.05,16.051,16.054 c3.175,0,6.248-0.929,8.884-2.685L64.679,101.991z M55.114,101.538c-3.327-0.003-6.456-1.3-8.812-3.65 c-2.351-2.357-3.646-5.485-3.649-8.811c0.003-3.326,1.298-6.455,3.648-8.811c2.359-2.353,5.488-3.648,8.812-3.649h0.001 c3.322,0.001,6.451,1.296,8.81,3.646c2.353,2.36,3.649,5.489,3.65,8.812c-0.001,3.325-1.297,6.454-3.648,8.81 C61.566,100.238,58.438,101.535,55.114,101.538z M55.113,78.617c-2.791,0.001-5.418,1.089-7.398,3.063 c-1.971,1.978-3.06,4.605-3.062,7.397c0.002,2.791,1.091,5.418,3.064,7.396c1.977,1.973,4.604,3.062,7.397,3.064 c2.79-0.003,5.417-1.092,7.397-3.066c1.973-1.977,3.061-4.604,3.062-7.396c-0.001-2.79-1.09-5.417-3.064-7.398 C60.53,79.706,57.902,78.618,55.113,78.617z"/>
    <circle class="s0" cx="55.138" cy="89.277" r="11.108"/>
  </g>
  <g
    id="zeroes-and-ones">
    <!-- TODO: create single 0 and 1, and use `use` elements -->
    <path class="s1" d="M46.276,81.017c0,1.773-0.666,2.753-1.814,2.753c-1.019,0-1.717-0.955-1.733-2.681 c0-1.758,0.762-2.713,1.822-2.713C45.643,78.376,46.276,79.355,46.276,81.017z M43.443,81.097c0,1.356,0.417,2.127,1.059,2.127 c0.714,0,1.06-0.843,1.06-2.175c0-1.284-0.321-2.127-1.06-2.127C43.893,78.922,43.443,79.676,43.443,81.097z"/>
    <path class="s1" d="M48.451,79.122h-0.016l-0.907,0.49l-0.136-0.538l1.14-0.61h0.602v5.217h-0.682L48.451,79.122 L48.451,79.122z"/>
    <path class="s1" d="M54.51,81.017c0,1.773-0.666,2.753-1.814,2.753c-1.019,0-1.717-0.955-1.733-2.681 c0-1.758,0.762-2.713,1.822-2.713C53.876,78.376,54.51,79.355,54.51,81.017z M51.677,81.097c0,1.356,0.417,2.127,1.059,2.127 c0.714,0,1.06-0.843,1.06-2.175c0-1.284-0.321-2.127-1.06-2.127C52.126,78.922,51.677,79.676,51.677,81.097z"/>
    <path class="s1" d="M56.684,79.122h-0.016l-0.907,0.49l-0.136-0.538l1.14-0.61h0.602v5.217h-0.682L56.684,79.122 L56.684,79.122z"/>
    <path class="s1" d="M62.743,81.017c0,1.773-0.666,2.753-1.814,2.753c-1.019,0-1.717-0.955-1.733-2.681 c0-1.758,0.762-2.713,1.822-2.713C62.109,78.376,62.743,79.355,62.743,81.017z M59.91,81.097c0,1.356,0.417,2.127,1.059,2.127 c0.714,0,1.06-0.843,1.06-2.175c0-1.284-0.321-2.127-1.06-2.127C60.359,78.922,59.91,79.676,59.91,81.097z"/>
    <path class="s1" d="M66.86,81.017c0,1.773-0.666,2.753-1.814,2.753c-1.019,0-1.717-0.955-1.733-2.681 c0-1.758,0.762-2.713,1.822-2.713C66.226,78.376,66.86,79.355,66.86,81.017z M64.027,81.097c0,1.356,0.417,2.127,1.059,2.127 c0.714,0,1.06-0.843,1.06-2.175c0-1.284-0.321-2.127-1.06-2.127C64.476,78.922,64.027,79.676,64.027,81.097z"/>
    <path class="s1" d="M46.276,89.041c0,1.773-0.666,2.753-1.814,2.753c-1.019,0-1.717-0.955-1.733-2.681 c0-1.758,0.762-2.713,1.822-2.713C45.643,86.4,46.276,87.38,46.276,89.041z M43.443,89.122c0,1.356,0.417,2.127,1.059,2.127 c0.714,0,1.06-0.843,1.06-2.176c0-1.284-0.321-2.126-1.06-2.126C43.893,86.947,43.443,87.701,43.443,89.122z"/>
    <path class="s1" d="M48.451,87.146h-0.016l-0.907,0.489l-0.136-0.538l1.14-0.608h0.602v5.217h-0.682L48.451,87.146 L48.451,87.146z"/>
    <path class="s1" d="M52.567,87.146h-0.016l-0.907,0.489l-0.137-0.538l1.14-0.608h0.602v5.217h-0.682V87.146z"/>
    <path class="s1" d="M58.626,89.041c0,1.773-0.666,2.753-1.814,2.753c-1.019,0-1.717-0.955-1.733-2.681 c0-1.758,0.762-2.713,1.822-2.713C57.993,86.4,58.626,87.38,58.626,89.041z M55.793,89.122c0,1.356,0.417,2.127,1.059,2.127 c0.714,0,1.06-0.843,1.06-2.176c0-1.284-0.321-2.126-1.06-2.126C56.243,86.947,55.793,87.701,55.793,89.122z"/>
    <path class="s1" d="M60.801,87.146h-0.016l-0.907,0.489l-0.137-0.538l1.14-0.608h0.602v5.217h-0.682V87.146z"/>
    <path class="s1" d="M66.86,89.041c0,1.773-0.666,2.753-1.814,2.753c-1.019,0-1.717-0.955-1.733-2.681 c0-1.758,0.762-2.713,1.822-2.713C66.226,86.4,66.86,87.38,66.86,89.041z M64.027,89.122c0,1.356,0.417,2.127,1.059,2.127 c0.714,0,1.06-0.843,1.06-2.176c0-1.284-0.321-2.126-1.06-2.126C64.476,86.947,64.027,87.701,64.027,89.122z"/>
    <path class="s1" d="M46.035,95.173h-0.016l-0.907,0.489l-0.137-0.538l1.14-0.608h0.602v5.217h-0.682V95.173z"/>
    <path class="s1" d="M52.094,97.066c0,1.773-0.666,2.752-1.814,2.752c-1.019,0-1.717-0.954-1.733-2.68 c0-1.759,0.762-2.714,1.822-2.714C51.46,94.426,52.094,95.404,52.094,97.066z M49.261,97.146c0,1.356,0.417,2.127,1.059,2.127 c0.714,0,1.06-0.842,1.06-2.176c0-1.283-0.321-2.127-1.06-2.127C49.71,94.973,49.261,95.727,49.261,97.146z"/>
    <path class="s1" d="M56.211,97.066c0,1.773-0.666,2.752-1.814,2.752c-1.019,0-1.717-0.954-1.733-2.68 c0-1.759,0.762-2.714,1.822-2.714C55.577,94.426,56.211,95.404,56.211,97.066z M53.378,97.146c0,1.356,0.417,2.127,1.059,2.127 c0.714,0,1.06-0.842,1.06-2.176c0-1.283-0.321-2.127-1.06-2.127C53.827,94.973,53.378,95.727,53.378,97.146z"/>
    <path class="s1" d="M58.385,95.173h-0.016l-0.907,0.489l-0.136-0.538l1.14-0.608h0.602v5.217h-0.682v-4.56H58.385z"/>
    <path class="s1" d="M62.502,95.173h-0.016l-0.907,0.489l-0.136-0.538l1.14-0.608h0.602v5.217h-0.682L62.502,95.173 L62.502,95.173z"/>
    <path class="s1" d="M66.619,95.173h-0.016l-0.907,0.489l-0.137-0.538l1.14-0.608h0.602v5.217h-0.682V95.173z"/>
  </g>
</svg>
