<svg id="icon-radial_column_chart" xmlns="http://www.w3.org/2000/svg" viewBox="0 0 130 130">
  <style>
    .bg {
      fill: hsl(280, 84%, 31%);
    }
    .c1 {
      fill: none;
    }
    .c2 {
      stroke: #FFFFFF;
      stroke-width: 2px;
    }
    .c3 {
      stroke-width: 0.5px;
    }
    .c4 {
      stroke-width: 5.5px;
    }
  </style>
  <circle class="bg" cx="65" cy="65" r="64"/>
  <g id="Layer_4">
    <circle class="c1 c2 c3" opacity="0.5" cx="65" cy="65" r="46.038"/>
    <circle class="c1 c2 c3" opacity="0.5" cx="65" cy="65" r="32.041"/>
  </g>
  <g id="Layer_2">
    <line class="c1 c2 c4" x1="65" y1="65" x2="65" y2="19"/>
    <line class="c1 c2 c4" x1="65" y1="65" x2="65" y2="106"/>
    <line class="c1 c2 c4" x1="65" y1="65" x2="21" y2="65"/>
    <line class="c1 c2 c4" x1="65" y1="65" x2="93.75" y2="65"/>
    <line class="c1 c2 c4" x1="65" y1="65" x2="95.125" y2="34.875"/>
    <line class="c1 c2 c4" x1="65" y1="65" x2="94.75" y2="95.125"/>
    <line class="c1 c2 c4" x1="65" y1="65" x2="36.625" y2="36.625"/>
    <line class="c1 c2 c4" x1="65" y1="65" x2="34.167" y2="95.833"/>
    <line class="c1 c2 c4" x1="65" y1="65" x2="79.375" y2="29.75"/>
    <line class="c1 c2 c4" x1="65" y1="65" x2="101.5" y2="49.938"/>
    <line class="c1 c2 c4" x1="65" y1="65" x2="95.25" y2="77.625"/>
    <line class="c1 c2 c4" x1="65" y1="65" x2="79.375" y2="101.5"/>
    <line class="c1 c2 c4" x1="65" y1="65" x2="55.736" y2="87.669"/>
    <line class="c1 c2 c4" x1="65" y1="65" x2="34.167" y2="77.25"/>
    <line class="c1 c2 c4" x1="65" y1="65" x2="36.375" y2="53.25"/>
    <line class="c1 c2 c4" x1="65" y1="65" x2="51" y2="30.5"/>
  </g>
  <g id="Layer_3">
    <circle class="bg c2" cx="65" cy="65" r="14.214"/>
  </g>
</svg>
