<svg id="icon-ternary_graph" xmlns="http://www.w3.org/2000/svg" viewBox="0 0 130 130">
  <style>
    .bg {
      fill: hsl(280, 84%, 31%);
    }
    .c1 {
      fill: #FFFFFF;
    }
  </style>
  <circle class="bg" cx="65" cy="65" r="64"/>
  <path class="c1" d="M65,24.4L25,93.6h80L65,24.4z M42.9,66.5h10.3c0.1,1.2,0.8,2.3,1.8,2.9l-5.5,9.5L42.6,67L42.9,66.5z M50.5,53.3
  	h13.8l-5.4,9.2c-0.5-0.3-1.2-0.5-1.8-0.5c-0.6,0-1.2,0.2-1.8,0.4l-5.1-8.7L50.5,53.3z M65,53.3L72.2,66l0,0.1H61.1
  	c0-1.3-0.7-2.5-1.7-3.2l5.5-9.5H65z M65.5,53.3h14l-7,12.2L65.5,53.3z M61,66.5h10.9l-7.1,12.3l-5.5-9.5
  	C60.2,68.7,60.9,67.7,61,66.5z M55.4,69.6c0.5,0.3,1.1,0.4,1.7,0.4c0.6,0,1.2-0.2,1.8-0.4l5.5,9.5H49.9L55.4,69.6z M72.5,66.5
  	L72.5,66.5l7.3,12.6H65.2L72.5,66.5z M87.3,66.8l-7,12.1l-7.2-12.4h14L87.3,66.8z M87.6,67.3l6.8,11.8H80.8L87.6,67.3z M72.8,66
  	L72.8,66l7-12.2L86.9,66H72.8z M65.2,52.8l-0.1-0.1l7-12.1l7,12.2H65.2z M71.9,40.2l-7,12.1l-6.9-12l0.3-0.5h13.4L71.9,40.2z
  	 M64.6,52.7l-0.1,0.1H50.8l7-12.1L64.6,52.7z M54.9,62.8c-1.1,0.7-1.8,1.9-1.8,3.3h-10l6.8-11.8L54.9,62.8z M49,79.1H35.6l6.7-11.6
  	L49,79.1z M35.3,79.6H49L42,91.7h-0.5L35,80.1L35.3,79.6z M49.4,79.8l6.9,11.9H42.5L49.4,79.8z M49.9,79.6h14.5l-7,12.1h-0.6
  	L49.9,79.6z M64.8,79.8l6.9,11.9H58L64.8,79.8z M65.2,79.6h14.7l-7.1,12.1h-0.6L65.2,79.6z M80.3,79.9l6.8,11.8H73.4L80.3,79.9z
  	 M80.6,79.6h14l0.3,0.5l-6.8,11.6h-0.6L80.6,79.6z M95.3,80.6l6.4,11.1H88.7L95.3,80.6z M71.4,39.3H58.6L65,28.2L71.4,39.3z
  	 M34.8,80.6l6.1,11.2H28.3L34.8,80.6z"/>
</svg>
