<svg id="icon-connected_scatterplot" xmlns="http://www.w3.org/2000/svg" viewBox="0 0 130 130">
  <style>
    .bg {
      fill: hsl(280, 84%, 31%);
    }
    .c1 {
      fill: #FFFFFF;
    }
  </style>
  <g>
   <circle class="bg" cx="65" cy="65" r="64"/>
  </g>
  <g>
    <path class="c1" d="M45.1,80.6c0.6,0,1.2-0.2,1.7-0.5l6.7,6c-0.2,0.4-0.4,0.9-0.4,1.4c0,1.7,1.4,3.1,3.1,3.1s3.1-1.4,3.1-3.1
      		s-1.4-3.1-3.1-3.1c-0.6,0-1.2,0.2-1.7,0.5l-6.7-6c0.2-0.4,0.4-0.9,0.4-1.4c0-0.5-0.1-0.9-0.3-1.3l9.6-8.1c0.5,0.4,1.1,0.6,1.8,0.6
      		c0.8,0,1.5-0.3,2.1-0.8l8.7,5.6c-0.1,0.3-0.2,0.6-0.2,1c0,1.7,1.4,3.1,3.1,3.1c1.7,0,3.1-1.4,3.1-3.1c0-0.4-0.1-0.8-0.2-1.1
      		l9.3-6.8c0.5,0.4,1.2,0.7,2,0.7c1.7,0,3.1-1.4,3.1-3.1c0-1.1-0.6-2.1-1.5-2.6l3.7-12.3c0,0,0.1,0,0.1,0c1.7,0,3.1-1.4,3.1-3.1
      		c0-1.7-1.4-3.1-3.1-3.1c-1,0-1.8,0.5-2.4,1.2l-10.1-4.5c0-0.2,0.1-0.4,0.1-0.5c0-1.7-1.4-3.1-3.1-3.1c-1.7,0-3.1,1.4-3.1,3.1
      		c0,0.1,0,0.2,0,0.3l-9,3.1c-0.5-0.8-1.5-1.4-2.6-1.4c-1,0-2,0.5-2.5,1.3l-10.3-3.9c0-0.1,0-0.2,0-0.4c0-1.7-1.4-3.1-3.1-3.1
      		c-1.7,0-3.1,1.4-3.1,3.1s1.4,3.1,3.1,3.1c1,0,2-0.5,2.5-1.3l10.3,3.9c0,0.1,0,0.2,0,0.4c0,1.7,1.4,3.1,3.1,3.1
      		c1.7,0,3.1-1.4,3.1-3.1c0-0.1,0-0.2,0-0.3l9-3.1c0.5,0.8,1.5,1.4,2.6,1.4c1,0,1.8-0.5,2.4-1.2l10.1,4.5c0,0.2-0.1,0.4-0.1,0.5
      		c0,1.1,0.6,2.1,1.5,2.6l-3.7,12.3c0,0-0.1,0-0.1,0c-1.7,0-3.1,1.4-3.1,3.1c0,0.4,0.1,0.8,0.2,1.1l-9.3,6.8c-0.5-0.4-1.2-0.7-2-0.7
      		c-0.8,0-1.5,0.3-2.1,0.8l-8.7-5.6c0.1-0.3,0.2-0.6,0.2-1c0-1.7-1.4-3.1-3.1-3.1c-1.7,0-3.1,1.4-3.1,3.1c0,0.5,0.1,0.9,0.3,1.3
      		L46.8,75c-0.5-0.4-1.1-0.6-1.8-0.6c-1.7,0-3.1,1.4-3.1,3.1C42,79.2,43.4,80.6,45.1,80.6z"/>
    <path class="c1" d="M99.2,95.2H32.3v-62c0-0.8-0.7-1.5-1.5-1.5c-0.8,0-1.5,0.7-1.5,1.5v65h69.8c0.8,0,1.5-0.7,1.5-1.5
    		S100,95.2,99.2,95.2z"/>
  </g>
</svg>
