<svg id="icon-density_plot" xmlns="http://www.w3.org/2000/svg" viewBox="0 0 130 130">
  <style>
    .bg {
      fill: hsl(280, 84%, 31%);
    }
    .c1 {
      fill: #FFFFFF;
    }
  </style>
  <circle class="bg" cx="65" cy="65" r="64"/>
  <g>
    <path class="c1" d="M104.549,95.062c-25.391,0.336-51.405,0.047-77.036,0.144c2.357-0.66,4.854-1.183,6.468-2.587
          c6.778-8.291,10.249-22.421,12.791-35.5c1.056-5.427,2.219-11.146,3.45-17.104c0.91-4.408,3.315-17.666,9.197-13.941
          c2.773,1.755,4.147,6.313,5.317,10.493c2.368,8.437,4.145,16.46,6.325,25.008c0.897,3.521,2.319,8.788,4.312,11.354
          c0.604,0.773,1.854,1.855,2.729,2.156c1.741,0.594,3.725-0.137,5.461,0.286c2.951,0.717,4.762,4.194,6.323,7.042
          c1.487,2.708,3.231,6.051,5.032,8.191C97.186,93.307,99.561,94.872,104.549,95.062z"/>
  </g>
</svg>
