<svg id="icon-how_things_work" xmlns="http://www.w3.org/2000/svg" viewBox="0 0 170 170">
  <style>
    .bg {
      fill: hsl(312, 100%, 31%);
    }
    .c1 {
      fill: #FFFFFF;
    }
    .c2 {
      fill: none;
      stroke: #FFFFFF;
      stroke-width: 2px;
    }
    .c3 {
      stroke-width: 1px;
    }
    .c4 {
      stroke-width: 3px;
    }
  </style>
  <circle class="bg" cx="85" cy="85" r="84.5"/>
  <g>
    <g id="device">
      <rect class="c2 c4" x="59.8" y="43.7" width="48.5" height="75.7" rx="5.5" ry="5.5"/>
      <rect class="c2 c3" x="65" y="49.5" width="38" height="57" rx="5.5" ry="5.5"/>
      <circle class="c2 c3" cx="84" cy="112.5" r="2.5"/>
    </g>
    <g id="annotations">
      <g>
        <polygon class="bg" points="71.722,74.389 54.96,57.627 48.748,57.627 48.748,53.627 56.618,53.627 74.55,71.561"/>
        <polygon class="c1" points="72.783,73.329 55.582,56.127 48.748,56.127 48.748,55.127 55.996,55.127 73.49,72.622"/>
        <circle class="c1" cx="73.136" cy="72.975" r="2.15"/>
        <rect class="c1" x="29.375" y="53.286" width="16.112" height="4"/>
      </g>
      <g>
        <polygon class="bg" points="54.449,114.729 48.75,114.729 48.75,110.729 52.793,110.729 62.144,101.38 64.972,104.208"/>
        <polygon class="c1" points="53.828,113.229 48.75,113.229 48.75,112.229 53.414,112.229 63.205,102.439 63.912,103.146"/>
        <circle class="c1" cx="64.59" cy="102.067" r="2.15"/>
        <rect class="c1" x="29.375" y="110.387" width="16.112" height="4"/>
      </g>
      <g>
        <polygon class="bg" points="83.654,86.693 80.826,83.865 107.29,57.401 118.635,57.401 118.635,61.401 108.945,61.401"/>
        <polygon class="c1" points="82.594,85.633 81.887,84.926 107.911,58.901 118.635,58.901 118.635,59.901 108.325,59.901"/>
        <circle class="c1" cx="82.348" cy="85.442" r="2.15"/>
        <rect class="c1" x="123.154" y="57.081" width="16.113" height="4"/>
      </g>
      <g>
        <polygon class="bg" points="117.697,127.352 107.213,127.352 94.133,114.27 96.961,111.441 108.869,123.352 117.697,123.352"/>
        <polygon class="c1" points="117.697,125.852 107.834,125.852 95.193,113.209 95.9,112.502 108.248,124.852 117.697,124.852"/>
        <circle class="c1" cx="95.546" cy="112.856" r="2.15"/>
        <rect class="c1" x="123.154" y="123.757" width="16.113" height="4"/>
      </g>
    </g>
  </g>
</svg>
