<svg id="icon-marimekko_2" xmlns="http://www.w3.org/2000/svg" viewBox="0 0 130 130">
  <style>
    .bg {
      fill: hsl(280, 84%, 31%);
    }
    .c1 {
      fill: #FFFFFF;
    }
  </style>
  <circle class="bg" cx="65" cy="65" r="64"/>
  <g>
    <path class="c1" d="M30,96.7h27.5V33.5H30V96.7z M42.2,67.6l8.4-10.2h2.3l-8.4,10.2H42.2z M41,67.6h-2.1l8.4-10.2h2.1L41,67.6z
      		 M37.7,67.6h-2.2l8.4-10.2h2.2L37.7,67.6z M34.3,67.6H32l8.4-10.2h2.2L34.3,67.6z M31.9,66.3v-2.5l5.2-6.4h2.1L31.9,66.3z
      		 M31.9,62.3v-4.9h4L31.9,62.3z M55.5,63.5l-3.3,4.1h-2.7l6-7.4V63.5z M55.5,65v2.6h-2.2L55.5,65z M55.5,58.8l-7.2,8.8h-2.6
      		l8.4-10.2h1.5V58.8z M31.9,35.5h23.6v20H31.9V35.5z"/>
    <path class="c1" d="M83.6,33.4H60.8l0,63.2l22.9,0L83.6,33.4z M81.7,66l-4.8,5.8h-2.3l6.2-7.5h0.9V66z M81.7,67.5v4.4h-3.6
      		L81.7,67.5z M69.4,64.3l-6.2,7.5h-0.5v-1.9l4.6-5.6H69.4z M70.6,64.3h2.2l-6.2,7.5h-2.2L70.6,64.3z M74,64.3h2.2l-6.2,7.5h-2.2
      		L74,64.3z M77.4,64.3h2.1l-6.2,7.5h-2.1L77.4,64.3z M62.7,35.4h19v26.9h-19V35.4z M66.2,64.3l-3.4,4.2v-4.2H66.2z"/>
    <path class="c1" d="M87.1,33.3v63.3H100V33.3H87.1z M98.1,73.2l-3.5,4.2h-2.1l5.6-6.8V73.2z M98.1,74.6v2.8h-2.3L98.1,74.6z
    		 M98.1,69.1l-6.8,8.3H89l7-8.5h2V69.1z M89,76v-2.7l3.6-4.4h2.2L89,76z M89,71.8v-2.9h2.4L89,71.8z M89,35.3h9v30.9h-9V35.3z"/>
  </g>
</svg>
