<svg id="icon-arc_dot_chart" xmlns="http://www.w3.org/2000/svg" viewBox="0 0 130 130">
  <style>
    .bg {
      fill: hsl(280, 84%, 31%);
    }
    .c1 {
      fill: #FFFFFF;
    }
  </style>
  <circle class="bg" cx="65" cy="65" r="64"/>
  <g>
    <circle class="c1" cx="21" cy="81.1" r="2.7"/>
    <circle class="c1" cx="30.3" cy="81.1" r="2.7"/>
    <circle class="c1" cx="39.8" cy="81.1" r="2.7"/>
    <circle class="c1" cx="22.7" cy="72.4" r="2.7"/>
    <circle class="c1" cx="32.1" cy="72.4" r="2.7"/>
    <circle class="c1" cx="41.6" cy="72.4" r="2.7"/>
    <circle class="c1" cx="26" cy="63.2" r="2.7"/>
    <circle class="c1" cx="35.3" cy="63.2" r="2.7"/>
    <circle class="c1" cx="44.8" cy="63.2" r="2.7"/>
    <circle class="c1" cx="54.1" cy="63.2" r="2.7"/>
    <path class="c1" d="M109.2,79.4c1,0,1.7,0.8,1.7,1.7c0,1-0.8,1.7-1.7,1.7c-1,0-1.7-0.8-1.7-1.7C107.5,80.2,108.3,79.4,109.2,79.4
      		 M109.2,78.4c-1.5,0-2.7,1.2-2.7,2.7s1.2,2.7,2.7,2.7s2.7-1.2,2.7-2.7S110.7,78.4,109.2,78.4L109.2,78.4z"/>
    <path class="c1" d="M99.9,79.4c1,0,1.7,0.8,1.7,1.7c0,1-0.8,1.7-1.7,1.7c-1,0-1.7-0.8-1.7-1.7C98.2,80.2,99,79.4,99.9,79.4
      		 M99.9,78.4c-1.5,0-2.7,1.2-2.7,2.7s1.2,2.7,2.7,2.7s2.7-1.2,2.7-2.7S101.4,78.4,99.9,78.4L99.9,78.4z"/>
    <path class="c1" d="M90.4,79.4c1,0,1.7,0.8,1.7,1.7c0,1-0.8,1.7-1.7,1.7c-1,0-1.7-0.8-1.7-1.7C88.6,80.2,89.4,79.4,90.4,79.4
      		 M90.4,78.4c-1.5,0-2.7,1.2-2.7,2.7s1.2,2.7,2.7,2.7s2.7-1.2,2.7-2.7S91.9,78.4,90.4,78.4L90.4,78.4z"/>
    <path class="c1" d="M107.5,70.7c1,0,1.7,0.8,1.7,1.7s-0.8,1.7-1.7,1.7c-1,0-1.7-0.8-1.7-1.7S106.5,70.7,107.5,70.7 M107.5,69.7
      		c-1.5,0-2.7,1.2-2.7,2.7s1.2,2.7,2.7,2.7c1.5,0,2.7-1.2,2.7-2.7S109,69.7,107.5,69.7L107.5,69.7z"/>
    <path class="c1" d="M98.1,70.7c1,0,1.7,0.8,1.7,1.7s-0.8,1.7-1.7,1.7s-1.7-0.8-1.7-1.7S97.2,70.7,98.1,70.7 M98.1,69.7
      		c-1.5,0-2.7,1.2-2.7,2.7s1.2,2.7,2.7,2.7s2.7-1.2,2.7-2.7S99.6,69.7,98.1,69.7L98.1,69.7z"/>
    <path class="c1" d="M88.6,70.7c1,0,1.7,0.8,1.7,1.7s-0.8,1.7-1.7,1.7c-1,0-1.7-0.8-1.7-1.7S87.6,70.7,88.6,70.7 M88.6,69.7
      		c-1.5,0-2.7,1.2-2.7,2.7s1.2,2.7,2.7,2.7s2.7-1.2,2.7-2.7S90.1,69.7,88.6,69.7L88.6,69.7z"/>
    <path class="c1" d="M104.2,61.5c1,0,1.7,0.8,1.7,1.7c0,1-0.8,1.7-1.7,1.7c-1,0-1.7-0.8-1.7-1.7C102.5,62.3,103.3,61.5,104.2,61.5
      		 M104.2,60.5c-1.5,0-2.7,1.2-2.7,2.7c0,1.5,1.2,2.7,2.7,2.7c1.5,0,2.7-1.2,2.7-2.7C107,61.7,105.8,60.5,104.2,60.5L104.2,60.5z"/>
    <path class="c1" d="M94.9,61.5c1,0,1.7,0.8,1.7,1.7c0,1-0.8,1.7-1.7,1.7c-1,0-1.7-0.8-1.7-1.7C93.2,62.3,94,61.5,94.9,61.5
      		 M94.9,60.5c-1.5,0-2.7,1.2-2.7,2.7c0,1.5,1.2,2.7,2.7,2.7s2.7-1.2,2.7-2.7C97.7,61.7,96.4,60.5,94.9,60.5L94.9,60.5z"/>
    <path class="c1" d="M85.4,61.5c1,0,1.7,0.8,1.7,1.7c0,1-0.8,1.7-1.7,1.7c-1,0-1.7-0.8-1.7-1.7C83.7,62.3,84.4,61.5,85.4,61.5
      		 M85.4,60.5c-1.5,0-2.7,1.2-2.7,2.7c0,1.5,1.2,2.7,2.7,2.7s2.7-1.2,2.7-2.7C88.1,61.7,86.9,60.5,85.4,60.5L85.4,60.5z"/>
    <path class="c1" d="M76.1,61.5c1,0,1.7,0.8,1.7,1.7c0,1-0.8,1.7-1.7,1.7c-1,0-1.7-0.8-1.7-1.7C74.3,62.3,75.1,61.5,76.1,61.5
      		 M76.1,60.5c-1.5,0-2.7,1.2-2.7,2.7c0,1.5,1.2,2.7,2.7,2.7s2.7-1.2,2.7-2.7C78.8,61.7,77.6,60.5,76.1,60.5L76.1,60.5z"/>
    <circle class="c1" cx="32.6" cy="54.2" r="2.7"/>
    <circle class="c1" cx="42" cy="54.2" r="2.7"/>
    <circle class="c1" cx="51.3" cy="54.2" r="2.7"/>
    <circle class="c1" cx="60.7" cy="54.2" r="2.7"/>
    <circle class="c1" cx="70" cy="54.2" r="2.7"/>
    <path class="c1" d="M79.4,52.5c1,0,1.7,0.8,1.7,1.7S80.3,56,79.4,56s-1.7-0.8-1.7-1.7S78.4,52.5,79.4,52.5 M79.4,51.5
      		c-1.5,0-2.7,1.2-2.7,2.7s1.2,2.7,2.7,2.7s2.7-1.2,2.7-2.7S80.9,51.5,79.4,51.5L79.4,51.5z"/>
    <path class="c1" d="M88.7,52.5c1,0,1.7,0.8,1.7,1.7S89.7,56,88.7,56c-1,0-1.7-0.8-1.7-1.7S87.8,52.5,88.7,52.5 M88.7,51.5
      		c-1.5,0-2.7,1.2-2.7,2.7s1.2,2.7,2.7,2.7s2.7-1.2,2.7-2.7S90.2,51.5,88.7,51.5L88.7,51.5z"/>
    <path class="c1" d="M98.1,52.5c1,0,1.7,0.8,1.7,1.7S99,56,98.1,56c-1,0-1.7-0.8-1.7-1.7S97.1,52.5,98.1,52.5 M98.1,51.5
      		c-1.5,0-2.7,1.2-2.7,2.7s1.2,2.7,2.7,2.7c1.5,0,2.7-1.2,2.7-2.7S99.6,51.5,98.1,51.5L98.1,51.5z"/>
    <circle class="c1" cx="42.1" cy="45.5" r="2.7"/>
    <circle class="c1" cx="51.4" cy="45.5" r="2.7"/>
    <circle class="c1" cx="51.4" cy="36.9" r="2.7"/>
    <circle class="c1" cx="60.7" cy="45.5" r="2.7"/>
    <circle class="c1" cx="60.7" cy="36.9" r="2.7"/>
    <circle class="c1" cx="70" cy="45.5" r="2.7"/>
    <circle class="c1" cx="70" cy="36.9" r="2.7"/>
    <circle class="c1" cx="79.4" cy="45.5" r="2.7"/>
    <circle class="c1" cx="79.4" cy="37.1" r="2.7"/>
    <path class="c1" d="M88.7,43.8c1,0,1.7,0.8,1.7,1.7s-0.8,1.7-1.7,1.7c-1,0-1.7-0.8-1.7-1.7S87.8,43.8,88.7,43.8 M88.7,42.8
    		c-1.5,0-2.7,1.2-2.7,2.7s1.2,2.7,2.7,2.7s2.7-1.2,2.7-2.7S90.2,42.8,88.7,42.8L88.7,42.8z"/>
  </g>
</svg>
