<svg id="icon-win_loss_chart" xmlns="http://www.w3.org/2000/svg" viewBox="0 0 130 130">
  <style>
    .bg {
      fill: hsl(280, 84%, 31%);
    }
    .c1 {
      fill: #FFFFFF;
    }
    .c2 {
      opacity: 0.4;
    }
  </style>
  <circle class="bg" cx="65" cy="65" r="64"/>
  <g>
    <g>
      <rect class="c1" x="32.5" y="31" width="9.3" height="9.3"/>
      <rect class="c1" x="51.1" y="31" width="18.6" height="9.3"/>
      <rect class="c1" x="78.9" y="31" width="9.3" height="9.3"/>
      <rect class="c1" x="41.8" y="56.1" width="27.9" height="9.3"/>
      <rect class="c1" x="78.9" y="56.1" width="18.6" height="9.3"/>
      <rect class="c1" x="51.1" y="80.4" width="9.3" height="9.3"/>
      <rect class="c1" x="78.9" y="80.4" width="9.3" height="9.3"/>
    </g>
    <g class="c2">
      <rect class="c1" x="41.8" y="40.3" width="9.3" height="9.3"/>
      <rect class="c1" x="32.5" y="65.4" width="9.3" height="9.3"/>
      <rect class="c1" x="69.6" y="65.4" width="9.3" height="9.3"/>
      <polygon class="c1" points="32.5,89.7 32.5,99 41.8,99 51.1,99 51.1,89.7 41.8,89.7 "/>
      <polygon class="c1" points="60.4,89.7 60.4,99 69.6,99 78.9,99 78.9,89.7 69.6,89.7 "/>
      <rect class="c1" x="88.2" y="89.7" width="9.3" height="9.3"/>
      <rect class="c1" x="69.6" y="40.3" width="9.3" height="9.3"/>
      <rect class="c1" x="88.2" y="40.3" width="9.3" height="9.3"/>
    </g>
  </g>
</svg>
