<svg id="icon-area_bands" xmlns="http://www.w3.org/2000/svg" viewBox="0 0 130 130">
  <style>
    .bg {
      fill: hsl(280, 84%, 31%);
    }
    .c1 {
      fill: #FFFFFF;
    }
  </style>
  <circle class="bg" cx="65" cy="65" r="64"/>
  <g>
    <g>
      <path class="c1" d="M97.5,98.5h-65c-0.6,0-1-0.4-1-1v-65c0-0.6,0.4-1,1-1s1,0.4,1,1v64h64c0.6,0,1,0.4,1,1S98.1,98.5,97.5,98.5z"/>
    </g>
    <g>
      <g>
        <path class="c1" d="M36.3,84.7L47.4,82l8.7,1.2L65,72.7L75.2,82l12.8-15l9.4,4.2V60.7l-8.4-3.9c-0.3,0.3-0.7,0.5-1.2,0.5
        				c-0.3,0-0.5-0.1-0.8-0.2L76.7,67.3c0.1,0.2,0.2,0.5,0.2,0.7c0,0.9-0.7,1.6-1.6,1.6c-0.9,0-1.6-0.7-1.6-1.6l-7.3-2.2
        				c-0.3,0.4-0.8,0.7-1.3,0.7c-0.2,0-0.4,0-0.6-0.1l-7,8.6c0.1,0.2,0.2,0.5,0.2,0.7c0,0.9-0.7,1.6-1.6,1.6c-0.8,0-1.5-0.6-1.6-1.4
        				l-5.7-2c-0.3,0.4-0.7,0.7-1.3,0.7c-0.4,0-0.7-0.2-1-0.4l-10.1,6.5V84.7z"/>
      </g>
      <g>
        <path class="c1" d="M97.5,59.6v-11l-9.4-6.2L75.7,59L65,48.1l-8.9,21.4l-8.7-7.3L36.3,74.7v4.8l9.5-6.2c0-0.1-0.1-0.3-0.1-0.4
        				c0-0.9,0.7-1.6,1.6-1.6S49,72.1,49,73c0,0,0,0,0,0l5.5,2c0.3-0.5,0.8-0.8,1.4-0.8c0.3,0,0.5,0.1,0.7,0.2l7-8.6
        				c-0.2-0.3-0.3-0.5-0.3-0.9c0-0.9,0.7-1.6,1.6-1.6c0.9,0,1.6,0.7,1.6,1.6l7.3,2.2c0.3-0.4,0.8-0.7,1.3-0.7c0.3,0,0.5,0.1,0.8,0.2
        				l10.5-10.1c-0.1-0.2-0.2-0.5-0.2-0.7c0-0.9,0.7-1.6,1.6-1.6c0.9,0,1.6,0.7,1.6,1.6c0,0.1,0,0.1,0,0.2L97.5,59.6z"/>
      </g>
    </g>
  </g>
</svg>
