<svg id="icon-stem_and_leaf_plot" xmlns="http://www.w3.org/2000/svg" viewBox="0 0 130 130">
  <style>
    .bg { 
      fill: hsl(280, 84%, 31%);
    }
    .c1 { 
      fill: #FFFFFF;
    }
    .c2 { 
      opacity: 0.8;
    }
  </style>
  <circle class="bg" cx="65" cy="65" r="64"/>
  <g>
    <g>
      <rect class="c1" x="31.743" y="27.681" width="72.257" height="1"/>
      <rect class="c1" x="46.322" y="22.929" width="1" height="88.055"/>
    </g>
    <g>
      <path class="c1" d="M37.147,34.458l1.98-0.966h0.198v6.87c0,0.456,0.019,0.739,0.057,0.852s0.117,0.198,0.237,0.258 c0.12,0.061,0.364,0.095,0.732,0.103v0.222h-3.06v-0.222c0.384-0.008,0.632-0.041,0.744-0.1c0.112-0.058,0.19-0.136,0.234-0.233 c0.044-0.099,0.066-0.392,0.066-0.879V35.97c0-0.592-0.02-0.972-0.06-1.14c-0.028-0.128-0.079-0.223-0.153-0.282 c-0.074-0.06-0.163-0.09-0.267-0.09c-0.148,0-0.354,0.062-0.618,0.186L37.147,34.458z"/>
      <g>
        <path class="c1 c2" d="M55.743,33.66l-0.468,1.02h-2.448l-0.534,1.092c1.06,0.156,1.9,0.551,2.52,1.183 c0.532,0.544,0.798,1.184,0.798,1.92c0,0.428-0.087,0.824-0.261,1.188c-0.174,0.364-0.393,0.675-0.657,0.931 c-0.264,0.256-0.558,0.462-0.882,0.618c-0.46,0.22-0.932,0.329-1.416,0.329c-0.488,0-0.843-0.083-1.065-0.249 c-0.222-0.165-0.333-0.349-0.333-0.549c0-0.111,0.046-0.211,0.138-0.297c0.092-0.086,0.208-0.129,0.348-0.129 c0.104,0,0.195,0.016,0.273,0.048c0.078,0.032,0.211,0.114,0.399,0.246c0.3,0.208,0.604,0.312,0.912,0.312 c0.468,0,0.879-0.178,1.233-0.531c0.354-0.354,0.531-0.785,0.531-1.293c0-0.492-0.158-0.951-0.474-1.377 c-0.316-0.426-0.752-0.755-1.308-0.987c-0.436-0.18-1.03-0.284-1.782-0.312l1.56-3.162H55.743z"/>
        <path class="c1 c2" d="M57.993,34.458l1.98-0.966h0.198v6.87c0,0.456,0.019,0.739,0.057,0.852s0.117,0.198,0.237,0.258 c0.12,0.061,0.364,0.095,0.732,0.103v0.222h-3.06v-0.222c0.384-0.008,0.632-0.041,0.744-0.1c0.112-0.058,0.19-0.136,0.234-0.233 c0.044-0.099,0.066-0.392,0.066-0.879V35.97c0-0.592-0.02-0.972-0.06-1.14c-0.028-0.128-0.079-0.223-0.153-0.282 c-0.074-0.06-0.163-0.09-0.267-0.09c-0.148,0-0.354,0.062-0.618,0.186L57.993,34.458z"/>
      </g>
    </g>
    <g>
      <path class="c1" d="M41.341,52.761l-0.57,1.566h-4.8v-0.222c1.412-1.288,2.406-2.34,2.982-3.156 c0.576-0.816,0.864-1.562,0.864-2.238c0-0.516-0.158-0.939-0.474-1.271c-0.316-0.332-0.694-0.498-1.134-0.498 c-0.4,0-0.759,0.117-1.077,0.351c-0.318,0.234-0.553,0.577-0.705,1.029h-0.222c0.1-0.74,0.357-1.309,0.771-1.704 c0.414-0.396,0.931-0.594,1.551-0.594c0.66,0,1.211,0.212,1.653,0.636c0.442,0.424,0.663,0.924,0.663,1.5 c0,0.412-0.096,0.824-0.288,1.236c-0.296,0.647-0.776,1.334-1.44,2.058c-0.996,1.088-1.618,1.744-1.866,1.968h2.124 c0.432,0,0.735-0.016,0.909-0.048c0.174-0.032,0.331-0.097,0.471-0.195c0.14-0.098,0.262-0.236,0.366-0.417H41.341z"/>
      <g>
        <path class="c1 c2" d="M56.042,52.078l-0.57,1.566h-4.8v-0.222c1.412-1.288,2.406-2.34,2.982-3.156 c0.576-0.816,0.864-1.562,0.864-2.238c0-0.516-0.158-0.939-0.474-1.271c-0.316-0.332-0.694-0.498-1.134-0.498 c-0.4,0-0.759,0.117-1.077,0.351c-0.318,0.234-0.553,0.577-0.705,1.029h-0.222c0.1-0.74,0.357-1.309,0.771-1.704 c0.414-0.396,0.931-0.594,1.551-0.594c0.66,0,1.211,0.212,1.653,0.636c0.442,0.424,0.663,0.924,0.663,1.5 c0,0.412-0.096,0.824-0.288,1.236c-0.296,0.647-0.776,1.334-1.44,2.058c-0.996,1.088-1.618,1.744-1.866,1.968h2.124 c0.432,0,0.735-0.016,0.909-0.048c0.174-0.032,0.331-0.097,0.471-0.195c0.14-0.098,0.262-0.236,0.366-0.417H56.042z"/>
        <path class="c1 c2" d="M57.993,46.307l1.98-0.966h0.198v6.87c0,0.456,0.019,0.739,0.057,0.852s0.117,0.198,0.237,0.258 c0.12,0.061,0.364,0.095,0.732,0.103v0.222h-3.06v-0.222c0.384-0.008,0.632-0.041,0.744-0.1c0.112-0.058,0.19-0.136,0.234-0.233 c0.044-0.099,0.066-0.392,0.066-0.879v-4.393c0-0.592-0.02-0.972-0.06-1.14c-0.028-0.128-0.079-0.223-0.153-0.282 c-0.074-0.06-0.163-0.09-0.267-0.09c-0.148,0-0.354,0.062-0.618,0.186L57.993,46.307z"/>
      </g>
      <g>
        <path class="c1 c2" d="M70.664,45.509l-0.469,1.02h-2.447l-0.535,1.092c1.061,0.156,1.9,0.551,2.521,1.183 c0.532,0.544,0.798,1.184,0.798,1.92c0,0.428-0.086,0.824-0.261,1.188c-0.174,0.364-0.394,0.675-0.657,0.931 s-0.558,0.462-0.882,0.618c-0.46,0.22-0.933,0.329-1.416,0.329c-0.487,0-0.843-0.083-1.065-0.249 c-0.221-0.165-0.332-0.349-0.332-0.549c0-0.111,0.045-0.211,0.138-0.297c0.092-0.086,0.208-0.129,0.349-0.129 c0.104,0,0.194,0.016,0.272,0.048c0.077,0.032,0.211,0.114,0.399,0.246c0.299,0.208,0.604,0.312,0.912,0.312 c0.467,0,0.879-0.178,1.232-0.531c0.354-0.354,0.531-0.785,0.531-1.293c0-0.492-0.158-0.951-0.475-1.377 s-0.752-0.755-1.308-0.987c-0.437-0.18-1.03-0.284-1.782-0.312l1.561-3.162H70.664z"/>
        <path class="c1 c2" d="M72.709,45.509h4.363v0.228l-2.713,8.076h-0.672l2.43-7.326h-2.238c-0.451,0-0.773,0.055-0.965,0.162 c-0.336,0.185-0.606,0.468-0.811,0.853l-0.174-0.066L72.709,45.509z"/>
      </g>

    </g>

    <g>
      <path class="c1" d="M36.332,60.271c0.232-0.548,0.525-0.971,0.879-1.27c0.354-0.298,0.795-0.446,1.323-0.446 c0.652,0,1.152,0.212,1.5,0.636c0.264,0.316,0.396,0.654,0.396,1.014c0,0.593-0.372,1.204-1.116,1.836 c0.5,0.196,0.878,0.477,1.134,0.841c0.256,0.363,0.384,0.792,0.384,1.283c0,0.704-0.224,1.314-0.672,1.83 c-0.584,0.672-1.43,1.008-2.538,1.008c-0.548,0-0.921-0.067-1.119-0.203c-0.198-0.137-0.297-0.282-0.297-0.438 c0-0.116,0.047-0.218,0.141-0.306c0.094-0.088,0.207-0.132,0.339-0.132c0.1,0,0.202,0.016,0.306,0.048 c0.068,0.02,0.222,0.093,0.462,0.219c0.24,0.126,0.406,0.201,0.498,0.225c0.148,0.044,0.306,0.066,0.474,0.066 c0.408,0,0.763-0.158,1.065-0.474c0.302-0.316,0.453-0.69,0.453-1.122c0-0.316-0.07-0.624-0.21-0.925 c-0.104-0.224-0.218-0.394-0.342-0.51c-0.172-0.16-0.408-0.305-0.708-0.435c-0.3-0.13-0.606-0.195-0.918-0.195h-0.192v-0.18 c0.316-0.04,0.633-0.154,0.951-0.342c0.318-0.188,0.549-0.414,0.693-0.679c0.144-0.264,0.216-0.554,0.216-0.87 c0-0.411-0.129-0.744-0.387-0.999c-0.258-0.254-0.579-0.381-0.963-0.381c-0.62,0-1.138,0.332-1.554,0.996L36.332,60.271z"/>
      <g>
        <path class="c1 c2" d="M50.97,59.912l1.98-0.966h0.198v6.87c0,0.456,0.019,0.739,0.057,0.852s0.117,0.198,0.237,0.258 c0.12,0.061,0.364,0.095,0.732,0.103v0.222h-3.06v-0.222c0.384-0.008,0.632-0.041,0.744-0.1c0.112-0.058,0.19-0.136,0.234-0.233 c0.044-0.099,0.066-0.392,0.066-0.879v-4.393c0-0.592-0.02-0.972-0.06-1.14c-0.028-0.128-0.079-0.223-0.153-0.282 c-0.074-0.06-0.163-0.09-0.267-0.09c-0.148,0-0.354,0.062-0.618,0.186L50.97,59.912z"/>
        <path class="c1 c2" d="M58.032,63.152c-0.644-0.528-1.059-0.952-1.245-1.272s-0.279-0.651-0.279-0.996 c0-0.527,0.204-0.982,0.612-1.365c0.408-0.382,0.95-0.572,1.626-0.572c0.656,0,1.184,0.178,1.584,0.534 c0.4,0.355,0.6,0.762,0.6,1.218c0,0.304-0.108,0.614-0.324,0.93c-0.216,0.316-0.666,0.688-1.35,1.116 c0.704,0.544,1.17,0.972,1.398,1.284c0.304,0.407,0.456,0.838,0.456,1.29c0,0.571-0.218,1.061-0.654,1.467 c-0.436,0.406-1.008,0.608-1.716,0.608c-0.772,0-1.374-0.241-1.806-0.726c-0.344-0.388-0.516-0.812-0.516-1.271 c0-0.36,0.121-0.718,0.363-1.071C57.023,63.971,57.44,63.58,58.032,63.152z M58.314,63.38c-0.332,0.28-0.578,0.585-0.738,0.915 c-0.16,0.33-0.24,0.688-0.24,1.071c0,0.516,0.141,0.929,0.423,1.239c0.282,0.31,0.641,0.465,1.077,0.465 c0.432,0,0.778-0.122,1.038-0.366c0.26-0.244,0.39-0.54,0.39-0.888c0-0.288-0.076-0.547-0.228-0.774 C59.752,64.618,59.178,64.064,58.314,63.38z M58.974,62.51c0.48-0.432,0.784-0.772,0.912-1.022s0.192-0.533,0.192-0.85 c0-0.42-0.118-0.749-0.354-0.986c-0.236-0.238-0.558-0.357-0.966-0.357s-0.74,0.118-0.996,0.354 c-0.256,0.235-0.384,0.512-0.384,0.827c0,0.208,0.053,0.416,0.159,0.624s0.257,0.406,0.453,0.595L58.974,62.51z"/>
      </g>
      <g>
        <path class="c1 c2" d="M69.865,65.684l-0.569,1.566h-4.8v-0.222c1.412-1.288,2.406-2.34,2.982-3.156 c0.575-0.816,0.863-1.562,0.863-2.238c0-0.516-0.158-0.939-0.474-1.271c-0.316-0.332-0.694-0.498-1.134-0.498 c-0.4,0-0.76,0.117-1.078,0.351c-0.317,0.234-0.552,0.577-0.704,1.029H64.73c0.1-0.74,0.357-1.309,0.771-1.704 c0.414-0.396,0.931-0.594,1.551-0.594c0.66,0,1.211,0.212,1.653,0.636c0.441,0.424,0.663,0.924,0.663,1.5 c0,0.412-0.097,0.824-0.288,1.236c-0.297,0.647-0.776,1.334-1.439,2.058c-0.996,1.088-1.619,1.744-1.867,1.968h2.125 c0.432,0,0.734-0.016,0.908-0.048s0.331-0.097,0.471-0.195c0.141-0.098,0.263-0.236,0.367-0.417H69.865z"/>
        <path class="c1 c2" d="M75.884,58.946v0.222c-0.528,0.052-0.959,0.157-1.293,0.315c-0.334,0.157-0.664,0.398-0.989,0.723 c-0.326,0.324-0.597,0.685-0.811,1.083s-0.393,0.871-0.537,1.419c0.576-0.396,1.154-0.594,1.734-0.594 c0.556,0,1.037,0.224,1.445,0.672s0.612,1.023,0.612,1.728c0,0.681-0.206,1.301-0.618,1.86c-0.496,0.68-1.152,1.02-1.968,1.02 c-0.556,0-1.028-0.184-1.416-0.552c-0.76-0.716-1.14-1.644-1.14-2.784c0-0.728,0.146-1.42,0.438-2.075 c0.292-0.656,0.709-1.238,1.251-1.746s1.062-0.851,1.558-1.026s0.957-0.264,1.386-0.264H75.884z M72.152,63.146 c-0.072,0.539-0.108,0.976-0.108,1.308c0,0.384,0.071,0.801,0.213,1.251s0.353,0.807,0.634,1.071 c0.203,0.188,0.451,0.281,0.743,0.281c0.349,0,0.659-0.164,0.933-0.491c0.274-0.328,0.412-0.796,0.412-1.404 c0-0.685-0.137-1.276-0.408-1.776c-0.272-0.5-0.658-0.75-1.158-0.75c-0.152,0-0.314,0.032-0.489,0.097 C72.749,62.796,72.492,62.934,72.152,63.146z"/>
      </g>
      <g>
        <path class="c1 c2" d="M85.587,59.114l-0.468,1.02h-2.448l-0.534,1.092c1.061,0.156,1.9,0.551,2.52,1.183 c0.533,0.544,0.799,1.184,0.799,1.92c0,0.428-0.087,0.824-0.262,1.188c-0.174,0.364-0.393,0.675-0.656,0.931 s-0.559,0.462-0.883,0.618c-0.459,0.22-0.932,0.329-1.416,0.329c-0.487,0-0.842-0.083-1.064-0.249 c-0.222-0.165-0.333-0.349-0.333-0.549c0-0.111,0.046-0.211,0.138-0.297s0.209-0.129,0.349-0.129 c0.104,0,0.194,0.016,0.272,0.048s0.211,0.114,0.399,0.246c0.3,0.208,0.604,0.312,0.912,0.312c0.468,0,0.879-0.178,1.233-0.531 c0.354-0.354,0.53-0.785,0.53-1.293c0-0.492-0.157-0.951-0.474-1.377s-0.752-0.755-1.309-0.987 c-0.436-0.18-1.029-0.284-1.781-0.312l1.56-3.162H85.587z"/>
        <path class="c1 c2" d="M87.837,59.912l1.979-0.966h0.199v6.87c0,0.456,0.018,0.739,0.057,0.852 c0.037,0.112,0.117,0.198,0.236,0.258c0.121,0.061,0.364,0.095,0.732,0.103v0.222H87.98v-0.222 c0.385-0.008,0.633-0.041,0.744-0.1c0.112-0.058,0.19-0.136,0.234-0.233c0.044-0.099,0.066-0.392,0.066-0.879v-4.393 c0-0.592-0.021-0.972-0.061-1.14c-0.027-0.128-0.079-0.223-0.152-0.282c-0.074-0.06-0.164-0.09-0.268-0.09 c-0.148,0-0.354,0.062-0.618,0.186L87.837,59.912z"/>
      </g>
    </g>


    <g>
      <path class="c1" d="M41.425,76.393v0.852h-1.092v2.148h-0.99v-2.148h-3.444v-0.768l3.774-5.388h0.66v5.304H41.425z M39.344,76.393v-4.038l-2.856,4.038H39.344z"/>
      <g>
        <path class="c1 c2" d="M49.974,74.641c0-0.929,0.14-1.728,0.42-2.397c0.28-0.67,0.652-1.169,1.116-1.497 c0.36-0.26,0.732-0.39,1.116-0.39c0.624,0,1.184,0.317,1.68,0.954c0.62,0.788,0.93,1.855,0.93,3.203 c0,0.944-0.136,1.746-0.408,2.406s-0.619,1.14-1.041,1.438c-0.422,0.298-0.829,0.446-1.221,0.446 c-0.776,0-1.422-0.458-1.938-1.374C50.192,76.658,49.974,75.729,49.974,74.641z M51.15,74.79c0,1.12,0.138,2.034,0.414,2.742 c0.228,0.596,0.568,0.894,1.02,0.894c0.216,0,0.44-0.097,0.672-0.291c0.232-0.193,0.408-0.519,0.528-0.975 c0.184-0.688,0.276-1.658,0.276-2.91c0-0.928-0.096-1.702-0.288-2.322c-0.144-0.46-0.33-0.785-0.558-0.978 c-0.164-0.132-0.362-0.198-0.594-0.198c-0.272,0-0.514,0.122-0.726,0.366c-0.288,0.332-0.484,0.854-0.588,1.566 S51.15,74.099,51.15,74.79z"/>
        <path class="c1 c2" d="M57.114,71.322l1.98-0.966h0.198v6.87c0,0.456,0.019,0.739,0.057,0.852s0.117,0.198,0.237,0.258 c0.12,0.061,0.364,0.095,0.732,0.103v0.222h-3.06v-0.222c0.384-0.008,0.632-0.041,0.744-0.1c0.112-0.058,0.19-0.136,0.234-0.233 c0.044-0.099,0.066-0.392,0.066-0.879v-4.393c0-0.592-0.02-0.972-0.06-1.14c-0.028-0.128-0.079-0.223-0.153-0.282 c-0.074-0.06-0.163-0.09-0.267-0.09c-0.148,0-0.354,0.062-0.618,0.186L57.114,71.322z"/>
      </g>
      <g>
        <path class="c1 c2" d="M65.672,71.322l1.98-0.966h0.197v6.87c0,0.456,0.02,0.739,0.057,0.852 c0.039,0.112,0.117,0.198,0.238,0.258c0.119,0.061,0.363,0.095,0.731,0.103v0.222h-3.06v-0.222 c0.383-0.008,0.631-0.041,0.744-0.1c0.111-0.058,0.189-0.136,0.233-0.233c0.044-0.099,0.065-0.392,0.065-0.879v-4.393 c0-0.592-0.02-0.972-0.06-1.14c-0.028-0.128-0.079-0.223-0.153-0.282s-0.162-0.09-0.267-0.09c-0.147,0-0.354,0.062-0.618,0.186 L65.672,71.322z"/>
        <path class="c1 c2" d="M72.734,74.562c-0.645-0.528-1.06-0.952-1.246-1.272c-0.186-0.32-0.278-0.651-0.278-0.996 c0-0.527,0.204-0.982,0.612-1.365c0.408-0.382,0.949-0.572,1.625-0.572c0.656,0,1.185,0.178,1.584,0.534 c0.4,0.355,0.601,0.762,0.601,1.218c0,0.304-0.108,0.614-0.323,0.93c-0.217,0.316-0.666,0.688-1.351,1.116 c0.704,0.544,1.17,0.972,1.397,1.284c0.305,0.407,0.457,0.838,0.457,1.29c0,0.571-0.219,1.061-0.654,1.467 s-1.008,0.608-1.717,0.608c-0.771,0-1.373-0.241-1.806-0.726c-0.344-0.388-0.516-0.812-0.516-1.271 c0-0.36,0.12-0.718,0.362-1.071C71.725,75.381,72.143,74.99,72.734,74.562z M73.016,74.79c-0.332,0.28-0.578,0.585-0.738,0.915 c-0.159,0.33-0.239,0.688-0.239,1.071c0,0.516,0.142,0.929,0.423,1.239c0.282,0.31,0.641,0.465,1.077,0.465 c0.433,0,0.778-0.122,1.038-0.366s0.39-0.54,0.39-0.888c0-0.288-0.075-0.547-0.228-0.774 C74.454,76.028,73.88,75.475,73.016,74.79z M73.676,73.92c0.48-0.432,0.784-0.772,0.912-1.022s0.191-0.533,0.191-0.85 c0-0.42-0.117-0.749-0.354-0.986c-0.236-0.238-0.558-0.357-0.966-0.357s-0.74,0.118-0.996,0.354 c-0.256,0.235-0.384,0.512-0.384,0.827c0,0.208,0.053,0.416,0.158,0.624c0.106,0.208,0.258,0.406,0.453,0.595L73.676,73.92z"/>
      </g>
      <g>
        <path class="c1 c2" d="M85.887,77.094l-0.57,1.566h-4.799v-0.222c1.411-1.288,2.405-2.34,2.981-3.156 c0.575-0.816,0.864-1.562,0.864-2.238c0-0.516-0.158-0.939-0.475-1.271s-0.693-0.498-1.134-0.498 c-0.399,0-0.759,0.117-1.077,0.351c-0.318,0.234-0.553,0.577-0.705,1.029h-0.222c0.101-0.74,0.356-1.309,0.771-1.704 c0.414-0.396,0.932-0.594,1.551-0.594c0.66,0,1.211,0.212,1.654,0.636c0.441,0.424,0.662,0.924,0.662,1.5 c0,0.412-0.096,0.824-0.287,1.236c-0.297,0.647-0.777,1.334-1.44,2.058c-0.996,1.088-1.618,1.744-1.866,1.968h2.124 c0.433,0,0.735-0.016,0.909-0.048s0.33-0.097,0.471-0.195c0.141-0.098,0.262-0.236,0.366-0.417H85.887z"/>
        <path class="c1 c2" d="M91.904,70.356v0.222c-0.527,0.052-0.959,0.157-1.293,0.315c-0.334,0.157-0.664,0.398-0.989,0.723 c-0.326,0.324-0.597,0.685-0.81,1.083c-0.215,0.398-0.394,0.871-0.537,1.419c0.576-0.396,1.153-0.594,1.733-0.594 c0.556,0,1.038,0.224,1.446,0.672s0.611,1.023,0.611,1.728c0,0.681-0.205,1.301-0.617,1.86c-0.496,0.68-1.152,1.02-1.969,1.02 c-0.556,0-1.027-0.184-1.416-0.552c-0.76-0.716-1.14-1.644-1.14-2.784c0-0.728,0.146-1.42,0.438-2.075 c0.291-0.656,0.709-1.238,1.25-1.746c0.543-0.508,1.062-0.851,1.558-1.026s0.958-0.264,1.386-0.264H91.904z M88.173,74.557 c-0.071,0.539-0.108,0.976-0.108,1.308c0,0.384,0.071,0.801,0.213,1.251c0.143,0.45,0.354,0.807,0.634,1.071 c0.204,0.188,0.452,0.281,0.743,0.281c0.349,0,0.66-0.164,0.934-0.491c0.273-0.328,0.411-0.796,0.411-1.404 c0-0.685-0.136-1.276-0.408-1.776s-0.657-0.75-1.157-0.75c-0.152,0-0.315,0.032-0.49,0.097 C88.77,74.206,88.513,74.344,88.173,74.557z"/>
      </g>
      <g>
        <path class="c1 c2" d="M100.51,70.524l-0.468,1.02h-2.448l-0.534,1.092c1.06,0.156,1.9,0.551,2.521,1.183 c0.531,0.544,0.798,1.184,0.798,1.92c0,0.428-0.087,0.824-0.261,1.188c-0.174,0.364-0.394,0.675-0.657,0.931 c-0.265,0.256-0.558,0.462-0.882,0.618c-0.461,0.22-0.933,0.329-1.416,0.329c-0.488,0-0.844-0.083-1.065-0.249 c-0.222-0.165-0.333-0.349-0.333-0.549c0-0.111,0.046-0.211,0.139-0.297c0.092-0.086,0.207-0.129,0.348-0.129 c0.104,0,0.195,0.016,0.273,0.048c0.077,0.032,0.211,0.114,0.398,0.246c0.3,0.208,0.604,0.312,0.912,0.312 c0.468,0,0.879-0.178,1.232-0.531c0.354-0.354,0.531-0.785,0.531-1.293c0-0.492-0.158-0.951-0.474-1.377 c-0.316-0.426-0.753-0.755-1.308-0.987c-0.437-0.18-1.031-0.284-1.783-0.312l1.561-3.162H100.51z"/>
        <path class="c1 c2" d="M102.76,71.322l1.98-0.966h0.197v6.87c0,0.456,0.02,0.739,0.057,0.852 c0.039,0.112,0.117,0.198,0.238,0.258c0.119,0.061,0.363,0.095,0.731,0.103v0.222h-3.06v-0.222 c0.383-0.008,0.631-0.041,0.744-0.1c0.111-0.058,0.189-0.136,0.233-0.233c0.044-0.099,0.065-0.392,0.065-0.879v-4.393 c0-0.592-0.02-0.972-0.06-1.14c-0.028-0.128-0.079-0.223-0.153-0.282s-0.162-0.09-0.267-0.09c-0.147,0-0.354,0.062-0.618,0.186 L102.76,71.322z"/>
      </g>
    </g>



    <g>
        <path class="c1" d="M41.042,83.787l-0.468,1.02h-2.448l-0.534,1.092c1.06,0.156,1.9,0.551,2.52,1.183 c0.532,0.544,0.798,1.184,0.798,1.92c0,0.428-0.087,0.824-0.261,1.188c-0.174,0.364-0.393,0.675-0.657,0.931 c-0.264,0.256-0.558,0.462-0.882,0.618c-0.46,0.22-0.932,0.329-1.416,0.329c-0.488,0-0.843-0.083-1.065-0.249 c-0.222-0.165-0.333-0.349-0.333-0.549c0-0.111,0.046-0.211,0.138-0.297c0.092-0.086,0.208-0.129,0.348-0.129 c0.104,0,0.195,0.016,0.273,0.048c0.078,0.032,0.211,0.114,0.399,0.246c0.3,0.208,0.604,0.312,0.912,0.312 c0.468,0,0.879-0.178,1.233-0.531c0.354-0.354,0.531-0.785,0.531-1.293c0-0.492-0.158-0.951-0.474-1.377 c-0.316-0.426-0.752-0.755-1.308-0.987c-0.436-0.18-1.03-0.284-1.782-0.312l1.56-3.162H41.042z"/>

      <g>
        <path class="c1 c2" d="M49.974,87.586c0-0.929,0.14-1.728,0.42-2.397c0.28-0.67,0.652-1.169,1.116-1.497 c0.36-0.26,0.732-0.39,1.116-0.39c0.624,0,1.184,0.317,1.68,0.954c0.62,0.788,0.93,1.855,0.93,3.203 c0,0.944-0.136,1.746-0.408,2.406s-0.619,1.14-1.041,1.438c-0.422,0.298-0.829,0.446-1.221,0.446 c-0.776,0-1.422-0.458-1.938-1.374C50.192,89.604,49.974,88.674,49.974,87.586z M51.15,87.735c0,1.12,0.138,2.034,0.414,2.742 c0.228,0.596,0.568,0.894,1.02,0.894c0.216,0,0.44-0.097,0.672-0.291c0.232-0.193,0.408-0.519,0.528-0.975 c0.184-0.688,0.276-1.658,0.276-2.91c0-0.928-0.096-1.702-0.288-2.322c-0.144-0.46-0.33-0.785-0.558-0.978 c-0.164-0.132-0.362-0.198-0.594-0.198c-0.272,0-0.514,0.122-0.726,0.366c-0.288,0.332-0.484,0.854-0.588,1.566 S51.15,87.044,51.15,87.735z"/>
        <path class="c1 c2" d="M57.114,84.268l1.98-0.966h0.198v6.87c0,0.456,0.019,0.739,0.057,0.852s0.117,0.198,0.237,0.258 c0.12,0.061,0.364,0.095,0.732,0.103v0.222h-3.06v-0.222c0.384-0.008,0.632-0.041,0.744-0.1c0.112-0.058,0.19-0.136,0.234-0.233 c0.044-0.099,0.066-0.392,0.066-0.879v-4.393c0-0.592-0.02-0.972-0.06-1.14c-0.028-0.128-0.079-0.223-0.153-0.282 c-0.074-0.06-0.163-0.09-0.267-0.09c-0.148,0-0.354,0.062-0.618,0.186L57.114,84.268z"/>
      </g>
      <g>
        <path class="c1 c2" d="M65.672,84.268l1.98-0.966h0.197v6.87c0,0.456,0.02,0.739,0.057,0.852 c0.039,0.112,0.117,0.198,0.238,0.258c0.119,0.061,0.363,0.095,0.731,0.103v0.222h-3.06v-0.222 c0.383-0.008,0.631-0.041,0.744-0.1c0.111-0.058,0.189-0.136,0.233-0.233c0.044-0.099,0.065-0.392,0.065-0.879v-4.393 c0-0.592-0.02-0.972-0.06-1.14c-0.028-0.128-0.079-0.223-0.153-0.282s-0.162-0.09-0.267-0.09c-0.147,0-0.354,0.062-0.618,0.186 L65.672,84.268z"/>
        <path class="c1 c2" d="M72.734,87.508c-0.645-0.528-1.06-0.952-1.246-1.272c-0.186-0.32-0.278-0.651-0.278-0.996 c0-0.527,0.204-0.982,0.612-1.365c0.408-0.382,0.949-0.572,1.625-0.572c0.656,0,1.185,0.178,1.584,0.534 c0.4,0.355,0.601,0.762,0.601,1.218c0,0.304-0.108,0.614-0.323,0.93c-0.217,0.316-0.666,0.688-1.351,1.116 c0.704,0.544,1.17,0.972,1.397,1.284c0.305,0.407,0.457,0.838,0.457,1.29c0,0.571-0.219,1.061-0.654,1.467 s-1.008,0.608-1.717,0.608c-0.771,0-1.373-0.241-1.806-0.726c-0.344-0.388-0.516-0.812-0.516-1.271 c0-0.36,0.12-0.718,0.362-1.071C71.725,88.326,72.143,87.936,72.734,87.508z M73.016,87.735c-0.332,0.28-0.578,0.585-0.738,0.915 c-0.159,0.33-0.239,0.688-0.239,1.071c0,0.516,0.142,0.929,0.423,1.239c0.282,0.31,0.641,0.465,1.077,0.465 c0.433,0,0.778-0.122,1.038-0.366s0.39-0.54,0.39-0.888c0-0.288-0.075-0.547-0.228-0.774 C74.454,88.974,73.88,88.42,73.016,87.735z M73.676,86.865c0.48-0.432,0.784-0.772,0.912-1.022s0.191-0.533,0.191-0.85 c0-0.42-0.117-0.749-0.354-0.986c-0.236-0.238-0.558-0.357-0.966-0.357s-0.74,0.118-0.996,0.354 c-0.256,0.235-0.384,0.512-0.384,0.827c0,0.208,0.053,0.416,0.158,0.624c0.106,0.208,0.258,0.406,0.453,0.595L73.676,86.865z"/>
      </g>
      <g>
        <path class="c1 c2" d="M85.887,90.039l-0.57,1.566h-4.799v-0.222c1.411-1.288,2.405-2.34,2.981-3.156 c0.575-0.816,0.864-1.562,0.864-2.238c0-0.516-0.158-0.939-0.475-1.271s-0.693-0.498-1.134-0.498 c-0.399,0-0.759,0.117-1.077,0.351c-0.318,0.234-0.553,0.577-0.705,1.029h-0.222c0.101-0.74,0.356-1.309,0.771-1.704 c0.414-0.396,0.932-0.594,1.551-0.594c0.66,0,1.211,0.212,1.654,0.636c0.441,0.424,0.662,0.924,0.662,1.5 c0,0.412-0.096,0.824-0.287,1.236c-0.297,0.647-0.777,1.334-1.44,2.058c-0.996,1.088-1.618,1.744-1.866,1.968h2.124 c0.433,0,0.735-0.016,0.909-0.048s0.33-0.097,0.471-0.195c0.141-0.098,0.262-0.236,0.366-0.417H85.887z"/>
        <path class="c1 c2" d="M91.904,83.302v0.222c-0.527,0.052-0.959,0.157-1.293,0.315c-0.334,0.157-0.664,0.398-0.989,0.723 c-0.326,0.324-0.597,0.685-0.81,1.083c-0.215,0.398-0.394,0.871-0.537,1.419c0.576-0.396,1.153-0.594,1.733-0.594 c0.556,0,1.038,0.224,1.446,0.672s0.611,1.023,0.611,1.728c0,0.681-0.205,1.301-0.617,1.86c-0.496,0.68-1.152,1.02-1.969,1.02 c-0.556,0-1.027-0.184-1.416-0.552c-0.76-0.716-1.14-1.644-1.14-2.784c0-0.728,0.146-1.42,0.438-2.075 c0.291-0.656,0.709-1.238,1.25-1.746c0.543-0.508,1.062-0.851,1.558-1.026s0.958-0.264,1.386-0.264H91.904z M88.173,87.502 c-0.071,0.539-0.108,0.976-0.108,1.308c0,0.384,0.071,0.801,0.213,1.251c0.143,0.45,0.354,0.807,0.634,1.071 c0.204,0.188,0.452,0.281,0.743,0.281c0.349,0,0.66-0.164,0.934-0.491c0.273-0.328,0.411-0.796,0.411-1.404 c0-0.685-0.136-1.276-0.408-1.776s-0.657-0.75-1.157-0.75c-0.152,0-0.315,0.032-0.49,0.097 C88.77,87.151,88.513,87.289,88.173,87.502z"/>
      </g>
    </g>
    <g>
      <path class="c1" d="M41.215,96.152v0.222c-0.528,0.052-0.959,0.157-1.293,0.315c-0.334,0.157-0.664,0.398-0.99,0.723 c-0.326,0.324-0.596,0.685-0.81,1.083s-0.393,0.871-0.537,1.419c0.576-0.396,1.154-0.594,1.734-0.594 c0.556,0,1.038,0.224,1.446,0.672c0.408,0.448,0.612,1.023,0.612,1.728c0,0.681-0.206,1.301-0.618,1.86 c-0.496,0.68-1.152,1.02-1.968,1.02c-0.556,0-1.028-0.184-1.416-0.552c-0.76-0.716-1.14-1.644-1.14-2.784 c0-0.728,0.146-1.42,0.438-2.075c0.292-0.656,0.709-1.238,1.251-1.746s1.061-0.851,1.557-1.026s0.958-0.264,1.386-0.264H41.215z M37.483,100.353c-0.072,0.539-0.108,0.976-0.108,1.308c0,0.384,0.071,0.801,0.213,1.251s0.353,0.807,0.633,1.071 c0.204,0.188,0.452,0.281,0.744,0.281c0.348,0,0.659-0.164,0.933-0.491c0.274-0.328,0.411-0.796,0.411-1.404 c0-0.685-0.136-1.276-0.408-1.776s-0.658-0.75-1.158-0.75c-0.152,0-0.315,0.032-0.489,0.097 C38.081,100.002,37.823,100.14,37.483,100.353z"/>
      <g>
        <path class="c1 c2" d="M49.974,100.312c0-0.929,0.14-1.728,0.42-2.397c0.28-0.67,0.652-1.169,1.116-1.497 c0.36-0.26,0.732-0.39,1.116-0.39c0.624,0,1.184,0.317,1.68,0.954c0.62,0.788,0.93,1.855,0.93,3.203 c0,0.944-0.136,1.746-0.408,2.406s-0.619,1.14-1.041,1.438c-0.422,0.298-0.829,0.446-1.221,0.446 c-0.776,0-1.422-0.458-1.938-1.374C50.192,102.33,49.974,101.4,49.974,100.312z M51.15,100.462c0,1.12,0.138,2.034,0.414,2.742 c0.228,0.596,0.568,0.894,1.02,0.894c0.216,0,0.44-0.097,0.672-0.291c0.232-0.193,0.408-0.519,0.528-0.975 c0.184-0.688,0.276-1.658,0.276-2.91c0-0.928-0.096-1.702-0.288-2.322c-0.144-0.46-0.33-0.785-0.558-0.978 c-0.164-0.132-0.362-0.198-0.594-0.198c-0.272,0-0.514,0.122-0.726,0.366c-0.288,0.332-0.484,0.854-0.588,1.566 S51.15,99.771,51.15,100.462z"/>
        <path class="c1 c2" d="M56.298,97.744c0.232-0.548,0.525-0.971,0.879-1.27c0.354-0.298,0.795-0.446,1.323-0.446 c0.652,0,1.152,0.212,1.5,0.636c0.264,0.316,0.396,0.654,0.396,1.014c0,0.593-0.372,1.204-1.116,1.836 c0.5,0.196,0.878,0.477,1.134,0.841c0.256,0.363,0.384,0.792,0.384,1.283c0,0.704-0.224,1.314-0.672,1.83 c-0.584,0.672-1.43,1.008-2.538,1.008c-0.548,0-0.921-0.067-1.119-0.203c-0.198-0.137-0.297-0.282-0.297-0.438 c0-0.116,0.047-0.218,0.141-0.306c0.094-0.088,0.207-0.132,0.339-0.132c0.1,0,0.202,0.016,0.306,0.048 c0.068,0.02,0.222,0.093,0.462,0.219c0.24,0.126,0.406,0.201,0.498,0.225c0.148,0.044,0.306,0.066,0.474,0.066 c0.408,0,0.763-0.158,1.065-0.474c0.302-0.316,0.453-0.69,0.453-1.122c0-0.316-0.07-0.624-0.21-0.925 c-0.104-0.224-0.218-0.394-0.342-0.51c-0.172-0.16-0.408-0.305-0.708-0.435c-0.3-0.13-0.606-0.195-0.918-0.195H57.54v-0.18 c0.316-0.04,0.633-0.154,0.951-0.342c0.318-0.188,0.549-0.414,0.693-0.679c0.144-0.264,0.216-0.554,0.216-0.87 c0-0.411-0.129-0.744-0.387-0.999c-0.258-0.254-0.579-0.381-0.963-0.381c-0.62,0-1.138,0.332-1.554,0.996L56.298,97.744z"/>
      </g>
    </g>
  </g>
</svg>
