<svg id="icon-scatterplot" xmlns="http://www.w3.org/2000/svg" viewBox="0 0 130 130">
  <style>
    .bg {
      fill: hsl(280, 84%, 31%);
    }
    .c1 {
      fill: #FFFFFF;
    }
  </style>
  <circle class="bg" cx="65" cy="65" r="64"/>
  <g>
    <path class="c1" d="M99.809,97.559H29.977V32.607c0-0.829,0.671-1.5,1.5-1.5s1.5,0.671,1.5,1.5v61.952h66.832 c0.828,0,1.5,0.672,1.5,1.5S100.637,97.559,99.809,97.559z"/>
    <circle class="c1" cx="44.001" cy="84.212" r="2.034"/>
    <circle class="c1" cx="48.119" cy="74.604" r="2.034"/>
    <circle class="c1" cx="58.931" cy="85.229" r="2.034"/>
    <circle class="c1" cx="61.219" cy="68.604" r="2.034"/>
    <circle class="c1" cx="69.15" cy="76.077" r="2.033"/>
    <circle class="c1" cx="89.7" cy="82.6" r="2.034"/>
    <circle class="c1" cx="69.456" cy="56.401" r="2.034"/>
    <circle class="c1" cx="55.575" cy="51.979" r="2.034"/>
    <circle class="c1" cx="77.389" cy="63.875" r="2.034"/>
    <circle class="c1" cx="70.371" cy="63.57" r="2.034"/>
    <circle class="c1" cx="54.508" cy="63.875" r="2.034"/>
    <circle class="c1" cx="60.303" cy="76.229" r="2.034"/>
    <circle class="c1" cx="82.725" cy="42.98" r="2.034"/>
    <circle class="c1" cx="89.131" cy="54.418" r="2.034"/>
    <circle class="c1" cx="79.064" cy="52.131" r="2.034"/>
    <circle class="c1" cx="94.471" cy="44.047" r="2.034"/>
    <circle class="c1" cx="89.889" cy="35.965" r="2.034"/>

  </g>
</svg>
