<svg id="reference_tool" xmlns="http://www.w3.org/2000/svg" viewBox="0 0 170 170">
  <style>
    .s0 { 
      fill: hsl(312, 100%, 31%);
    }
    .s1 { 
      fill: hsl(0, 0%, 100%);
    }
  </style>
  <circle class="s0" cx="85" cy="85" r="84.5"/>
  <g>
    <g>
      <path class="s1" d="M138.129,96.611c0,1.219-1.33,2.205-2.971,2.205H34.842c-1.641,0-2.97-0.986-2.97-2.205v-3.922 c0-1.219,1.33-2.207,2.97-2.207h100.316c1.641,0,2.971,0.988,2.971,2.207V96.611z"/>
      <path class="s1" d="M138.129,115.273c0,1.219-1.33,2.205-2.971,2.205H34.842c-1.641,0-2.97-0.986-2.97-2.205v-3.922 c0-1.219,1.33-2.207,2.97-2.207h100.316c1.641,0,2.971,0.988,2.971,2.207V115.273z"/>
      <path class="s1" d="M138.129,76.902c0,1.218-1.33,2.206-2.971,2.206H34.842c-1.641,0-2.97-0.988-2.97-2.206v-3.923 c0-1.218,1.33-2.206,2.97-2.206h100.316c1.641,0,2.971,0.988,2.971,2.206V76.902z"/>
      <path class="s1" d="M138.129,57.195c0,1.218-1.33,2.206-2.971,2.206H34.842c-1.641,0-2.97-0.988-2.97-2.206v-3.923 c0-1.218,1.33-2.206,2.97-2.206h100.316c1.641,0,2.971,0.988,2.971,2.206V57.195z"/>
    </g>
    <g>
      <g>
        <path class="s1" d="M121.868,116.504L102.43,97.066c2.297-3.633,3.627-7.934,3.629-12.551 c-0.002-12.984-10.525-23.507-23.513-23.512C69.558,61.007,59.034,71.53,59.034,84.514c0,12.989,10.524,23.511,23.512,23.515 c4.813,0,9.291-1.449,13.017-3.932l19.354,19.354c0.961,0.961,2.217,1.438,3.477,1.438c1.256,0,2.517-0.479,3.476-1.438 C123.787,121.533,123.787,118.422,121.868,116.504z M71.371,95.689c-2.865-2.871-4.624-6.799-4.627-11.175 c0.004-4.374,1.763-8.3,4.627-11.174c2.871-2.863,6.799-4.625,11.175-4.627c4.375,0.002,8.302,1.764,11.175,4.627 c2.865,2.874,4.627,6.801,4.629,11.174c-0.002,4.376-1.764,8.304-4.629,11.175c-2.873,2.865-6.8,4.627-11.175,4.631 C78.17,100.316,74.242,98.557,71.371,95.689z"/>
        <path class="s0" d="M118.393,125.891c-1.581,0-3.067-0.615-4.184-1.731l-18.784-18.785 c-3.866,2.395-8.301,3.655-12.879,3.655c-13.516-0.004-24.512-11.002-24.512-24.515c0-13.511,10.996-24.507,24.511-24.511 c13.515,0.005,24.511,11.001,24.513,24.512c-0.002,4.379-1.163,8.65-3.366,12.4l18.883,18.882 c1.117,1.116,1.732,2.602,1.732,4.181c0,1.58-0.615,3.064-1.732,4.182C121.46,125.275,119.975,125.891,118.393,125.891z M95.69,102.811l19.933,19.935c1.479,1.477,4.062,1.479,5.538,0c0.739-0.739,1.146-1.722,1.146-2.768 c0-1.045-0.407-2.027-1.146-2.767l-20.004-20.003l0.427-0.676c2.271-3.592,3.473-7.748,3.475-12.018 c-0.002-12.408-10.102-22.507-22.513-22.512c-12.413,0.004-22.511,10.102-22.511,22.511c0,12.412,10.099,22.511,22.512,22.515 c4.457,0,8.766-1.302,12.461-3.764L95.69,102.811z M82.547,101.32c-4.488-0.004-8.708-1.753-11.882-4.923 c-3.17-3.177-4.917-7.396-4.92-11.883c0.004-4.483,1.751-8.702,4.918-11.881c3.182-3.172,7.401-4.919,11.883-4.921h0.001 c4.48,0.002,8.699,1.749,11.88,4.918c3.173,3.184,4.921,7.402,4.923,11.882c-0.002,4.484-1.75,8.704-4.921,11.882 C91.248,99.568,87.028,101.316,82.547,101.32z M82.546,69.713c-3.949,0.002-7.667,1.542-10.469,4.335 c-2.79,2.799-4.33,6.518-4.333,10.467c0.002,3.952,1.542,7.669,4.335,10.468c2.796,2.793,6.515,4.333,10.468,4.337 c3.947-0.004,7.666-1.545,10.468-4.339c2.793-2.799,4.333-6.517,4.335-10.468c-0.002-3.946-1.542-7.664-4.337-10.468 C90.211,71.254,86.493,69.715,82.546,69.713z"/>
      </g>
      <circle class="s0" cx="82.58" cy="84.793" r="15.318"/>
    </g>
    <g>
      <path class="s1" d="M71.141,74.129c0,2.284-0.858,3.545-2.336,3.545c-1.312,0-2.211-1.23-2.232-3.452 c0-2.264,0.981-3.494,2.346-3.494C70.324,70.729,71.141,71.989,71.141,74.129z M67.492,74.232c0,1.747,0.538,2.739,1.364,2.739 c0.919,0,1.364-1.085,1.364-2.801c0-1.653-0.413-2.739-1.364-2.739C68.071,71.431,67.492,72.403,67.492,74.232z"/>
      <path class="s1" d="M73.941,71.69H73.92l-1.168,0.63l-0.175-0.692l1.468-0.785h0.775v6.718h-0.878L73.941,71.69 L73.941,71.69z"/>
      <path class="s1" d="M81.744,74.129c0,2.284-0.858,3.545-2.335,3.545c-1.313,0-2.212-1.23-2.233-3.452 c0-2.264,0.982-3.494,2.347-3.494C80.927,70.729,81.744,71.989,81.744,74.129z M78.095,74.232c0,1.747,0.538,2.739,1.364,2.739 c0.92,0,1.364-1.085,1.364-2.801c0-1.653-0.413-2.739-1.364-2.739C78.674,71.431,78.095,72.403,78.095,74.232z"/>
      <path class="s1" d="M84.544,71.69h-0.021l-1.168,0.63l-0.175-0.692l1.467-0.785h0.775v6.718h-0.879L84.544,71.69 L84.544,71.69z"/>
      <path class="s1" d="M92.348,74.129c0,2.284-0.857,3.545-2.336,3.545c-1.312,0-2.212-1.23-2.232-3.452 c0-2.264,0.982-3.494,2.347-3.494C91.529,70.729,92.348,71.989,92.348,74.129z M88.698,74.232c0,1.747,0.538,2.739,1.364,2.739 c0.92,0,1.364-1.085,1.364-2.801c0-1.653-0.413-2.739-1.364-2.739C89.277,71.431,88.698,72.403,88.698,74.232z"/>
      <path class="s1" d="M97.648,74.129c0,2.284-0.857,3.545-2.336,3.545c-1.312,0-2.211-1.23-2.231-3.452 c0-2.264,0.981-3.494,2.346-3.494C96.832,70.729,97.648,71.989,97.648,74.129z M94,74.232c0,1.747,0.538,2.739,1.365,2.739 c0.919,0,1.363-1.085,1.363-2.801c0-1.653-0.414-2.739-1.363-2.739C94.579,71.431,94,72.403,94,74.232z"/>
      <path class="s1" d="M71.141,84.464c0,2.284-0.858,3.545-2.336,3.545c-1.312,0-2.211-1.229-2.232-3.452 c0-2.264,0.981-3.494,2.346-3.494C70.324,81.063,71.141,82.324,71.141,84.464z M67.492,84.567c0,1.746,0.538,2.74,1.364,2.74 c0.919,0,1.364-1.086,1.364-2.802c0-1.654-0.413-2.739-1.364-2.739C68.071,81.766,67.492,82.738,67.492,84.567z"/>
      <path class="s1" d="M73.941,82.025H73.92l-1.168,0.63l-0.175-0.692l1.468-0.786h0.775v6.718h-0.878L73.941,82.025 L73.941,82.025z"/>
      <path class="s1" d="M79.243,82.025h-0.021l-1.168,0.63l-0.175-0.692l1.467-0.786h0.775v6.718h-0.878V82.025z"/>
      <path class="s1" d="M87.046,84.464c0,2.284-0.858,3.545-2.336,3.545c-1.312,0-2.211-1.229-2.232-3.452 c0-2.264,0.982-3.494,2.346-3.494C86.229,81.063,87.046,82.324,87.046,84.464z M83.397,84.567c0,1.746,0.538,2.74,1.364,2.74 c0.918,0,1.364-1.086,1.364-2.802c0-1.654-0.413-2.739-1.364-2.739C83.976,81.766,83.397,82.738,83.397,84.567z"/>
      <path class="s1" d="M89.846,82.025h-0.021l-1.168,0.63l-0.175-0.692l1.468-0.786h0.774v6.718h-0.879V82.025L89.846,82.025z"/>
      <path class="s1" d="M97.648,84.464c0,2.284-0.857,3.545-2.336,3.545c-1.312,0-2.211-1.229-2.231-3.452 c0-2.264,0.981-3.494,2.346-3.494C96.832,81.063,97.648,82.324,97.648,84.464z M94,84.567c0,1.746,0.538,2.74,1.365,2.74 c0.919,0,1.363-1.086,1.363-2.802c0-1.654-0.414-2.739-1.363-2.739C94.579,81.766,94,82.738,94,84.567z"/>
      <path class="s1" d="M70.83,92.359h-0.02l-1.168,0.631l-0.175-0.692l1.467-0.784h0.775v6.717H70.83V92.359z"/>
      <path class="s1" d="M78.633,94.799c0,2.284-0.858,3.545-2.335,3.545c-1.313,0-2.212-1.229-2.233-3.451 c0-2.264,0.982-3.494,2.346-3.494C77.816,91.398,78.633,92.659,78.633,94.799z M74.984,94.902c0,1.746,0.538,2.738,1.364,2.738 c0.92,0,1.364-1.086,1.364-2.801c0-1.654-0.413-2.738-1.364-2.738C75.563,92.102,74.984,93.072,74.984,94.902z"/>
      <path class="s1" d="M83.935,94.799c0,2.284-0.858,3.545-2.336,3.545c-1.312,0-2.211-1.229-2.233-3.451 c0-2.264,0.982-3.494,2.347-3.494C83.118,91.398,83.935,92.659,83.935,94.799z M80.287,94.902c0,1.746,0.538,2.738,1.364,2.738 c0.919,0,1.364-1.086,1.364-2.801c0-1.654-0.413-2.738-1.364-2.738C80.865,92.102,80.287,93.072,80.287,94.902z"/>
      <path class="s1" d="M86.734,92.359h-0.021l-1.167,0.631l-0.175-0.692l1.468-0.784h0.775v6.717h-0.879v-5.871H86.734z"/>
      <path class="s1" d="M92.036,92.359h-0.021l-1.168,0.631l-0.177-0.692l1.47-0.784h0.773v6.717h-0.879L92.036,92.359 L92.036,92.359z"/>
      <path class="s1" d="M97.338,92.359h-0.021l-1.168,0.631l-0.176-0.692l1.469-0.784h0.774v6.717h-0.879L97.338,92.359 L97.338,92.359z"/>
    </g>
  </g>
</svg>
