<svg id="icon-100_percent_bar_chart" xmlns="http://www.w3.org/2000/svg" viewBox="0 0 130 130">
  <style>
    .bg {
      fill: hsl(280, 84%, 31%);
    }
    .c1 {
      fill: #FFFFFF;
      stroke: #FFFFFF;
    }
    .c2 {
      fill: hsl(0, 0%, 100%);
      stroke: hsl(280, 84%, 31%);
      stroke-width: 2px;
    }
    .dim {
      opacity: 0.7;
    }

  </style>
  <defs>
    <symbol id="line-chart"  viewBox="0 0 130 130">
      <path class="c1" d="M24.892,94.4c-0.302,0-0.608-0.068-0.897-0.213c-0.987-0.496-1.385-1.698-0.889-2.686l13.975-27.796
    		c0.331-0.657,0.995-1.08,1.731-1.101c0.734-0.011,1.423,0.365,1.79,1.001l11.27,19.581l11.305-20.192
    		c0.329-0.587,0.931-0.97,1.602-1.018c0.669-0.044,1.322,0.245,1.731,0.779l7.546,9.853L89.694,36.8
    		c0.307-0.703,0.988-1.168,1.754-1.198c0.758-0.033,1.481,0.38,1.843,1.056l13.58,25.415c0.521,0.974,0.153,2.186-0.821,2.707
    		c-0.975,0.521-2.186,0.152-2.706-0.822L91.708,42.183L76.362,77.318c-0.283,0.648-0.889,1.1-1.592,1.185
    		c-0.71,0.084-1.399-0.207-1.829-0.77l-7.76-10.132L53.64,88.215c-0.352,0.629-1.014,1.02-1.733,1.023c-0.004,0-0.008,0-0.012,0
    		c-0.715,0-1.376-0.382-1.733-1.002L38.987,68.82L26.68,93.299C26.329,93.997,25.624,94.4,24.892,94.4z"/>
    </symbol>
    
    <symbol id="bar-chart"  viewBox="0 0 130 130">
      <g>
        <rect class="c1" x="28.741" y="60.375" width="14.708" height="32.949"/>
        <rect class="c1" x="86.721" y="67.037" width="14.706" height="26.287"/>
        <rect class="c1" x="67.395" y="49.194" width="14.707" height="44.13"/>
        <rect class="c1" x="48.066" y="29.777" width="14.708" height="63.547"/>
      </g>
    </symbol>
    
    <symbol id="table"  viewBox="0 0 130 130">
      <g>
        <rect class="c2" x="52.572" y="33.297" width="24.86" height="15.851"/>
        <rect class="c2" x="77.434" y="33.296" width="24.848" height="15.852"/>

        <rect class="c2" x="27.721" y="49.148" width="24.852" height="15.854"/>
        <rect class="c2 dim" x="52.572" y="49.148" width="24.86" height="15.854"/>
        <rect class="c2 dim" x="77.434" y="49.148" width="24.848" height="15.854"/>
        <rect class="c2" x="27.721" y="65" width="24.852" height="15.852"/>
        <rect class="c2 dim" x="52.572" y="65" width="24.86" height="15.852"/>
        <rect class="c2 dim" x="77.434" y="65" width="24.848" height="15.852"/>
        <rect class="c2" x="27.721" y="80.852" width="24.852" height="15.854"/>
        <rect class="c2 dim" x="52.572" y="80.852" width="24.86" height="15.854"/>
        <rect class="c2 dim" x="77.434" y="80.852" width="24.848" height="15.854"/>
      </g>
    </symbol>
    
  </defs>  
  <circle class="bg" cx="65" cy="65" r="64"/>
  <g>
    <use x="15" y="-25" width="100" href="#line-chart"/>
    <use x="10" y="20" width="60" href="#bar-chart"/>
    <use x="60" y="20" width="60" href="#table"/>
  </g>
</svg>
