<svg id="icon-lollipop_chart" xmlns="http://www.w3.org/2000/svg" viewBox="0 0 130 130">
  <style>
    .bg {
      fill: hsl(280, 84%, 31%);
    }
    .c1 {
      fill: #FFFFFF;
    }
  </style>
  <g>
   <circle class="bg" cx="65" cy="65" r="64"/>
    <g>
      <path class="c1" d="M36,58.4c-3.7,0-6.7,3-6.7,6.7c0,3.1,2.2,5.7,5.1,6.4V98h3.2V71.5c2.9-0.7,5.1-3.3,5.1-6.4
        			C42.7,61.3,39.7,58.4,36,58.4z"/>
      <path class="c1" d="M55.3,27.8c-3.7,0-6.7,3-6.7,6.7c0,3.1,2.2,5.7,5.1,6.4V98h3.2V40.9c2.9-0.7,5.1-3.3,5.1-6.4
        			C62,30.7,59,27.8,55.3,27.8z"/>
      <path class="c1" d="M74.7,47.9c-3.7,0-6.7,3-6.7,6.7c0,3.1,2.2,5.7,5.1,6.4V98h3.2V61c2.9-0.7,5.1-3.3,5.1-6.4
        			C81.3,50.9,78.3,47.9,74.7,47.9z"/>
      <path class="c1" d="M100.7,71.7c0-3.7-3-6.7-6.7-6.7s-6.7,3-6.7,6.7c0,3.1,2.2,5.7,5.1,6.4V98h3.2V78.1
      			C98.5,77.4,100.7,74.8,100.7,71.7z"/>
    </g>
  </g>
</svg>
