<svg viewBox="0 0 700 560" xmlns="http://www.w3.org/2000/svg">

 <g>
  <path d="m133.55 315.3c-2.2383-0.60938-4.6289-0.30469-6.6445 0.84766s-3.4883 3.0586-4.1016 5.2969c-1.2695 4.6641 1.4805 9.4727 6.1445 10.746l75.004 20.43-22.934 50.488c-1.9844-0.38281-4-0.58594-6.0195-0.61328-11.254-0.14844-21.91 5.0625-28.707 14.035s-8.9219 20.641-5.7344 31.434c3.1914 10.797 11.324 19.43 21.906 23.266 10.582 3.8359 22.355 2.4141 31.723-3.8281 9.3672-6.2461 15.207-16.566 15.738-27.812 0.53125-11.242-4.3125-22.07-13.051-29.168l24.148-53.113 100.39 27.379v0.003906c0.76172 0.20313 1.5469 0.30469 2.3359 0.30469 3.5234 0 6.6992-2.1094 8.0664-5.3555l40.434-96.031 82.75 22.285v0.35156c-0.042969 8.3477 2.8984 16.434 8.2969 22.801 5.3945 6.3672 12.887 10.598 21.125 11.926 8.2383 1.332 16.684-0.32812 23.809-4.6719 7.1211-4.3477 12.461-11.098 15.047-19.031 2.5859-7.9375 2.25-16.535-0.94141-24.246-3.1953-7.7109-9.0391-14.023-16.48-17.805l19.828-89.188 45.184-11.297c4.5859-1.2578 7.3281-5.9453 6.1758-10.559-1.1523-4.6094-5.7734-7.4609-10.41-6.418l-36.75 9.1797 13.797-62.062c11.52-0.33984 22.141-6.293 28.438-15.945 6.2969-9.6484 7.4688-21.77 3.1406-32.445-4.332-10.68-13.613-18.559-24.855-21.098-11.238-2.5391-23.008 0.58594-31.508 8.3633-8.4961 7.7812-12.648 19.227-11.113 30.648 1.5352 11.418 8.5664 21.359 18.82 26.617l-15.707 70.672-119.26 29.82c-2.6758 0.66797-4.8789 2.5547-5.9492 5.0938l-23.625 56.133-64.559-17.387v-0.35156c0.089844-12.055-6.0312-23.305-16.199-29.781-10.168-6.4727-22.953-7.2617-33.84-2.082-10.883 5.1797-18.336 15.598-19.727 27.57-1.3906 11.977 3.4805 23.824 12.891 31.355l-29.285 64.445zm41.449 139.7c-4.6406 0-9.0938-1.8438-12.375-5.125s-5.125-7.7344-5.125-12.375 1.8438-9.0938 5.125-12.375 7.7344-5.125 12.375-5.125 9.0938 1.8438 12.375 5.125 5.125 7.7344 5.125 12.375-1.8438 9.0938-5.125 12.375-7.7344 5.125-12.375 5.125zm350-385c0-4.6406 1.8438-9.0938 5.125-12.375s7.7344-5.125 12.375-5.125 9.0938 1.8438 12.375 5.125 5.125 7.7344 5.125 12.375-1.8438 9.0938-5.125 12.375-7.7344 5.125-12.375 5.125-9.0938-1.8438-12.375-5.125-5.125-7.7344-5.125-12.375zm-17.5 236.25c0 4.6406-1.8438 9.0938-5.125 12.375s-7.7344 5.125-12.375 5.125-9.0938-1.8438-12.375-5.125-5.125-7.7344-5.125-12.375 1.8438-9.0938 5.125-12.375 7.7344-5.125 12.375-5.125 9.0938 1.8438 12.375 5.125 5.125 7.7344 5.125 12.375zm-107.38-88.82 106.57-26.68-17.91 80.598c-12.102 0.43359-23.105 7.1172-29.07 17.656l-80.613-21.699zm-137.62 10.07c4.6406 0 9.0938 1.8438 12.375 5.125s5.125 7.7344 5.125 12.375-1.8438 9.0938-5.125 12.375-7.7344 5.125-12.375 5.125-9.0938-1.8438-12.375-5.125-5.125-7.7344-5.125-12.375 1.8438-9.0938 5.125-12.375 7.7344-5.125 12.375-5.125zm-6.0273 51.887c1.9844 0.38281 4.0039 0.58594 6.0273 0.61328 6.168-0.019531 12.223-1.6758 17.543-4.8008 5.3203-3.125 9.7148-7.6016 12.742-12.98l62.414 16.801-36.539 86.773-90.285-24.621z"/>
  <path d="M80,25 V530 H600" fill="none" stroke="black" stroke-width="20" stroke-linecap="round"/>
 </g>
</svg>
