<svg viewBox="0 0 700 560" xmlns="http://www.w3.org/2000/svg">

 <g>
  <path d="m350 17.5c-69.621 0-136.39 27.656-185.62 76.883-49.227 49.23-76.883 116-76.883 185.62s27.656 136.39 76.883 185.62c49.23 49.227 116 76.883 185.62 76.883s136.39-27.656 185.62-76.883c49.227-49.23 76.883-116 76.883-185.62-0.078125-69.594-27.762-136.32-76.973-185.53-49.211-49.211-115.93-76.895-185.53-76.973zm-8.75 17.719v214.27l-113.53-181.65c34.59-20.039 73.582-31.242 113.53-32.621zm-128.39 41.859 117.66 188.26-213.5-61.004v-0.003906c16.953-51.871 50.668-96.633 95.844-127.25zm-107.86 202.92c0-19.832 2.4141-39.594 7.1914-58.844l221.11 63.176-162.5 162.5c-42.312-45.242-65.836-104.88-65.801-166.83zm245 245c-61.945 0.035156-121.59-23.488-166.83-65.801l173.02-173.01c0.18359-0.18359 0.26953-0.44531 0.4375-0.64844 0.34766-0.42578 0.65625-0.88281 0.91797-1.3672 0.19141-0.26562 0.37109-0.54297 0.53516-0.82812 0.097656-0.23438 0.085937-0.48828 0.16797-0.73438h-0.003906c0.15625-0.53516 0.26172-1.082 0.31641-1.6367 0.085937-0.32031 0.14844-0.64453 0.19141-0.97266v-244.78c63.906 2.6758 124.23 30.234 168.09 76.789 43.859 46.559 67.77 108.42 66.629 172.37-1.1445 63.953-27.25 124.92-72.742 169.88-45.492 44.961-106.77 70.348-170.73 70.738z"/>
 </g>
</svg>
