<svg viewBox="0 0 700 560" xmlns="http://www.w3.org/2000/svg">

 <g>
  <path d="m612.32 548.05h-524.82c-3.0195 0-5.4688-2.4492-5.4688-5.4688v-526.01c0-3.0195 2.4492-5.4688 5.4688-5.4688h524.82c1.4531 0 2.8438 0.57422 3.8672 1.6016 1.0273 1.0273 1.6016 2.418 1.6016 3.8672v526.01c0 1.4492-0.57422 2.8398-1.6016 3.8672-1.0234 1.0234-2.4141 1.6016-3.8672 1.6016zm-519.36-10.938h513.89v-515.07h-513.89z"/>
  <path d="m88.68 86.418h526.01v10.938h-526.01z"/>
  <path d="m88.68 161.72h526.01v10.938h-526.01z"/>
  <path d="m88.68 237.04h526.01v10.938h-526.01z"/>
  <path d="m88.68 311.17h526.01v10.938h-526.01z"/>
  <path d="m88.68 386.49h526.01v10.938h-526.01z"/>
  <path d="m88.68 461.79h526.01v10.938h-526.01z"/>
  <path d="m502.13 16.57h10.938v526.01h-10.938z"/>
  <path d="m397.39 16.57h10.938v526.01h-10.938z"/>
  <path d="m292.66 16.57h10.938v526.01h-10.938z"/>
  <path d="m187.94 16.57h10.938v526.01h-10.938z"/>
  <path d="m351.09 230.78c-6.6719 0-13.07-2.6484-17.789-7.3672s-7.3672-11.117-7.3672-17.789 2.6484-13.07 7.3672-17.789 11.117-7.3672 17.789-7.3672 13.07 2.6484 17.789 7.3672 7.3672 11.117 7.3672 17.789-2.6484 13.07-7.3672 17.789-11.117 7.3672-17.789 7.3672zm0-39.375c-5.75 0-10.938 3.4648-13.137 8.7773s-0.98438 11.43 3.082 15.496c4.0664 4.0664 10.184 5.2812 15.496 3.082s8.7773-7.3867 8.7773-13.137c0-7.8516-6.3672-14.219-14.219-14.219z"/>
  <path d="m457.19 379.53c-6.6719 0-13.07-2.6484-17.789-7.3672s-7.3672-11.117-7.3672-17.789 2.6484-13.07 7.3672-17.789 11.117-7.3672 17.789-7.3672 13.07 2.6484 17.789 7.3672 7.3672 11.117 7.3672 17.789-2.6484 13.07-7.3672 17.789-11.117 7.3672-17.789 7.3672zm0-39.375c-5.75 0-10.938 3.4648-13.137 8.7773s-0.98438 11.43 3.082 15.496c4.0664 4.0664 10.184 5.2812 15.496 3.082s8.7773-7.3867 8.7773-13.137c0-7.8516-6.3672-14.219-14.219-14.219z"/>
  <path d="m557.81 529.38c-6.6719 0-13.07-2.6484-17.789-7.3672s-7.3672-11.117-7.3672-17.789 2.6484-13.07 7.3672-17.789 11.117-7.3672 17.789-7.3672 13.07 2.6484 17.789 7.3672 7.3672 11.117 7.3672 17.789-2.6484 13.07-7.3672 17.789-11.117 7.3672-17.789 7.3672zm0-39.375c-5.75 0-10.938 3.4648-13.137 8.7773s-0.98438 11.43 3.082 15.496c4.0664 4.0664 10.184 5.2812 15.496 3.082s8.7773-7.3867 8.7773-13.137c0-7.8516-6.3672-14.219-14.219-14.219z"/>
  <path d="m248.28 302.97c-6.6719 0-13.07-2.6484-17.789-7.3672s-7.3672-11.117-7.3672-17.789 2.6484-13.07 7.3672-17.789 11.117-7.3672 17.789-7.3672 13.07 2.6484 17.789 7.3672 7.3672 11.117 7.3672 17.789-2.6484 13.07-7.3672 17.789-11.117 7.3672-17.789 7.3672zm0-39.375c-5.75 0-10.938 3.4648-13.137 8.7773s-0.98438 11.43 3.082 15.496c4.0664 4.0664 10.184 5.2812 15.496 3.082s8.7773-7.3867 8.7773-13.137c0-7.8516-6.3672-14.219-14.219-14.219z"/>
  <path d="m193.59 97.344c-1.1367 0-2.2461-0.35547-3.1719-1.0156l-106.09-75.469c-2.3477-1.7891-2.8555-5.1211-1.1406-7.5273 1.7148-2.4023 5.0273-3.0156 7.4844-1.3789l106.09 75.469c1.9336 1.3828 2.7578 3.8555 2.0312 6.1172-0.72266 2.2656-2.8281 3.8008-5.2031 3.8047z"/>
 </g>
</svg>
