<svg viewBox="0 0 700 560" xmlns="http://www.w3.org/2000/svg">

 <g>
  <path d="m191.41 547.97h-66.719c-3.0195 0-5.4688-2.4492-5.4688-5.4688v-262.5c0-3.0195 2.4492-5.4688 5.4688-5.4688h66.719c1.4492 0 2.8398 0.57422 3.8672 1.6016 1.0273 1.0273 1.6016 2.418 1.6016 3.8672v262.5c0 1.4492-0.57422 2.8398-1.6016 3.8672-1.0273 1.0273-2.418 1.6016-3.8672 1.6016zm-61.25-10.938h55.781v-251.56h-55.781z"/>
  <path d="m258.12 547.97h-66.719c-3.0195 0-5.4688-2.4492-5.4688-5.4688v-185.94c0-3.0195 2.4492-5.4688 5.4688-5.4688h66.719c1.4492 0 2.8398 0.57422 3.8672 1.6016 1.0273 1.0273 1.6016 2.418 1.6016 3.8672v185.94c0 1.4492-0.57422 2.8398-1.6016 3.8672-1.0273 1.0273-2.418 1.6016-3.8672 1.6016zm-61.25-10.938h55.781v-175h-55.781z"/>
  <path d="m360.94 547.97h-66.719c-3.0195 0-5.4688-2.4492-5.4688-5.4688v-383.91c0-3.0195 2.4492-5.4688 5.4688-5.4688h66.719c1.4492 0 2.8398 0.57422 3.8672 1.6016 1.0273 1.0273 1.6016 2.418 1.6016 3.8672v383.91c0 1.4492-0.57422 2.8398-1.6016 3.8672-1.0273 1.0273-2.418 1.6016-3.8672 1.6016zm-61.25-10.938h55.781v-372.97h-55.781z"/>
  <path d="m427.66 547.97h-66.719c-3.0195 0-5.4688-2.4492-5.4688-5.4688v-307.34c0-3.0195 2.4492-5.4688 5.4688-5.4688h66.719c1.4492 0 2.8398 0.57422 3.8672 1.6016 1.0273 1.0273 1.6016 2.418 1.6016 3.8672v307.34c0 1.4492-0.57422 2.8398-1.6016 3.8672-1.0273 1.0273-2.418 1.6016-3.8672 1.6016zm-61.25-10.938h55.781v-296.41h-55.781z"/>
  <path d="m529.38 547.97h-66.719c-3.0195 0-5.4688-2.4492-5.4688-5.4688v-144.38c0-3.0195 2.4492-5.4688 5.4688-5.4688h66.719c1.4492 0 2.8398 0.57422 3.8672 1.6016 1.0273 1.0273 1.6016 2.418 1.6016 3.8672v144.38c0 1.4492-0.57422 2.8398-1.6016 3.8672-1.0273 1.0273-2.418 1.6016-3.8672 1.6016zm-61.25-10.938h55.781v-133.44h-55.781z"/>
  <path d="m596.09 547.97h-66.719c-3.0195 0-5.4688-2.4492-5.4688-5.4688v-103.91c0-3.0195 2.4492-5.4688 5.4688-5.4688h66.719c1.4492 0 2.8398 0.57422 3.8672 1.6016 1.0273 1.0273 1.6016 2.418 1.6016 3.8672v103.91c0 1.4492-0.57422 2.8398-1.6016 3.8672-1.0273 1.0273-2.418 1.6016-3.8672 1.6016zm-61.25-10.938h55.781v-92.969h-55.781z"/>
  <path d="m613.59 547.97h-525c-3.0195 0-5.4688-2.4492-5.4688-5.4688v-526.09c0-3.0195 2.4492-5.4688 5.4688-5.4688s5.4688 2.4492 5.4688 5.4688v520.62h519.53c3.0195 0 5.4688 2.4492 5.4688 5.4688s-2.4492 5.4688-5.4688 5.4688z"/>
  <path d="m178.28 76.562h-53.594c-3.0195 0-5.4688-2.4492-5.4688-5.4688v-54.688c0-3.0195 2.4492-5.4688 5.4688-5.4688h53.594c1.4492 0 2.8398 0.57422 3.8672 1.6016 1.0273 1.0273 1.6016 2.418 1.6016 3.8672v54.688c0 1.4492-0.57422 2.8398-1.6016 3.8672-1.0273 1.0273-2.418 1.6016-3.8672 1.6016zm-48.125-10.938h42.656v-43.75h-42.656z"/>
  <path d="m178.28 158.59h-53.594c-3.0195 0-5.4688-2.4492-5.4688-5.4688v-54.688c0-3.0195 2.4492-5.4688 5.4688-5.4688h53.594c1.4492 0 2.8398 0.57422 3.8672 1.6016 1.0273 1.0273 1.6016 2.418 1.6016 3.8672v54.688c0 1.4492-0.57422 2.8398-1.6016 3.8672-1.0273 1.0273-2.418 1.6016-3.8672 1.6016zm-48.125-10.938h42.656v-43.75h-42.656z"/>
  <path d="m350.37 22.367h-140.16c-3.0195 0-5.4688-2.4492-5.4688-5.4688 0-3.0195 2.4492-5.4688 5.4688-5.4688h140.16c3.0195 0 5.4688 2.4492 5.4688 5.4688 0 3.0195-2.4492 5.4688-5.4688 5.4688z"/>
  <path d="m350.37 56.57h-140.16c-3.0195 0-5.4688-2.4492-5.4688-5.4688 0-3.0234 2.4492-5.4688 5.4688-5.4688h140.16c3.0195 0 5.4688 2.4453 5.4688 5.4688 0 3.0195-2.4492 5.4688-5.4688 5.4688z"/>
  <path d="m280.37 90.781h-70.074c-3.0234 0-5.4688-2.4492-5.4688-5.4688s2.4453-5.4688 5.4688-5.4688h70.078-0.003906c3.0195 0 5.4688 2.4492 5.4688 5.4688s-2.4492 5.4688-5.4688 5.4688z"/>
 </g>
</svg>
