<svg viewBox="0 0 700 560" xmlns="http://www.w3.org/2000/svg">
 <g>
  <path d="m191.41 546.88h-100.62c-3.0195 0-5.4688-2.4492-5.4688-5.4688v-304.06c0-3.0195 2.4492-5.4688 5.4688-5.4688h100.62c1.4492 0 2.8398 0.57422 3.8672 1.6016 1.0273 1.0273 1.6016 2.418 1.6016 3.8672v304.06c0 1.4492-0.57422 2.8398-1.6016 3.8672-1.0273 1.0273-2.418 1.6016-3.8672 1.6016zm-95.156-10.938h89.688v-293.12h-89.688z"/>
  <path d="m330.9 546.88h-100.62c-3.0195 0-5.4688-2.4492-5.4688-5.4688v-223.29c0-3.0195 2.4492-5.4688 5.4688-5.4688h100.62c1.4531 0 2.8438 0.57422 3.8672 1.6016 1.0273 1.0273 1.6016 2.418 1.6016 3.8672v223.29c0 1.4492-0.57422 2.8398-1.6016 3.8672-1.0234 1.0273-2.4141 1.6016-3.8672 1.6016zm-95.156-10.938h89.688v-212.35h-89.688z"/>
  <path d="m471.7 546.88h-100.57c-3.0234 0-5.4688-2.4492-5.4688-5.4688v-445.39c0-3.0195 2.4453-5.4688 5.4688-5.4688h100.57c1.4492 0 2.8398 0.57812 3.8672 1.6016 1.0234 1.0273 1.6016 2.418 1.6016 3.8672v445.39c0 1.4492-0.57812 2.8398-1.6016 3.8672-1.0273 1.0273-2.418 1.6016-3.8672 1.6016zm-95.102-10.938h89.633v-434.45h-89.633z"/>
  <path d="m612.5 546.88h-100.57c-3.0195 0-5.4688-2.4492-5.4688-5.4688v-525c0-3.0195 2.4492-5.4688 5.4688-5.4688h100.57c1.4492 0 2.8398 0.57422 3.8672 1.6016 1.0273 1.0273 1.6016 2.418 1.6016 3.8672v525c0 1.4492-0.57422 2.8398-1.6016 3.8672-1.0273 1.0273-2.418 1.6016-3.8672 1.6016zm-95.102-10.938h89.633v-514.06h-89.633z"/>
  <path d="m471.7 101.49h-100.57c-3.0234 0-5.4688-2.4492-5.4688-5.4688v-79.613c0-3.0195 2.4453-5.4688 5.4688-5.4688h100.57c1.4492 0 2.8398 0.57422 3.8672 1.6016 1.0234 1.0273 1.6016 2.418 1.6016 3.8672v79.613c0 1.4531-0.57812 2.8438-1.6016 3.8672-1.0273 1.0273-2.418 1.6016-3.8672 1.6016zm-95.102-10.938h89.633v-68.676h-89.633z"/>
  <path d="m191.41 242.81h-100.62c-3.0195 0-5.4688-2.4492-5.4688-5.4688v-220.94c0-3.0195 2.4492-5.4688 5.4688-5.4688h100.62c1.4492 0 2.8398 0.57422 3.8672 1.6016 1.0273 1.0273 1.6016 2.418 1.6016 3.8672v220.94c0 1.4492-0.57422 2.8398-1.6016 3.8672-1.0273 1.0273-2.418 1.6016-3.8672 1.6016zm-95.156-10.938h89.688v-210h-89.688z"/>
  <path d="m330.9 323.59h-100.62c-3.0195 0-5.4688-2.4492-5.4688-5.4688v-301.71c0-3.0195 2.4492-5.4688 5.4688-5.4688h100.62c1.4531 0 2.8438 0.57422 3.8672 1.6016 1.0273 1.0273 1.6016 2.418 1.6016 3.8672v301.71c0 1.4492-0.57422 2.8398-1.6016 3.8672-1.0234 1.0273-2.4141 1.6016-3.8672 1.6016zm-95.156-10.938h89.688v-290.77h-89.688z"/>
 </g>
</svg>
