<svg viewBox="0 0 700 560" xmlns="http://www.w3.org/2000/svg">

 <g>
  <path d="m283.04 168.79c-1.8438 0.003907-3.5664-0.92187-4.582-2.4609l-67.867-103.3c-0.82422-1.2109-1.1328-2.7031-0.84766-4.1406 0.28125-1.4375 1.1328-2.7031 2.3555-3.5078 1.2266-0.80859 2.7227-1.0898 4.1562-0.78125 1.4336 0.30859 2.6836 1.1797 3.4688 2.4141l67.934 103.3c1.1055 1.6758 1.1992 3.8281 0.25 5.5977-0.95312 1.7695-2.8008 2.875-4.8125 2.8789z"/>
  <path d="m138.26 392.66c-2.0391-0.019531-3.8984-1.168-4.8242-2.9844l-3.7734-7.4141v-0.003906c-27.301-51.109-36.035-110.11-24.715-166.93 11.32-56.828 41.992-107.97 86.793-144.72 44.797-36.75 100.95-56.828 158.9-56.816s114.09 20.113 158.88 56.879c44.785 36.766 75.438 87.926 86.734 144.76s2.5391 115.82-24.781 166.93l-0.054687 0.078125-3.7617 6.7656c-0.71094 1.2656-1.8906 2.1992-3.2812 2.6055-1.4102 0.38672-2.9141 0.19141-4.1797-0.53516l-106.28-61.25h0.003907c-2.5938-1.4961-3.5039-4.793-2.0469-7.4062l2.2539-4.0352c19.098-36.016 17.879-79.414-3.2109-114.3-21.09-34.883-58.953-56.129-99.719-55.953-40.766 0.17578-78.441 21.75-99.227 56.816-20.789 35.066-21.633 78.477-2.2227 114.32l1.4883 2.6484v-0.003906c1.4688 2.6133 0.55859 5.918-2.0352 7.418l-108.11 62.344c-0.85547 0.51953-1.832 0.79297-2.832 0.79688zm428.3-12.906m-216.02-355.14c-55.422 0.015625-109.12 19.246-151.96 54.414-42.836 35.164-72.156 84.094-82.969 138.45-10.812 54.355-2.4453 110.78 23.672 159.66 0.003907 0.035156 0.003907 0.070312 0 0.10938l1.2344 2.2852 98.438-56.809c-20.441-39.375-18.836-86.57 4.2461-124.46 23.078-37.891 64.273-60.977 108.64-60.875 44.367 0.097657 85.461 23.367 108.37 61.363 22.91 37.992 24.309 85.195 3.6875 124.48l96.82 55.781 1.0938-1.8906v-0.003907c26.145-48.879 34.523-105.31 23.719-159.68-10.809-54.367-40.137-103.3-82.988-138.46-42.852-35.164-96.57-54.375-152-54.363z"/>
  <path d="m421.8 170.53c-2.0391-0.003906-3.9102-1.1445-4.8477-2.9531-0.9375-1.8125-0.78906-4 0.38672-5.668l70.93-100.46c1.7578-2.4648 5.1797-3.0352 7.6445-1.2773 2.4648 1.7578 3.0352 5.1797 1.2773 7.6445l-70.918 100.41c-1.0273 1.4492-2.6953 2.3125-4.4727 2.3086z"/>
  <path d="m367.5 259.22c-2.3867 0-4.4961-1.543-5.2188-3.8164-0.71875-2.2734 0.11719-4.7539 2.0703-6.125l162.97-114.84c2.4688-1.7422 5.8828-1.1484 7.6211 1.3242 1.7422 2.4688 1.1484 5.8828-1.3242 7.6211l-162.97 114.84c-0.92188 0.64844-2.0195 0.99609-3.1484 0.99609z"/>
  <path d="m350 290.94c-6.6719 0-13.07-2.6484-17.789-7.3672s-7.3672-11.117-7.3672-17.789 2.6484-13.07 7.3672-17.789 11.117-7.3672 17.789-7.3672 13.07 2.6484 17.789 7.3672 7.3672 11.117 7.3672 17.789-2.6484 13.07-7.3672 17.789-11.117 7.3672-17.789 7.3672zm0-39.375c-5.75 0-10.938 3.4648-13.137 8.7773s-0.98438 11.43 3.082 15.496c4.0664 4.0664 10.184 5.2812 15.496 3.082s8.7773-7.3867 8.7773-13.137c0-7.8516-6.3672-14.219-14.219-14.219z"/>
  <path d="m456.09 425.47h-210c-3.0195 0-5.4688-2.4492-5.4688-5.4688s2.4492-5.4688 5.4688-5.4688h210c3.0195 0 5.4688 2.4492 5.4688 5.4688s-2.4492 5.4688-5.4688 5.4688z"/>
  <path d="m456.09 460.11h-210c-3.0195 0-5.4688-2.4492-5.4688-5.4688 0-3.0234 2.4492-5.4688 5.4688-5.4688h210c3.0195 0 5.4688 2.4453 5.4688 5.4688 0 3.0195-2.4492 5.4688-5.4688 5.4688z"/>
  <path d="m456.09 494.73h-210c-3.0195 0-5.4688-2.4453-5.4688-5.4688 0-3.0195 2.4492-5.4688 5.4688-5.4688h210c3.0195 0 5.4688 2.4492 5.4688 5.4688 0 3.0234-2.4492 5.4688-5.4688 5.4688z"/>
  <path d="m351.09 529.38h-105c-3.0195 0-5.4688-2.4492-5.4688-5.4688s2.4492-5.4688 5.4688-5.4688h105c3.0195 0 5.4688 2.4492 5.4688 5.4688s-2.4492 5.4688-5.4688 5.4688z"/>
 </g>
</svg>
