<svg viewBox="0 0 700 560" xmlns="http://www.w3.org/2000/svg">

 <g>
  <path d="m603.75 525h-498.75v-498.75c0-4.832-3.918-8.75-8.75-8.75s-8.75 3.918-8.75 8.75v507.5c0 2.3203 0.92188 4.5469 2.5625 6.1875s3.8672 2.5625 6.1875 2.5625h507.5c4.832 0 8.75-3.918 8.75-8.75s-3.918-8.75-8.75-8.75z"/>
  <path d="m166.25 332.5c2.3203 0 4.5469-0.92188 6.1875-2.5625s2.5625-3.8672 2.5625-6.1875v-8.75h8.75c4.832 0 8.75-3.918 8.75-8.75s-3.918-8.75-8.75-8.75h-8.75v-8.75c0-4.832-3.918-8.75-8.75-8.75s-8.75 3.918-8.75 8.75v8.75h-8.75c-4.832 0-8.75 3.918-8.75 8.75s3.918 8.75 8.75 8.75h8.75v8.75c0 2.3203 0.92188 4.5469 2.5625 6.1875s3.8672 2.5625 6.1875 2.5625z"/>
  <path d="m297.5 192.5c-9.2812 0-18.184 3.6875-24.75 10.25-6.5625 6.5664-10.25 15.469-10.25 24.75s3.6875 18.184 10.25 24.75c6.5664 6.5625 15.469 10.25 24.75 10.25s18.184-3.6875 24.75-10.25c6.5625-6.5664 10.25-15.469 10.25-24.75s-3.6875-18.184-10.25-24.75c-6.5664-6.5625-15.469-10.25-24.75-10.25zm0 52.5c-4.6406 0-9.0938-1.8438-12.375-5.125s-5.125-7.7344-5.125-12.375 1.8438-9.0938 5.125-12.375 7.7344-5.125 12.375-5.125 9.0938 1.8438 12.375 5.125 5.125 7.7344 5.125 12.375-1.8438 9.0938-5.125 12.375-7.7344 5.125-12.375 5.125z"/>
  <path d="m603.75 175h-8.75v-8.75c0-4.832-3.918-8.75-8.75-8.75s-8.75 3.918-8.75 8.75v8.75h-8.75c-4.832 0-8.75 3.918-8.75 8.75s3.918 8.75 8.75 8.75h8.75v8.75c0 4.832 3.918 8.75 8.75 8.75s8.75-3.918 8.75-8.75v-8.75h8.75c4.832 0 8.75-3.918 8.75-8.75s-3.918-8.75-8.75-8.75z"/>
  <path d="m507.5 288.75c-9.2812 0-18.184 3.6875-24.75 10.25-6.5625 6.5664-10.25 15.469-10.25 24.75s3.6875 18.184 10.25 24.75c6.5664 6.5625 15.469 10.25 24.75 10.25s18.184-3.6875 24.75-10.25c6.5625-6.5664 10.25-15.469 10.25-24.75s-3.6875-18.184-10.25-24.75c-6.5664-6.5625-15.469-10.25-24.75-10.25zm0 52.5c-4.6406 0-9.0938-1.8438-12.375-5.125s-5.125-7.7344-5.125-12.375 1.8438-9.0938 5.125-12.375 7.7344-5.125 12.375-5.125 9.0938 1.8438 12.375 5.125 5.125 7.7344 5.125 12.375-1.8438 9.0938-5.125 12.375-7.7344 5.125-12.375 5.125z"/>
  <path d="m595 52.5c0-9.2812-3.6875-18.184-10.25-24.75-6.5664-6.5625-15.469-10.25-24.75-10.25s-18.184 3.6875-24.75 10.25c-6.5625 6.5664-10.25 15.469-10.25 24.75s3.6875 18.184 10.25 24.75c6.5664 6.5625 15.469 10.25 24.75 10.25s18.184-3.6875 24.75-10.25c6.5625-6.5664 10.25-15.469 10.25-24.75zm-52.5 0c0-4.6406 1.8438-9.0938 5.125-12.375s7.7344-5.125 12.375-5.125 9.0938 1.8438 12.375 5.125 5.125 7.7344 5.125 12.375-1.8438 9.0938-5.125 12.375-7.7344 5.125-12.375 5.125-9.0938-1.8438-12.375-5.125-5.125-7.7344-5.125-12.375z"/>
  <path d="m428.75 245c2.3203 0 4.5469-0.92188 6.1875-2.5625s2.5625-3.8672 2.5625-6.1875v-8.75h8.75c4.832 0 8.75-3.918 8.75-8.75s-3.918-8.75-8.75-8.75h-8.75v-8.75c0-4.832-3.918-8.75-8.75-8.75s-8.75 3.918-8.75 8.75v8.75h-8.75c-4.832 0-8.75 3.918-8.75 8.75s3.918 8.75 8.75 8.75h8.75v8.75c0 2.3203 0.92188 4.5469 2.5625 6.1875s3.8672 2.5625 6.1875 2.5625z"/>
  <path d="m358.75 385c2.3203 0 4.5469-0.92188 6.1875-2.5625s2.5625-3.8672 2.5625-6.1875v-8.75h8.75c4.832 0 8.75-3.918 8.75-8.75s-3.918-8.75-8.75-8.75h-8.75v-8.75c0-4.832-3.918-8.75-8.75-8.75s-8.75 3.918-8.75 8.75v8.75h-8.75c-4.832 0-8.75 3.918-8.75 8.75s3.918 8.75 8.75 8.75h8.75v8.75c0 2.3203 0.92188 4.5469 2.5625 6.1875s3.8672 2.5625 6.1875 2.5625z"/>
  <path d="m210 455c9.2812 0 18.184-3.6875 24.75-10.25 6.5625-6.5664 10.25-15.469 10.25-24.75s-3.6875-18.184-10.25-24.75c-6.5664-6.5625-15.469-10.25-24.75-10.25s-18.184 3.6875-24.75 10.25c-6.5625 6.5664-10.25 15.469-10.25 24.75s3.6875 18.184 10.25 24.75c6.5664 6.5625 15.469 10.25 24.75 10.25zm0-52.5c4.6406 0 9.0938 1.8438 12.375 5.125s5.125 7.7344 5.125 12.375-1.8438 9.0938-5.125 12.375-7.7344 5.125-12.375 5.125-9.0938-1.8438-12.375-5.125-5.125-7.7344-5.125-12.375 1.8438-9.0938 5.125-12.375 7.7344-5.125 12.375-5.125z"/>
 </g>
</svg>
