<svg viewBox="0 0 700 560" xmlns="http://www.w3.org/2000/svg">

 <g>
  <path d="m603.75 525h-498.75v-498.75c0-4.832-3.918-8.75-8.75-8.75s-8.75 3.918-8.75 8.75v507.5c0 2.3203 0.92188 4.5469 2.5625 6.1875s3.8672 2.5625 6.1875 2.5625h507.5c4.832 0 8.75-3.918 8.75-8.75s-3.918-8.75-8.75-8.75z"/>
  <path d="m586.25 507.5c2.3203 0 4.5469-0.92188 6.1875-2.5625s2.5625-3.8672 2.5625-6.1875v-350c0.003906-3.8789-2.5469-7.2969-6.2656-8.3984-3.7148-1.1016-7.7148 0.375-9.8242 3.6289l-129.57 199.34-92.801-104.12h-0.003906c-2.2266-2.5195-5.6992-3.5391-8.9336-2.625l-117.82 33.68-92.645-84.23c-2.5664-2.332-6.2617-2.9297-9.4297-1.5273-3.168 1.3984-5.2109 4.5391-5.2109 8.0039v306.25c0 2.3203 0.92188 4.5469 2.5625 6.1875s3.8672 2.5625 6.1875 2.5625zm-446.25-295.21 81.609 74.191c2.25 2.0195 5.375 2.7539 8.2891 1.9414l117.25-33.496 96.738 108.61c1.8398 2.0078 4.4844 3.0742 7.2031 2.9062 2.7188-0.20703 5.1875-1.668 6.6758-3.957l119.73-184.21v311.73h-437.5z"/>
 </g>
</svg>
